<?xml version="1.0" encoding="UTF-8"?><svg xmlns="http://www.w3.org/2000/svg" viewBox="0 0 295.76 185.25"><defs><style>.d{fill:#fff;}.e{fill:#ff6521;}.f{fill:#f04321;}.g{fill:#ffce00;}.h{fill:#f0491f;}.i{fill:#feda24;}</style></defs><g id="a"/><g id="b"><g id="c"><path class="d" d="M171.45,23.24s-.05,.08-.07,.12c-.47,.81-1,1.57-1.59,2.28-2.41,2.89-5.76,4.9-9.35,5.62,.34,1.36,.49,2.76,.43,4.16-.62,.11-1.24,.19-1.87,.24-.47,.03-.94,.06-1.41,.06-1.85,0-3.65-.26-5.4-.8-1.02-.3-2.03-.7-3.01-1.19-2.08-.9-4.48-1.37-7.12-1.37-9.02,0-19.62,5.12-28.26,10.6-.18-1.06-.51-2.12-1-3.14-.14-.29-.3-.59-.47-.88-.3-.51-.65-1.03-1.04-1.52-.52-.66-1.12-1.3-1.77-1.9-.86-.77-1.82-1.47-2.87-2.04-.06-.04-.13-.07-.2-.11-.65-.34-1.33-.63-2.04-.87-.83-.28-1.71-.47-2.6-.56-.36-.04-.73-.06-1.1-.06-1.26,0-2.51,.22-3.69,.64-.38,.13-.74,.28-1.1,.45-.38,.19-.76,.4-1.11,.63-.11-.13-.23-.26-.35-.39-.1-.1-.2-.2-.3-.3,10.22-11.51,20.64-19.02,30.11-23.91,1.72-.89,3.4-1.69,5.05-2.4C142.52,.81,153.27,0,158.03,0c.27,0,.53,0,.78,.04,5.28,.38,10.13,3.48,12.68,8.09,2.71,4.64,2.7,10.3-.04,15.1Z"/><path class="d" d="M108.82,41.2s0,0,0,0c-.65,.44-1.29,.88-1.91,1.32-4.77,3.35-8.62,6.54-10.88,8.63-.46,.43-.98,.79-1.53,1.06-.89,.44-1.87,.67-2.88,.67-.59,0-1.18-.08-1.74-.24-.08-.02-.15-.05-.23-.07h0c-.35-.11-.69-.25-1.01-.42,0,0,0,0,0,0-.29-.15-.56-.32-.82-.51-.17-.13-.34-.25-.5-.4-.03-.03-.07-.06-.1-.1-.33-.31-.63-.64-.88-1-.39-.54-.68-1.13-.89-1.74-.25-.76-.35-1.55-.31-2.34,.06-1.23,.48-2.44,1.26-3.51,1.19-1.61,2.38-3.16,3.58-4.65,.49-.61,.98-1.21,1.47-1.81,.13,.13,.25,.27,.35,.4,.13,.15,.24,.3,.33,.44,.16,.23,.31,.46,.44,.7,.54,.99,.85,2.09,.91,3.22,.19-.15,.37-.32,.55-.46,.66-.84,1.2-1.53,1.46-1.86,.34-.42,.72-.79,1.14-1.1,.09-.1,.18-.2,.27-.31,.01,.03,.02,.06,.03,.09,.26-.18,.54-.34,.82-.48,.45-.22,.93-.38,1.43-.5h0c.49-.12,1-.17,1.52-.17s1.07,.06,1.58,.18c.04,0,.08,.01,.12,.02,1.24,.29,2.4,.87,3.41,1.61,.74,.53,1.39,1.16,1.95,1.82,.41,.49,.77,1,1.05,1.51Z"/><path class="d" d="M171.45,23.24s-.05,.08-.07,.12c-.47,.81-1,1.57-1.59,2.28-2.41,2.89-5.76,4.9-9.35,5.62-.61,.12-1.23,.2-1.85,.25-.33,.02-.66,.04-1,.04-2.31,0-4.54-.54-6.63-1.59-.19-.09-.39-.17-.59-.25h0c-2.49-1.01-5.27-1.52-8.29-1.52-9.69,0-20.69,5.11-29.74,10.75-.3-.51-.65-1.03-1.04-1.52-.52-.66-1.12-1.3-1.77-1.9-.86-.77-1.82-1.47-2.87-2.04-.06-.04-.13-.07-.2-.11-.65-.34-1.33-.63-2.04-.87-.83-.28-1.71-.47-2.6-.56-.36-.04-.73-.06-1.1-.06-1.26,0-2.51,.22-3.69,.64-.38,.13-.74,.28-1.1,.45-.38,.19-.76,.4-1.11,.63-.11-.13-.23-.26-.35-.39-.1-.1-.2-.2-.3-.3,10.22-11.51,20.64-19.02,30.11-23.91,1.72-.89,3.4-1.69,5.05-2.4C142.52,.81,153.27,0,158.03,0c.27,0,.53,0,.78,.04,5.28,.38,10.13,3.48,12.68,8.09,2.71,4.64,2.7,10.3-.04,15.1Z"/><path class="d" d="M155.97,44.52c.73-.55,1.48-.88,2.23-1.06-.72,1.07-1.56,2.06-2.49,2.92-.75,.7-1.57,1.33-2.42,1.87,0,0,0,0,0,0-2.51,1.6-5.4,2.5-8.32,2.5-1.18,0-2.33-.14-3.46-.41-.51-.13-1.01-.28-1.51-.45h0c-.56-.2-1.11-.44-1.65-.71-.02,0-.04-.01-.06-.03,.44-.49,.91-.95,1.39-1.39,2.95-2.72,6.58-4.53,10.77-4.53,1.81,0,3.45,.33,4.86,.96,.24,.1,.46,.21,.69,.33Z"/><path class="e" d="M107.77,39.69c-.65,.44-1.29,.88-1.91,1.31-1.27,.89-2.48,1.77-3.61,2.62-2.64,1.99-4.87,3.82-6.51,5.3-.35,.31-.67,.6-.97,.88-.39,.37-.84,.65-1.31,.85-.58,.26-1.21,.38-1.84,.38-.2,0-.41-.01-.62-.05-.15-.01-.31-.04-.46-.08-.17-.04-.34-.09-.51-.15-.52-.19-1.02-.47-1.46-.86-.01,0-.03-.02-.05-.04-.01-.01-.03-.03-.04-.04-.34-.31-.62-.65-.84-1.02-.37-.6-.58-1.27-.65-1.96-.1-1.1,.19-2.23,.89-3.18,1.01-1.38,2.03-2.71,3.05-3.99,0,0,0,0,0,0,.55-.69,1.09-1.36,1.64-2.02,.54,.99,.85,2.09,.91,3.22,.19-.15,.37-.32,.55-.46,.66-.84,1.2-1.53,1.46-1.86,.34-.42,.72-.79,1.14-1.1,.09-.1,.18-.2,.27-.31,.01,.03,.02,.06,.03,.09,.26-.18,.54-.34,.82-.48,.45-.22,.93-.38,1.43-.5h0c.49-.12,1-.17,1.52-.17s1.07,.06,1.58,.18c.04,0,.08,.01,.12,.02,1.24,.29,2.4,.87,3.41,1.61,.74,.53,1.39,1.16,1.95,1.82Z"/><path class="h" d="M169.83,22.32c-2.15,3.77-5.9,6.42-9.96,7.15h0c-.63,.12-1.27,.19-1.92,.2-.12,0-.24,0-.36,0-1.01,0-2.02-.12-2.99-.35-.97-.24-1.93-.59-2.85-1.05-2.19-.98-4.61-1.6-7.2-1.84-.82-.07-1.64-.11-2.49-.11-10.08,0-21.46,5.29-30.77,11.09-.52-.66-1.12-1.3-1.77-1.9-.86-.77-1.82-1.47-2.87-2.04-.06-.04-.13-.07-.2-.11-.65-.34-1.33-.63-2.04-.87-.83-.28-1.71-.47-2.6-.56-.36-.04-.73-.06-1.1-.06-1.26,0-2.51,.22-3.69,.64C122.95,4.34,149.75,1.87,158.03,1.85h0c.2,0,.4,0,.59,.04,4.69,.32,8.97,3.03,11.23,7.14,2.39,4.1,2.38,9.06-.03,13.29Z"/><path class="e" d="M150.43,43.23c1.81,0,3.45,.33,4.86,.96-.43,.47-.88,.9-1.37,1.31-.82,.7-1.72,1.31-2.67,1.81-1.95,1.03-4.11,1.61-6.29,1.61h0c-.49,0-.97-.03-1.45-.08-.67-.07-1.33-.2-1.97-.38-.64-.18-1.27-.4-1.88-.69,2.95-2.72,6.58-4.53,10.77-4.53Z"/><path class="h" d="M159,35.65c-.07,1.2-.32,2.39-.72,3.55-.79,.12-1.65,.33-2.53,.69-1.45-.49-3.01-.76-4.67-.82-.21,0-.43-.01-.65-.01-4.21,0-8.25,1.46-11.8,4.14-1.17,.88-2.28,1.89-3.33,3.03-.8-.19-1.63-.34-2.47-.45-2.33-2.12-5.45-3.49-9.32-3.49-1.01,0-1.83,.12-2.43,.21-.03,0-.31,.05-.33,.05-1.59,.29-3.09,.95-4.38,1.88-.79-.24-1.61-.39-2.44-.44-.02-.26-.05-.53-.09-.79-.01-.08-.02-.15-.04-.23-.18-1.06-.51-2.12-1-3.14-.14-.29-.3-.59-.47-.88-.3-.51-.65-1.03-1.04-1.52-.52-.66-1.12-1.3-1.77-1.9-.86-.77-1.82-1.47-2.87-2.04-.06-.04-.13-.07-.2-.11,1.34-.88,2.69-1.72,4.05-2.51,10.71-6.27,21.54-9.72,30.5-9.72,5.55,0,10.12,1.34,13.29,3.83,1.12,.88,2.06,1.9,2.81,3.05,.04,.06,.07,.11,.11,.17,.29,.48,.54,.98,.76,1.48,.26,.6,.47,1.21,.63,1.83,.36,1.36,.5,2.76,.41,4.15Z"/><path class="i" d="M102.4,36.26c-.89,.61-1.75,1.21-2.57,1.8,0,0-.01,0-.02,.01-.31,.22-.6,.44-.89,.65,0,0,0,0,0,0-.47,.34-.93,.68-1.37,1.01-.06,.04-.11,.09-.17,.13-1.58,1.19-2.96,2.28-4.11,3.22-1.58,1.29-2.73,2.29-3.35,2.84h0s-.03,.03-.05,.05c-.27,.24-.43,.38-.47,.42,.23-.31,.46-.62,.69-.92,.89-1.2,1.8-2.36,2.7-3.48,0,0,0,0,0,0,.23-.29,.46-.57,.69-.85,.27-.33,.54-.66,.81-.98,.78-.93,1.56-1.84,2.34-2.72,.09-.1,.18-.2,.27-.31,.01,.03,.02,.06,.03,.09,.26-.18,.54-.34,.82-.48,.45-.22,.93-.38,1.43-.5h0c.49-.12,1-.17,1.52-.17s1.07,.06,1.58,.18c.04,0,.08,.01,.12,.02Z"/><path class="g" d="M156.95,24.89c-.87,.17-1.77,.2-2.68,.07-.91-.13-1.83-.41-2.72-.87-14.25-6.47-32.02,1.29-44.91,9.38-.06-.04-.13-.07-.2-.11-.65-.34-1.33-.63-2.04-.87-.83-.28-1.71-.47-2.6-.56C126.9,7.06,151.5,6.5,155.84,6.48h0c3.16,.13,6.18,1.86,7.79,4.83,3.41,5.76-1.01,12.5-6.68,13.58Z"/><path class="d" d="M152.19,34.91c-.01,1.46-.42,2.89-1.11,4.16-.21,0-.43-.01-.65-.01-4.21,0-8.25,1.46-11.8,4.14-7.7-3.38-16.4-2.66-24.79-.01-.01-.08-.02-.15-.04-.23-.18-1.06-.51-2.12-1-3.14-.14-.29-.3-.59-.47-.88-.3-.51-.65-1.03-1.04-1.52-.52-.66-1.12-1.3-1.77-1.9,14.43-8.73,27.3-11.08,35.04-9.08,2.52,.65,4.5,1.76,5.81,3.26h0c.23,.27,.45,.55,.64,.85,.84,1.43,1.21,2.92,1.19,4.36Z"/><g><path class="d" d="M88.21,172.87c-.07-.43-.28-.84-.62-1.21s-.81-.68-1.42-.91l-2.73-1.04-1.56,4.08-.66,1.74-.8,2.1,1.3,.49,.79-2.07,.42-1.1,.99,.38,.22,1.35,.4,2.51,1.55,.59-.45-2.55-.26-1.48c.49,.06,.92,.03,1.29-.12,.15-.06,.29-.13,.42-.22,.46-.31,.79-.72,.98-1.24,.17-.44,.21-.88,.14-1.31Zm-3.88-1.61l1.43,.55c.49,.19,.82,.44,.97,.77,.15,.32,.15,.69,0,1.1-.16,.41-.4,.69-.74,.84-.34,.15-.75,.13-1.24-.05l-1.44-.55,1.01-2.65Z"/><path class="d" d="M96.9,175.28l.3-1.1-3.86-1.03-.66-.18-1.14,4.23-.38,1.43-.06,.21-.04,.15-.58,2.16,1.08,.29,3.43,.93,.3-1.09-3.18-.86,.28-1.05,.39-1.46,2.83,.76,.09-.35,.2-.74-2.82-.76,.65-2.4,3.17,.86Z"/><path class="d" d="M100.81,183.38c-.42-.27-.72-.61-.92-1.01-.2-.4-.25-.84-.17-1.33l1.47,.24c-.03,.37,.06,.69,.28,.96,.21,.27,.55,.45,1.01,.53,.47,.08,.86,.03,1.16-.16,.3-.18,.48-.46,.54-.82,.05-.28,0-.52-.13-.73-.14-.2-.32-.37-.54-.51-.23-.14-.55-.3-.96-.48-.52-.24-.94-.45-1.26-.66-.32-.2-.57-.48-.76-.84-.19-.35-.24-.79-.15-1.31,.08-.48,.27-.88,.57-1.2,.3-.32,.68-.54,1.15-.66,.46-.12,.98-.13,1.55-.04,.81,.13,1.44,.45,1.89,.94,.45,.49,.64,1.09,.58,1.81l-1.51-.25c.03-.31-.07-.59-.3-.85-.23-.26-.56-.43-.99-.5-.39-.07-.73-.02-1.01,.14-.28,.16-.45,.43-.52,.8-.04,.26,0,.48,.13,.67,.13,.19,.31,.35,.53,.49,.22,.14,.54,.29,.93,.48,.53,.24,.95,.47,1.28,.68,.32,.21,.58,.49,.77,.85,.19,.36,.24,.8,.16,1.33-.07,.42-.25,.81-.54,1.14-.29,.34-.67,.59-1.15,.74-.47,.16-1.01,.18-1.6,.09-.56-.09-1.05-.28-1.46-.55Z"/><path class="d" d="M115.74,176.72l-.07,1.13-2.25-.14-.46,7.32-1.39-.09,.46-7.32-2.26-.14,.07-1.13,5.9,.37Z"/><path class="d" d="M124.62,183.28l-3.54,.16-.53,1.76-1.45,.06,2.66-8.6,1.61-.07,3.41,8.34-1.46,.06-.68-1.7Zm-.44-1.11l-1.55-3.87-1.21,3.99,2.76-.12Z"/><path class="d" d="M131.11,175.86l.86,5.33c.1,.63,.34,1.08,.73,1.35,.38,.27,.87,.35,1.47,.26,.6-.1,1.04-.33,1.32-.71,.28-.37,.37-.88,.27-1.51l-.86-5.33,1.37-.22,.85,5.3c.11,.68,.05,1.28-.17,1.8-.22,.52-.56,.94-1.02,1.25-.46,.31-.99,.52-1.59,.61-.6,.1-1.17,.07-1.7-.09-.53-.15-.98-.44-1.34-.87-.36-.43-.6-.98-.71-1.66l-.85-5.3,1.37-.22Z"/><path class="d" d="M146.53,181.19l-2.78-2.75-1.02,.28,.9,3.27-1.34,.37-2.24-8.16,2.82-.77c.63-.17,1.19-.21,1.68-.11,.49,.1,.9,.3,1.22,.61s.54,.69,.66,1.14c.15,.53,.12,1.06-.07,1.58-.19,.52-.58,.95-1.18,1.28l2.95,2.83-1.6,.44Zm-4.09-3.54l1.48-.41c.5-.14,.84-.37,1.03-.69s.22-.69,.1-1.12c-.12-.42-.33-.72-.65-.89-.32-.17-.73-.18-1.24-.04l-1.48,.41,.75,2.74Z"/><path class="d" d="M156.65,175.79l-3.29,1.31,.07,1.83-1.35,.54-.31-9,1.49-.59,5.95,6.76-1.36,.54-1.2-1.38Zm-.78-.91l-2.73-3.15,.16,4.17,2.57-1.02Z"/><path class="d" d="M169.28,171.46l-1.22,.66-6.68-3.57,3.01,5.56-1.22,.66-4.03-7.46,1.22-.66,6.68,3.56-3-5.55,1.22-.66,4.03,7.46Z"/><path class="d" d="M173.04,158.81l.64,.93-1.85,1.28,4.17,6.03-1.14,.79-4.17-6.03-1.86,1.29-.64-.93,4.86-3.36Z"/><path class="d" d="M177.6,156.61l1.6,1.9,2.23-1.89,.73,.87-2.23,1.89,1.67,1.98,2.51-2.12,.73,.87-3.57,3.02-5.47-6.48,3.57-3.02,.73,.87-2.51,2.12Z"/></g><path class="d" d="M82.65,96.49c0,1.09-.06,2.22-.19,3.41h0c-.64,5.95-2.86,12.87-6.2,19.36-.57,1.1-1.16,2.18-1.78,3.24-.24,.4-.47,.79-.71,1.19-.38,.61-.79,1.25-1.24,1.92-3.38,5.05-8.87,11.58-15.64,13.68-.98,.3-1.99,.51-3.03,.61-.44,.05-.9,.06-1.35,.06-5.49,0-10.69-2-14.77-5.57-.28,.64-.55,1.28-.82,1.9-.32,.74-.62,1.45-.91,2.15-2.13,5.04-3.84,9.24-5.21,12.74-.44,1.14-.86,2.21-1.23,3.19-3.53,9.33-4.13,12.52-4.22,13.47-.47,4.69-3.84,7.72-8.59,7.72h-.88l-.85-.23c-5.2-1.39-15.03-6.64-15.03-16.65,0-6.24,6.43-21.23,13.79-36.34,.61-1.25,1.23-2.5,1.85-3.75,2.75-5.55,5.57-11.01,8.18-15.97,.52-.98,1.02-1.95,1.52-2.88,3.12-5.89,5.84-10.86,7.62-14.1v-.02l.08-.13,.1-.16c.11-.18,.22-.36,.33-.52,1.01-1.52,2.02-2.68,3.06-3.54,.34-.28,.68-.53,1.03-.76,.94-.6,1.91-1.01,2.95-1.26,1.26-.31,2.62-.42,4.1-.42,.85,0,1.76,.08,2.67,.25,1.59,.3,3.23,.86,4.71,1.71,.28,.16,.56,.33,.82,.52,.73,.49,1.4,1.06,2,1.7,.85-.56,1.68-1.07,2.51-1.52,.38-.21,.76-.4,1.14-.59,2.81-1.38,5.47-2.08,7.96-2.08,2.24,0,4.15,.34,5.79,.88,.97,.33,1.84,.72,2.62,1.17,1.87,1.06,3.23,2.39,4.18,3.6,.3,.38,.58,.77,.83,1.19,.19,.29,.37,.59,.53,.89,.93,1.69,1.57,3.6,1.93,5.72,.2,1.21,.32,2.5,.33,3.85,0,.12,0,.23,0,.34Z"/><path class="d" d="M82.65,96.49c0,1.09-.06,2.22-.19,3.41h0c-.64,5.95-2.86,12.87-6.2,19.36-.57,1.1-1.16,2.18-1.78,3.24-.24,.4-.47,.79-.71,1.19-.38,.61-.79,1.25-1.24,1.92-3.38,5.05-8.87,11.58-15.64,13.68-.98,.3-1.99,.51-3.03,.61-.44,.05-.9,.06-1.35,.06-5.49,0-10.69-2-14.77-5.57-.28,.64-.55,1.28-.82,1.9-.32,.74-.62,1.45-.91,2.15-2.13,5.04-3.84,9.24-5.21,12.74-.44,1.14-.86,2.21-1.23,3.19-3.53,9.33-4.13,12.52-4.22,13.47-.47,4.69-3.84,7.72-8.59,7.72h-.88l-.85-.23c-5.2-1.39-15.03-6.64-15.03-16.65,0-6.24,6.43-21.23,13.79-36.34,.61-1.25,1.23-2.5,1.85-3.75,2.75-5.55,5.57-11.01,8.18-15.97,.52-.98,1.02-1.95,1.52-2.88,3.12-5.89,5.84-10.86,7.62-14.1v-.02l.08-.13,.1-.16c.11-.18,.22-.36,.33-.52,1.01-1.52,2.02-2.68,3.06-3.54,.34-.28,.68-.53,1.03-.76,.94-.6,1.91-1.01,2.95-1.26,1.26-.31,2.62-.42,4.1-.42,.85,0,1.76,.08,2.67,.25,1.59,.3,3.23,.86,4.71,1.71,.28,.16,.56,.33,.82,.52,.73,.49,1.4,1.06,2,1.7,.85-.56,1.68-1.07,2.51-1.52,.38-.21,.76-.4,1.14-.59,2.81-1.38,5.47-2.08,7.96-2.08,2.24,0,4.15,.34,5.79,.88,.97,.33,1.84,.72,2.62,1.17,1.87,1.06,3.23,2.39,4.18,3.6,.3,.38,.58,.77,.83,1.19,.19,.29,.37,.59,.53,.89,.93,1.69,1.57,3.6,1.93,5.72,.2,1.21,.32,2.5,.33,3.85,0,.12,0,.23,0,.34Z"/><path class="d" d="M142.38,105.51c-1.48-3.07-4.52-4.98-7.96-4.98-.47,0-.93,.03-1.39,.1-.01-1.38-.13-2.72-.34-4.01-.23-1.4-.58-2.75-1.05-4.04-.38-1.05-.83-2.06-1.37-3.01-2.73-4.89-8.61-10.72-21.14-10.72-8.12,0-15.96,3.21-22.62,9.16-1.46,1.3-2.87,2.73-4.2,4.3-.29,.33-.57,.66-.84,1.01-.53,.65-1.03,1.31-1.53,1.98,0,0,0,0,0,0-5.27,7.21-8.59,15.82-8.59,22.5,0,1.45,.1,2.85,.31,4.17,.19,1.27,.48,2.48,.85,3.64,.61,1.91,1.46,3.66,2.54,5.23,3.99,5.82,11.04,9.13,20.28,9.13,8.54,0,17.02-3.55,23.99-10.02,1.07-.13,2.09-.3,3.07-.52,.93-.2,1.82-.45,2.67-.74,1.01-.34,1.98-.74,2.89-1.18,5.73-2.76,9.56-7.34,13.18-12.19,2.28-2.91,2.75-6.66,1.25-9.8Zm-33.33,2.14c-.57-.71-.97-1.58-.97-2.62,0-3.78,2.64-5.2,3.36-5.52,.08,1.34-.45,4.38-2.39,8.15Z"/><path class="d" d="M177.79,58.42l-.14,.3c-1.27,2.51-2.51,4.99-3.73,7.43-1.32,2.66-2.61,5.27-3.86,7.83h0c-.35,.72-.7,1.43-1.04,2.14-.88,1.79-1.73,3.55-2.56,5.27-2.37,4.92-4.57,9.57-6.57,13.89-.01,.03-.03,.06-.05,.09,0,.02-.02,.05-.04,.07-.98,2.14-1.91,4.19-2.8,6.15,1.07-.55,2.17-.88,3.29-1,.32-.04,.65-.05,.98-.05,.41,0,.82,.03,1.22,.08,2.95,.39,5.48,2.18,6.76,4.86,.33,.69,.56,1.4,.7,2.13h0c.14,.7,.19,1.43,.15,2.15-.1,1.97-.84,3.95-2.2,5.64-.12,.15-.22,.29-.34,.43h0c-.12,.16-.25,.32-.37,.48-2.17,2.76-4.15,5.2-5.96,7.35-1.82,2.15-3.47,4.02-4.98,5.64h0c-.78,.85-1.52,1.62-2.22,2.33-.66,.68-1.29,1.29-1.89,1.87-6.81,6.47-9.6,6.47-11.39,6.47-3.84,0-14.22-3.24-18.36-10.55-.44-.78-.82-1.62-1.1-2.5-.41-1.27-.64-2.63-.64-4.1,0-.34,.02-.7,.06-1.11h0c.17-1.74,.7-3.94,1.5-6.51,1.63-5.18,4.42-11.82,7.7-18.93h0c.57-1.22,1.14-2.45,1.73-3.69,.54-1.13,1.08-2.27,1.64-3.41,1.43-2.95,2.91-5.92,4.4-8.85,.99-1.96,1.98-3.87,2.96-5.77,0,0,0,0,0,0,.67-1.29,1.34-2.57,2-3.83,1.2-2.28,2.37-4.48,3.49-6.57h0c2.16-4.02,4.12-7.6,5.73-10.5,0,0,0,0,0,0,.76-1.37,1.43-2.58,2.01-3.62l.11-.19,.12-.19c.05-.07,.1-.14,.14-.21,1.2-1.8,2.47-3.17,3.92-4.16h0c.83-.57,1.72-1.01,2.68-1.34,.55-.18,1.12-.32,1.71-.44,1.23,.31,2.51,.9,3.52,1.88,.72-.82,1.6-1.42,2.58-1.78,.55,.12,1.13,.26,1.71,.45,1.5,.47,3.06,1.18,4.44,2.21,.03,.02,.06,.04,.08,.06,.29,.22,.57,.45,.84,.7,0,0,0,0,0,0,.69,.63,1.3,1.35,1.81,2.19,.44,.73,.78,1.49,1,2.28h0c.19,.66,.3,1.33,.33,1.99h0c.09,1.66-.28,3.35-1.11,4.94Z"/><path class="d" d="M196.73,74.17l-.11,.21c-2.01,3.98-3.94,7.87-5.77,11.6-1.37,2.78-2.68,5.47-3.92,8.07-1.05,2.19-2.06,4.31-3.02,6.36h0c-.88,1.89-1.71,3.7-2.51,5.44,.25-.03,.51-.05,.77-.05h0c.06,0,.13,0,.19,0,3.29,0,6.2,1.81,7.59,4.71,.65,1.35,.91,2.81,.8,4.27h0c-.13,1.79-.82,3.55-2.03,5.07-.39,.5-.77,.99-1.15,1.46-2.65,3.35-4.96,6.11-6.99,8.37-.77,.87-1.51,1.65-2.2,2.38-.66,.7-1.29,1.33-1.89,1.9-1.46,1.42-2.73,2.51-3.85,3.34-3.11,2.32-5.04,2.66-6.65,2.66-2.8,0-9.61-2.01-13.83-6.47-.62-.65-1.18-1.36-1.67-2.12-1.17-1.83-1.9-3.96-1.9-6.43v-.03c0-2.53,1.21-6.63,3.14-11.57h0c.71-1.83,1.52-3.76,2.4-5.78,1.69-3.86,3.64-8.01,5.71-12.19,.01-.03,.03-.06,.05-.1,5.44-11.05,11.61-22.31,15.4-29.09l.11-.19,.12-.19c2.57-3.96,5.73-5.72,10.24-5.72,2.77,0,8.16,1.14,10.75,5.41,1.62,2.66,1.7,5.82,.23,8.67Z"/><path class="d" d="M295.52,109.54c-.62,4.02-3.96,6.96-7.94,6.96-1.26,0-3.17-.32-5.18-1.82-.15-.06-.57-.22-1.16-.3-1.26-.15-2.66-.15-4.27-.15-14.14,0-30.91,5.98-44.39,10.78-2.34,.83-4.59,1.64-6.74,2.38-1.18,.41-2.34,.8-3.46,1.17-3.54,1.16-6.77,2.11-9.68,2.71-1.86,1.79-3.86,3.32-5.95,4.57h0c-.98,.59-1.98,1.12-3,1.58-3.65,1.68-7.52,2.56-11.42,2.56-1.64,0-3.19-.12-4.66-.37-1.04-.16-2.03-.39-2.97-.67-3.35-.99-6.12-2.68-8.22-4.96-.61-.66-1.16-1.37-1.66-2.13-1.14-1.74-1.96-3.73-2.45-5.95-.34-1.55-.52-3.2-.52-4.96,0-.35,0-.72,.04-1.09h0c.38-6.15,3.86-14.55,9.86-21.11h0c1.56-1.71,3.29-3.29,5.18-4.67,4.11-3.02,8.99-5.09,14.51-5.49,.63-.05,1.27-.07,1.92-.07,.29,0,.58,0,.86,.01,5.5,.14,9.43,1.67,12.23,3.67,.66,.47,1.26,.97,1.81,1.49,1.24,1.17,2.18,2.42,2.89,3.6,1.64,2.73,2.53,5.92,2.64,9.4,.52-.26,1.05-.52,1.58-.79,1.06-.53,2.13-1.07,3.22-1.61,.99-.49,1.99-.99,3-1.49,15.49-7.65,33.16-15.72,46.02-15.72,1.62,0,3.16,.13,4.69,.42,10.57,1.84,14.54,14.22,13.23,22.06Z"/><path class="d" d="M295.52,109.54c-.62,4.02-3.96,6.96-7.94,6.96-1.26,0-3.17-.32-5.18-1.82-.15-.06-.57-.22-1.16-.3-1.26-.15-2.66-.15-4.27-.15-14.14,0-30.91,5.98-44.39,10.78-2.34,.83-4.59,1.64-6.74,2.38-1.18,.41-2.34,.8-3.46,1.17-3.54,1.16-6.77,2.11-9.68,2.71-1.86,1.79-3.86,3.32-5.95,4.57h0c-.98,.59-1.98,1.12-3,1.58-3.65,1.68-7.52,2.56-11.42,2.56-1.64,0-3.19-.12-4.66-.37-1.04-.16-2.03-.39-2.97-.67-3.35-.99-6.12-2.68-8.22-4.96-1.46,1.42-2.73,2.51-3.85,3.34-.61-.66-1.16-1.36-1.68-2.09-1.12-1.59-2.02-3.35-2.7-5.23-.62-1.71-1.05-3.54-1.28-5.47h0c-.15-1.16-.22-2.36-.22-3.59s.11-2.48,.31-3.79c0,0,0,0,0,0,.04-.27,.08-.55,.14-.82h0c.51-2.81,1.46-5.78,2.76-8.7h0c1.33-3,3.03-5.95,5.02-8.67,.43-.59,.88-1.16,1.33-1.73,3.13-3.85,6.7-6.95,10.57-9.23h0c1.29-.76,2.6-1.43,3.95-2-1.37,2.78-2.68,5.47-3.92,8.07,4.11-3.02,8.99-5.09,14.51-5.49,.63-.05,1.27-.07,1.92-.07,.29,0,.58,0,.86,.01,5.5,.14,9.43,1.67,12.23,3.67,.66,.47,1.26,.97,1.81,1.49,1.24,1.17,2.18,2.42,2.89,3.6,1.64,2.73,2.53,5.92,2.64,9.4,.52-.26,1.05-.52,1.58-.79,1.06-.53,2.13-1.07,3.22-1.61,.99-.49,1.99-.99,3-1.49,15.49-7.65,33.16-15.72,46.02-15.72,1.62,0,3.16,.13,4.69,.42,10.57,1.84,14.54,14.22,13.23,22.06Z"/><path class="d" d="M295.52,109.54c-.62,4.02-3.96,6.96-7.94,6.96-1.26,0-3.17-.32-5.18-1.82-.15-.06-.57-.22-1.16-.3-1.26-.15-2.66-.15-4.27-.15-14.14,0-30.91,5.98-44.39,10.78-2.34,.83-4.59,1.64-6.74,2.38-1.18,.41-2.34,.8-3.46,1.17-3.54,1.16-6.77,2.11-9.68,2.71-1.86,1.79-3.86,3.32-5.95,4.57h0c-.98,.59-1.98,1.12-3,1.58-3.65,1.68-7.52,2.56-11.42,2.56-1.64,0-3.19-.12-4.66-.37-1.04-.16-2.03-.39-2.97-.67-3.35-.99-6.12-2.68-8.22-4.96-.61-.66-1.16-1.37-1.66-2.13-1.14-1.74-1.96-3.73-2.45-5.95-.34-1.55-.52-3.2-.52-4.96,0-.35,0-.72,.04-1.09h0c.38-6.15,3.86-14.55,9.86-21.11h0c1.56-1.71,3.29-3.29,5.18-4.67,4.11-3.02,8.99-5.09,14.51-5.49,.63-.05,1.27-.07,1.92-.07,.29,0,.58,0,.86,.01,5.5,.14,9.43,1.67,12.23,3.67,.66,.47,1.26,.97,1.81,1.49,1.24,1.17,2.18,2.42,2.89,3.6,1.64,2.73,2.53,5.92,2.64,9.4,.52-.26,1.05-.52,1.58-.79,1.06-.53,2.13-1.07,3.22-1.61,.99-.49,1.99-.99,3-1.49,15.49-7.65,33.16-15.72,46.02-15.72,1.62,0,3.16,.13,4.69,.42,10.57,1.84,14.54,14.22,13.23,22.06Z"/><path class="f" d="M192.33,137.3c-11.15,0-17.81-6.12-17.81-16.37s11.23-29.75,28.83-29.75c9.1,0,13.45,4.07,15.5,7.48,2.07,3.45,2.71,7.81,1.96,12.49,1.81-.89,3.74-1.86,5.77-2.87,16.5-8.26,37.03-18.53,51.01-18.53,1.46,0,2.84,.12,4.22,.37,9.22,1.61,12.07,13.02,11.07,18.99-.42,2.74-2.64,4.72-5.3,4.72-1.81,0-3.14-.94-3.71-1.39-.41-.25-1.26-.57-2.28-.71-1.46-.17-2.92-.17-4.62-.17-14.6,0-31.61,6.06-45.28,10.93-7.91,2.82-14.82,5.28-20.28,6.3-5.46,5.5-12.19,8.51-19.07,8.51Zm12.79-32.33c-.82,.08-3.94,1.78-3.94,5.77,0,1.71,1.05,3.15,2.46,4.16,2.51-4.2,3.31-8.26,2.65-9.63-.13-.26-.77-.31-1.17-.31Z"/><path class="h" d="M16.22,172.91l-.51-.14c-4.51-1.2-13.04-5.69-13.04-14.07,0-12.04,27.18-61.88,32.63-71.75l.05-.09,.06-.09c2.79-4.46,5.19-5.24,9.21-5.24,3.08,0,7.25,1.4,9.12,4.48,.16,.26,.3,.52,.41,.8,3.89-2.99,8.2-5.28,12.27-5.28,5.67,0,8.83,2.52,10.49,4.63,2.03,2.58,3.06,6.06,3.06,10.33,0,7.41-3.26,17.3-8.5,25.79-2.79,4.51-10.21,15.02-18.99,15.02-6.27,0-11.83-2.85-15.61-7.68-8.65,19.88-13.77,33.54-14.2,37.99-.33,3.33-2.55,5.3-5.93,5.3h-.53Zm28.29-56.47c.32,1.78,1.12,3.79,2.53,4.03,1.18-.7,4.41-4.16,8.31-11.69,2.09-4.03,3.42-7.42,4.17-9.87-4.27,3.61-10.79,11.1-15.01,17.53Z"/><path class="d" d="M167.87,50.25c-.09,.7-.31,1.39-.65,2.06-1.68,3.33-4.47,9.29-7.23,15.54-.3,.67-.59,1.34-.89,2.01,0,0,0,0,0,0-.27,.63-.54,1.25-.81,1.87-.76,1.75-1.49,3.47-2.18,5.13-2.51,6.02-4.43,11.15-4.62,12.95-.28,2.84-2.41,4.74-5.29,4.74h-.57l-.55-.14c-2.55-.69-5.23-2.3-6.85-4.65,0,0,0,0,0,0-.48-.7-.87-1.46-1.13-2.28-.25-.77-.38-1.59-.38-2.46,0-.62,0-1.77,.96-4.68,.37-1.12,.88-2.51,1.58-4.23-2.83-.57-5.53-2.23-7.07-4.76-.81-1.34-1.29-2.92-1.29-4.7,0-.22,0-.44,.02-.68h0c.13-2.8,1.03-6.25,2.6-9.61h0c.82-1.76,1.83-3.49,3.02-5.1,.53-.73,1.11-1.43,1.71-2.09h0c.44-.49,.91-.95,1.39-1.39,2.95-2.72,6.58-4.53,10.77-4.53,1.81,0,3.45,.33,4.86,.96,.24,.1,.46,.21,.69,.33,.73-.55,1.48-.88,2.23-1.06,.76-.19,1.52-.24,2.27-.24,.26,0,.54,0,.82,.04,.41,.05,.84,.12,1.28,.23,1.23,.31,2.51,.9,3.52,1.88,.19,.19,.37,.38,.54,.59h0c.16,.2,.31,.42,.44,.63,.04,.06,.07,.12,.1,.18,.27,.47,.46,.96,.58,1.46,.16,.65,.19,1.33,.11,1.99Z"/><path class="g" d="M4.78,157.99c0-11.61,32.13-69.81,32.13-69.81,1.94-3.1,2.97-3.35,5.81-3.35s7.48,1.94,5.68,5.42c-1.16,2.19-2.97,6.06-5.16,10.71,6.45-8.26,15.23-16.13,21.29-16.13,22.06,0,.9,47.74-13.94,47.74-8.26,0-13.94-6.06-15.87-13.03-8.39,18.84-17.29,40.26-17.94,46.97-.13,1.29-.65,1.68-1.94,1.68-3.87-1.03-10.06-4.65-10.06-10.19Zm33.68-43.23c.26,4.52,2.58,9.03,6.97,9.03,6.58,0,21.81-31.74,15.48-31.74-5.42,0-17.94,15.48-22.45,22.71Z"/><path class="d" d="M197.39,60.19c-.06,.78-.3,1.56-.69,2.28-.18,.32-.38,.64-.62,.94-.2,.25-.39,.5-.58,.75h0c-.06,.07-.12,.15-.18,.21h0c-.53,.69-1.04,1.32-1.53,1.91h0c-1.07,1.31-2.03,2.45-2.92,3.44-.5,.56-.98,1.07-1.42,1.54-.43,.45-.84,.86-1.22,1.22-.25,.25-.49,.47-.72,.69h0c-1.35,1.23-2.41,1.99-3.3,2.45-1.14,.59-1.97,.7-2.71,.7-1.83,0-3.78-.62-5.51-1.68-.57-.35-1.12-.75-1.64-1.2-.01,0-.03-.01-.04-.03-1.47,1.18-2.91,2-4.33,2.46-.32,.11-.63,.2-.95,.26-.62,.14-1.24,.2-1.86,.2-.36,0-.75-.03-1.17-.1-1.33-.22-2.91-.77-4.38-1.64-.39-.23-.78-.49-1.15-.76h0c-.8-.6-1.54-1.3-2.16-2.09-.43-.55-.8-1.15-1.09-1.8-.44-.99-.7-2.09-.7-3.29,0-3.82,2.39-9.67,7.1-17.43,.47-.77,.97-1.57,1.49-2.39,.12-.19,.23-.37,.35-.55,.07-.13,.15-.24,.23-.35,.14-.19,.28-.37,.44-.54,.72-.82,1.6-1.42,2.58-1.78,.38-.13,.76-.24,1.16-.3,.31-.05,.62-.07,.94-.07,1.96,0,5.66,1.08,7.26,3.98,.19,.35,.34,.7,.46,1.07,.35-.56,.67-1.07,.94-1.48l.32-.5c1.24-1.96,3.2-3.07,5.37-3.07,.49,0,1.08,.06,1.72,.21,.78,.18,1.63,.46,2.45,.89,1.22,.63,2.37,1.57,3.09,2.88,.15,.28,.28,.56,.38,.86,.25,.7,.36,1.44,.32,2.18-.04,.82-.25,1.63-.65,2.4-.08,.18-.18,.35-.29,.51-.17,.27-.39,.67-.66,1.19l.17-.02h0c.12,0,.22,0,.34,0,.47,0,.93,.06,1.37,.17,1.54,.38,2.83,1.41,3.53,2.87,.43,.89,.59,1.85,.51,2.81Z"/><path class="h" d="M95.33,137.3c-13.34,0-21.3-7.29-21.3-19.5s13.67-36.27,35.11-36.27c11.23,0,16.42,5.08,18.8,9.34,2.17,3.89,2.87,8.7,2.15,13.84,1.33-.98,2.82-1.51,4.34-1.51,2.39,0,4.52,1.33,5.54,3.46,1.07,2.22,.7,4.89-.94,6.99-5.18,6.95-10.38,12.78-20.89,13.72-6.61,6.41-14.65,9.91-22.81,9.91Zm.45-18.27c.16,.46,.45,.82,.94,1.06-.33-.34-.64-.7-.94-1.06Zm15.55-22.25c-1.01,0-5.92,2.25-5.92,8.25,0,3.05,2.04,5.29,4.4,6.65,3.67-5.7,5.06-11.62,3.92-13.94-.15-.31-.47-.95-2.4-.95Z"/><path class="h" d="M140.75,137.3c-4.06,0-17.43-4.51-17.43-14.46,0-12.05,27.4-61.68,32.9-71.51l.07-.12,.07-.11c2.42-3.73,4.99-5.18,9.17-5.18,2.77,0,7.66,1.25,9.74,4.68,1.22,2.01,1.27,4.41,.14,6.59l-.16,.32c-11.79,23.35-21.18,43.4-26.05,55.4,2.33-2.49,4.65-5.05,6.26-6.83l.07-.08,.07-.07c.67-.67,2.72-2.72,5.68-2.72,2.42,0,4.56,1.31,5.58,3.43,1.07,2.24,.68,4.95-1.03,7.09-18.36,23.57-23.23,23.57-25.07,23.57Z"/><path class="h" d="M165.98,137.3c-3.43,0-14.72-3.85-14.72-12.35,0-9.81,21.95-49.58,26.35-57.46l.07-.12,.07-.11c2.08-3.2,4.4-4.5,8-4.5,2.06,0,6.48,.86,8.47,4.13,1.12,1.85,1.17,4.06,.14,6.06l-.12,.24c-8.12,16.08-14.83,30.23-19,39.92,.7-.77,1.33-1.47,1.87-2.07l.07-.08,.07-.07c.6-.6,2.41-2.41,5.1-2.41,2.25,0,4.24,1.22,5.18,3.2,.99,2.07,.64,4.56-.92,6.51-14.89,19.11-18.92,19.11-20.64,19.11Z"/><path class="g" d="M178.18,113.01c.82-.82,1.54-1.24,2.27-1.24,1.54,0,2.37,1.65,1.13,3.19-6.9,8.85-14.83,17.61-17.5,17.61-2.27,0-10.71-2.99-10.71-8.34,0-9.27,25.84-55.5,25.84-55.5,1.34-2.06,2.37-2.68,4.63-2.68s6.49,1.54,5.05,4.32c-.51,1.03-24.2,47.67-24.2,54.88,0,.21,.1,.31,.31,.31,1.75,0,7.41-6.18,13.18-12.56Z"/><path class="g" d="M201.45,94.47c14.93,0,16.37,12.77,10.61,23.58,14.42-6.08,45.92-25.02,63.63-25.02,1.24,0,2.37,.1,3.5,.31,6.49,1.13,8.55,10.19,7.83,14.42-.1,.72-.62,1.34-1.34,1.34-.41,0-.82-.21-1.34-.62-1.03-.72-2.57-1.24-4.12-1.44-1.75-.21-3.4-.21-5.15-.21-24.3,0-53.34,15.45-67.55,17.5-4.43,4.84-10.4,8.24-17.09,8.24-12.05,0-13.8-7.83-13.8-12.36,0-8.96,10.19-25.74,24.82-25.74Zm-8.03,31.1c1.85,0,3.71-.82,5.56-2.16-4.84-1.85-8.44-5.97-8.96-12.36-1.54,2.99-2.57,6.18-2.57,9.06,0,1.96,.82,5.46,5.97,5.46Zm9.78-25.33c-2.68,0-7.93,3.29-7.93,9.78,0,4.53,3.6,7.93,7.83,9.27,5.87-7.52,8.65-19.05,.1-19.05Z"/><path class="g" d="M156.53,108.05c1.03-1.03,1.94-1.55,2.84-1.55,1.94,0,2.97,2.06,1.42,4-8.65,11.1-18.58,22.06-21.94,22.06-2.84,0-13.42-3.74-13.42-10.45,0-11.61,32.39-69.55,32.39-69.55,1.68-2.58,2.97-3.36,5.81-3.36s8.13,1.94,6.32,5.42c-.65,1.29-30.32,59.74-30.32,68.77,0,.26,.13,.39,.39,.39,2.19,0,9.29-7.74,16.52-15.74Z"/><path class="g" d="M107.24,84.83c19.61,0,20.65,17.68,12.13,31.48,2.45-.65,4.65-1.94,6.32-3.74,2.32-2.58,3.1-3.61,4-4.52,.9-1.03,1.94-1.55,2.84-1.55,1.81,0,2.97,2.06,1.42,4-5.29,7.1-9.81,11.87-19.48,12.26-5.55,5.81-12.9,9.81-21.03,9.81-15.1,0-17.29-9.81-17.29-15.48,0-11.23,12.77-32.26,31.1-32.26Zm-10.06,38.97c2.32,0,4.77-1.03,7.1-2.71-6.06-2.58-10.71-7.74-11.35-15.61-1.94,3.87-3.23,7.87-3.23,11.48,0,2.45,1.03,6.84,7.48,6.84Zm12.26-31.74c-3.36,0-9.94,4.13-9.94,12.26,0,5.68,4.39,9.94,9.81,11.61,7.36-9.42,10.84-23.87,.13-23.87Z"/><path class="d" d="M93.48,41.08v.05c.01,.64-.06,1.3-.2,1.95h0c-.04,.17-.08,.35-.14,.52h0c-.03,.13-.07,.23-.11,.34-.28,.88-.61,1.86-1.01,2.96h0s0,.02,0,.02c-.34,.93-.71,1.93-1.11,2.98,0,.03-.02,.05-.04,.08v.02c-.11,.29-.22,.59-.34,.89h0c-.19,.51-.39,1.03-.59,1.56,0,0,0,0,0,.02h0c-.02,.06-.04,.12-.06,.18-.33,.87-.68,1.77-1.02,2.69h0c-.13,.36-.27,.73-.41,1.08-.02,.05-.03,.09-.05,.13-1.32,3.52-2.6,7.15-3.36,9.98h0c-.19,.72-.34,1.38-.46,1.98-.06,.36-.1,.67-.13,.94h0c-.13,1.25,0,1.68,.05,1.78l.09,.12c.34,.48,.62,.99,.82,1.54h0c.49,1.31,.55,2.75,.17,4.07-.11,.39-.26,.77-.44,1.14-.19,.36-.41,.71-.66,1.02-1.2,1.53-3.04,2.41-5.13,2.41-.06,0-.13,0-.19,0-1.65-.01-3.08-.25-4.3-.62-1.01-.31-1.88-.71-2.62-1.17-1.18-.7-2.07-1.52-2.72-2.29-.39-.46-.82-1.05-1.2-1.74-1.24,1.07-2.92,1.86-5.31,1.86-2.79,0-5.79-1.39-8.01-3.72-.35-.37-.67-.74-.96-1.13-1.9,2.42-4.12,4.75-6.72,6.4-2.08,1.32-4.41,2.21-7.02,2.38-.3,.03-.61,.04-.92,.04-.66,0-1.28-.04-1.87-.1-.32-.03-.63-.08-.94-.14-5.46-.95-7.75-4.58-8.54-6.28-1.97-4.24-1.1-9.42,.87-11.97,1.17-1.56,3.06-2.52,5.03-2.52s3.81,.95,4.94,2.49c.79-.37,1.97-1.24,3.73-3.13,.36-.38,.75-.82,1.16-1.3-.19-.06-.38-.13-.57-.2-1.46-.58-2.79-1.56-3.86-2.86-2.07-2.52-2.92-5.96-2.28-9.22,2.2-10.9,15.52-13.11,22.49-13.51,1.09-.06,2.02-.07,2.74-.07,.41,0,.81,0,1.2,0,6.8,.13,10.97,1.38,13.01,3.9,2.28-2.22,4.77-3.17,8.21-3.17,1.22,0,2.27,.17,3.17,.45,1.68,.51,2.84,1.39,3.59,2.18,.13,.13,.25,.27,.35,.4,.13,.15,.24,.3,.33,.44,.16,.23,.31,.46,.44,.7,.54,.99,.85,2.09,.91,3.22,0,.08,0,.16,0,.23Z"/><path class="d" d="M109.72,68.78c-1.28,1.62-2.42,2.99-3.44,4.16h0c-1.16,1.33-2.16,2.37-3.05,3.21-.72,.68-1.36,1.21-1.94,1.63-1.89,1.38-3.15,1.56-4.41,1.56-.19,0-.39,0-.59-.03-1.48-.12-3.16-.68-4.66-1.53-.39,.24-.78,.45-1.18,.63-.38,.18-.75,.32-1.12,.45-.94,.32-1.88,.48-2.8,.48-.69,0-1.38-.06-2.07-.21-.83-.17-1.65-.43-2.44-.8h0c-1.57-.71-2.98-1.81-4.01-3.22h0c-.75-1.02-1.31-2.2-1.59-3.52-.13-.63-.21-1.3-.21-2,0-.08,0-.17,0-.25,.06-3.2,1.29-7.22,3.46-10.79,0,0,0-.01,0-.02,0,0,0,0,0,0,1.12-1.83,2.47-3.54,4.05-4.96,1.06-.95,2.22-1.78,3.47-2.42,.32-.17,.63-.32,.96-.45h0c.15-.06,.29-.12,.44-.18-.02-.21-.03-.41-.02-.62,0-.11,0-.22,0-.33,.04-.75,.21-1.49,.51-2.19,.14-.33,.31-.66,.51-.97,.08-.13,.17-.27,.28-.43,.02-.04,.05-.07,.07-.12,0,0,0,0,0-.01,.68-1,1.78-2.47,2.83-3.85,0,0,0,0,0,0,.24-.31,.47-.61,.69-.9,.19-.24,.37-.47,.54-.69,.66-.84,1.2-1.53,1.46-1.86,.34-.42,.72-.79,1.14-1.1,.1-.08,.2-.15,.3-.22,.26-.18,.54-.34,.82-.48,.45-.22,.93-.38,1.43-.5h0c.49-.12,1-.17,1.52-.17s1.07,.06,1.58,.18c.04,0,.08,.01,.12,.02,1.24,.29,2.4,.87,3.41,1.61,.74,.53,1.39,1.16,1.95,1.82,.41,.49,.77,1,1.05,1.51,.08,.14,.15,.28,.22,.42,.44,.94,.7,1.91,.75,2.86,0,.04,0,.08,0,.13,.02,.34,0,.69-.03,1.03-.14,1.28-.63,2.5-1.48,3.54-.21,.26-.51,.58-.88,.95h0c-.52,.53-1.16,1.14-1.84,1.77,.18,.15,.34,.31,.5,.48,.32,.32,.6,.66,.84,1.03,0,0,0,0,0,0,.1,.15,.19,.31,.27,.46,.01,.02,.02,.03,.03,.05,.23,.41,.41,.84,.55,1.28,.36,1.14,.4,2.34,.14,3.51,.69,.38,1.3,.89,1.81,1.5h0c.36,.42,.66,.89,.91,1.39,.27,.57,.46,1.16,.56,1.76h0c.32,1.88-.19,3.84-1.45,5.42Z"/><path class="d" d="M133.59,57.47c0,2.78-1,5.73-2.66,8.49h0c-.99,1.64-2.21,3.21-3.59,4.64-3.49,3.6-8.02,6.32-12.47,6.96-1.08,.61-2.27,1.07-3.54,1.36h0c-1.15,.27-2.37,.41-3.67,.41-.56,0-1.11-.03-1.64-.09-.28-.03-.56-.07-.83-.12h0c-1.41-.25-2.72-.7-3.9-1.35-.73-.4-1.4-.88-2.02-1.42-1.13-.99-2.05-2.21-2.72-3.63-.05-.11-.1-.22-.15-.33-.39-.91-.64-1.84-.76-2.78h0c-.04-.28-.06-.56-.07-.83,0,0,0,0,0,0-.12-2.39,.61-4.75,2.12-6.58l.7-.82s0,0,0,0l.7-.82c.73-.85,1.38-1.61,1.96-2.28,.12-.4,.27-.8,.44-1.2,.46-1.08,1.09-2.18,1.89-3.23,.12-.15,.24-.3,.36-.45,1-1.21,2.23-2.34,3.68-3.25h0c1.08-.69,2.29-1.26,3.62-1.66,1-.35,1.82-.35,2.14-.35,.11,0,.21,0,.32,0,.55,.03,1.08,.12,1.59,.26,.79,.23,1.52,.59,2.18,1.06,.96-1.46,2.48-2.48,4.25-2.8l.18-.03c.53-.07,1.14-.16,1.84-.16,1.67,0,3.15,.37,4.42,1.01,1.59,.8,2.87,2.03,3.79,3.49,1.03,1.61,1.64,3.49,1.82,5.39h0c.04,.38,.06,.76,.06,1.13Z"/><path class="d" d="M216.76,63.39c-4.07,5.23-8.53,10.16-13.76,12.08-.88,.32-1.77,.56-2.7,.7-.63,.09-1.27,.14-1.91,.14-.93,0-1.81-.06-2.66-.19-.95-.13-1.84-.34-2.67-.62-.17-.05-.33-.11-.5-.18-1.74-.65-3.2-1.62-4.35-2.86-.08-.09-.17-.18-.25-.27-.3-.35-.57-.71-.82-1.1-.74-1.12-1.27-2.4-1.58-3.83-.08-.34-.14-.68-.19-1.03-.1-.7-.15-1.42-.15-2.17,0-.22,0-.45,.02-.68,.01-.2,.03-.41,.05-.62,.08-.86,.25-1.76,.5-2.68,.78-2.95,2.31-6.14,4.38-8.98,.27-.37,.55-.73,.82-1.07h0c.12-.14,.23-.28,.34-.42,.46-.55,.93-1.07,1.41-1.55,.07-.07,.14-.14,.21-.2,1.26-1.24,2.58-2.24,3.94-2.99,1.95-1.08,3.97-1.64,5.99-1.64,7.37,0,10.73,5.08,10.73,9.8,0,.46-.02,.91-.07,1.36,1.75,.27,3.25,1.36,4.02,2.97,.93,1.94,.63,4.24-.8,6.02Z"/><path class="h" d="M181.48,74.58c-2.48,0-5.3-1.43-7.1-3.55-2.57,2.38-4.95,3.55-7.24,3.55-2.67,0-8.93-2.7-8.93-7.94,0-4.92,4.71-13.29,8.67-19.44,.92-1.45,2.31-2.25,3.9-2.25,1.68,0,4.57,.96,5.74,3.08,.73,1.33,.67,2.86-.18,4.2-1.4,2.24-3.78,7.07-5.02,10.49,1.39-1.61,3.31-4.27,5.66-8.46,1.48-2.72,3-5.12,3.91-6.55l.32-.5c.93-1.46,2.32-2.26,3.91-2.26,1.68,0,4.57,.96,5.74,3.08,.73,1.33,.67,2.86-.18,4.2-.69,1.11-2.05,3.95-3.33,6.86,.47-.52,.91-1,1.27-1.4l.04-.05,.05-.05c.38-.38,1.55-1.55,3.29-1.55,1.45,0,2.73,.79,3.34,2.06,.64,1.33,.41,2.94-.59,4.2-9.56,12.27-12.15,12.27-13.26,12.27Z"/><path class="h" d="M79.32,79.23c-4.37,0-6.8-1.78-8.06-3.27-.97-1.14-2-3-2.05-5.72-1.11,2.38-2.4,5.02-6.22,5.02-2.17,0-4.54-1.12-6.34-3.01-1.18-1.23-1.94-2.61-2.24-4-4.23,6.18-8.95,10.98-15.06,10.98s-8.35-3.25-9.25-5.18c-1.53-3.3-.91-7.63,.61-9.59,.75-1,1.96-1.62,3.2-1.62,1.65,0,3.11,1.05,3.63,2.61l.03,.09c.08,.02,.2,.04,.36,.04,3.07,0,7.03-4.53,10.74-9.5-.66,.41-1.43,.63-2.25,.63-2,0-3.94-.97-5.32-2.65-1.64-1.99-2.31-4.72-1.8-7.31,2.19-10.88,18.13-11.72,22.97-11.72,6.79,0,11.01,1.09,12.56,3.24,.41,.56,.86,1.45,.9,2.73,.75-.96,1.44-1.78,2.04-2.41,1.96-2.03,3.89-2.83,6.91-2.83,3.31,0,4.91,1.56,5.57,2.49,.99,1.4,1.21,3.2,.62,4.95-.68,2.18-1.79,5.08-3.07,8.44-2.1,5.51-4.72,12.37-5.49,16.48-.23,1.46-.44,3.48,.35,4.49l.09,.12c.9,1.27,1.04,2.96,.34,4.31-.71,1.37-2.11,2.19-3.75,2.19Zm-29.11-28.17c.38,.81,.47,1.7,.26,2.55,.59-.82,1.16-1.63,1.72-2.42,1.15-1.62,2.27-3.21,3.38-4.71-2.86,.97-5.03,2.53-5.36,4.56v.03Z"/><path class="h" d="M96.87,77.02c-1.42,0-3.54-.7-5.27-2.03-1.77,1.36-3.45,2.03-5.07,2.03-3.86,0-8.02-2.84-8.02-7.43,0-5.79,4.85-16.09,12.9-17.48-.76-1.48-.71-3.14,.14-4.47,1-1.61,4.69-6.35,5.74-7.65,.83-1.04,2.05-1.62,3.42-1.62,2.64,0,5.25,2.16,6.25,4.25,.85,1.78,.68,3.69-.47,5.11-.71,.86-2.93,2.91-4.85,4.59,1.33,.44,2.77,1.29,3.55,2.72,.81,1.47,.74,3.22-.18,4.68-.08,.12-.17,.28-.27,.47,1.64,.02,3.09,.94,3.8,2.41,.74,1.53,.5,3.34-.61,4.73-7.66,9.69-9.61,9.69-11.04,9.69Z"/><path class="h" d="M107.66,77.02c-4.1,0-7.48-1.97-9.04-5.28-1.29-2.74-.97-5.92,.83-8.09l1.37-1.6c.87-1.01,1.62-1.9,2.28-2.66,.88-3.47,4.07-7.36,8.63-8.73,.65-.23,1.19-.23,1.42-.23,2.88,0,4.95,2.72,5.43,5.29,.48,2.54-.86,4.29-2.41,4.88-.29,.12-.74,.43-1.08,.74,.07,.08,.14,.16,.2,.23,.37,.42,.8,.91,1.22,1.48,.68-.92,1.34-2.04,1.87-3.27,1.06-2.44,1.07-4.06,.91-4.48l-.08-.1-.11-.16c-.7-1.06-.81-2.42-.29-3.65,.55-1.29,1.7-2.2,3.09-2.46l.13-.02c.44-.06,.93-.13,1.47-.13,5.05,0,7.78,4.49,7.78,8.71,0,7.66-9.18,16.99-17.18,17.86-1.41,.88-3.5,1.68-6.44,1.68Z"/><path class="d" d="M100.48,65.24c1.77-2.06,3.14-3.68,4.22-4.9,.2-2.21,2.55-5.89,6.52-7.01,.1-.05,.2-.05,.29-.05,1.42,0,2.65,3.14,1.77,3.48-1.18,.44-3.68,2.26-3.68,4.07,0,1.72,3.58,3.58,3.58,6.42,0,.34-.05,.74-.15,1.13,4.95-1.62,10.25-12.41,7.31-15.89-.1-.15,0-.69,.54-.78,.34-.05,.69-.1,.98-.1,2.99,0,4.32,2.94,4.32,5.25,0,5.84-8.44,14.47-14.91,14.47-1.13,.93-2.84,1.62-5.25,1.62-5.69,0-7.65-5.15-5.54-7.7Zm5.1,3.68c2.06,0,3.14-1.08,3.14-2.06,0-1.37-2.5-2.11-3.58-4.22-.64,.83-1.42,1.81-2.26,2.84-.93,1.18,.15,3.43,2.7,3.43Z"/><path class="h" d="M145.86,92.82l-.33-.09c-3.41-.91-7.08-3.71-7.08-7.72,0-.78,0-2.8,3.34-10.44-.14,.01-.28,.02-.42,.02-4.2,0-8.74-3.04-8.74-7.94,0-7.45,6.93-21.69,17.79-21.69,2.37,0,4.31,.61,5.72,1.76,1.26-1.45,2.55-1.76,4.32-1.76s4.06,.79,5.13,2.55c.74,1.22,.77,2.68,.08,4.01-3.74,7.41-15.4,33.15-15.91,38.12-.2,1.96-1.56,3.19-3.57,3.19h-.34Zm4.56-38.51c-.52,.35-1.09,.89-1.66,1.57-1.93,2.3-3.31,5.43-3.98,7.67,.43-.4,.91-.91,1.44-1.55,2.27-2.76,3.71-5.88,4.19-7.69Z"/><path class="d" d="M134,66.18c0-6.74,6.28-19.09,15.2-19.09,3.9,0,5.35,1.92,5.68,4.29,.86-1.59,1.39-2.58,1.39-2.58,.99-1.59,1.52-1.72,2.97-1.72s3.83,.99,2.91,2.77c-3.04,6.01-15.59,33.23-16.19,39.05-.07,.66-.33,.86-.99,.86-1.98-.53-5.15-2.38-5.15-5.22,0-2.58,3.11-9.71,6.61-16.85-2.18,2.18-4.49,3.83-6.28,3.83-2.91,0-6.14-2.05-6.14-5.35Zm7.4,.86c5.42,0,14.14-16.25,8.99-16.25-6.21,0-12.16,16.25-8.99,16.25Z"/><path class="d" d="M80.32,68.97c0-5,4.66-14.17,11.28-14.17,2.45,0,3.58,1.03,4.02,2.4,.44-.69,.78-1.23,1.03-1.62,.34-.54,.78-.78,1.28-.78,1.03,0,3.43,.98,2.5,2.45-1.23,1.96-5.93,12.36-4.76,12.36,.83,0,3.53-2.94,6.28-5.98,.39-.39,.74-.59,1.08-.59,.69,0,1.13,.78,.54,1.52-3.33,4.22-7.06,8.39-8.34,8.39-1.08,0-4.66-1.37-4.71-3.92-1.91,2.21-4.02,3.92-5.64,3.92-2.16,0-4.56-1.52-4.56-3.97Zm5.49,.64c4.02,0,10.5-12.07,6.67-12.07-4.61,0-9.02,12.07-6.67,12.07Zm12.51-28.05c.2-.25,.44-.34,.74-.34,1.52,0,4.12,2.45,3.09,3.73-.93,1.13-5.98,5.59-6.96,6.23-.1,.05-.25,.1-.39,.1-.93,0-2.6-1.42-1.96-2.4,.78-1.28,4.22-5.74,5.49-7.31Z"/><path class="d" d="M31.82,65.93c.1-.15,.29-.25,.44-.25s.29,.1,.34,.25c.05,.93,1.28,2.5,3.68,2.5,9.17,0,18-19.77,26.09-27.12-.39,0-.83-.05-1.28-.05-6.23,0-14.91,2.35-15.94,8.58-.15,.78-.05,1.42,.29,2.11,.1,.2-.1,.69-.69,.69-2.31,0-4.32-2.84-3.73-5.84,1.37-6.82,11.58-8.93,19.57-8.93,5.05,0,9.17,.83,9.76,1.81,.2,.25,.25,.59,.25,.88-.1,2.45-6.96,18.88-7.8,23.2,3.48-5.79,12.02-19.47,15.79-23.39,1.23-1.28,2.21-1.77,4.41-1.77,2.4,0,3.48,1.23,2.89,2.89-1.81,5.84-7.41,18.54-8.68,25.41-.39,2.45-.54,5.2,1.03,7.21,.25,.34,.25,1.03-.59,1.03-4.76,0-7.26-2.75-6.52-7.21,1.13-7.65,7.6-19.67,8.98-22.32,.25-.54,.05-1.08-.39-1.08-.49,0-.78,.2-1.28,.83-2.16,2.89-12.02,18.64-13.98,22.66-1.28,2.75-1.72,3.14-3.14,3.14-2.4,0-5.35-2.8-5.25-4.9,.15-4.22,7.41-17.31,8.73-20.8,.15-.39,.1-.93-.44-.93-.93,0-1.77,1.03-3.19,2.99-7.36,10.25-14.03,27.61-23.49,27.61-8.29,0-6.96-7.95-5.89-9.22Z"/><path class="h" d="M198.39,74.58c-7.17,0-11.44-3.93-11.44-10.52,0-3.46,1.77-8.03,4.62-11.94,3.37-4.62,7.39-7.17,11.32-7.17,6.22,0,9,4.06,9,8.07,0,1.16-.18,2.25-.52,3.25,.39-.14,.82-.23,1.3-.23,1.45,0,2.73,.79,3.34,2.06,.64,1.33,.41,2.94-.59,4.2-4.95,6.36-10.46,12.27-17.02,12.27Zm.72-11.31c-.03,.26-.05,.5-.05,.73,0,.55,0,.91,1.24,.91s2.7-.96,4.24-2.32c-1.42,.45-3,.7-4.7,.7-.25,0-.49,0-.73-.01Z"/><path class="d" d="M201.66,47.09c4.56,0,6.41,2.71,6.41,5.48,0,5.29-4.69,7.66-9.45,7.66-.92,0-1.85-.07-2.71-.26-.4,1.19-.66,2.44-.66,3.57,0,1.26,.53,3.5,3.83,3.5,3.57,0,7.2-3.96,10.9-8.06,.53-.53,.99-.79,1.45-.79,.99,0,1.52,1.06,.73,2.05-4.43,5.68-9.51,11.3-15,11.3-7.73,0-8.85-5.02-8.85-7.93,0-5.75,6.54-16.52,13.35-16.52Zm-3.17,10.04c3.24,0,6.54-1.32,6.54-4.76,0-.86-.4-1.59-1.39-1.59-1.85,0-4.62,2.84-6.47,6.28,.46,.07,.86,.07,1.32,.07Z"/><path class="d" d="M167.83,48.14c.46-.73,1.06-1.06,1.72-1.06,1.39,0,4.63,1.32,3.37,3.3-1.65,2.64-8.92,16.65-5.15,16.65,2.44,0,6.54-5.35,10.24-11.96,1.65-3.04,3.37-5.68,4.16-6.94,.46-.73,1.06-1.06,1.72-1.06,1.39,0,4.62,1.32,3.37,3.3-1.65,2.64-7.99,16.65-6.41,16.65,1.12,0,4.76-3.96,8.46-8.06,.53-.53,.99-.79,1.45-.79,.99,0,1.52,1.06,.73,2.05-4.43,5.68-9.51,11.3-11.23,11.3-2.71,0-6.34-2.71-6.34-5.55-2.64,3.17-5.48,5.55-7.99,5.55-1.45,0-6.34-1.92-6.34-5.35,0-5.02,6.47-15.26,8.26-18.04Z"/><path class="g" d="M133.72,152.7c-.23,1.92-1.46,3.48-3.11,4.21h0c-2.68,1.07-20.14,7.57-43.73-7.08,.51,.2,26.77,10.07,37.72-1.35,3.2-3.71,9.89-.72,9.12,4.22Z"/><path class="d" d="M122.94,145.17c-1.41,7.12-21.61,11.94-46.84-2.87,.52,.19,26.75,10.07,37.72-1.35,3.2-3.71,9.89-.72,9.12,4.23Z"/><path class="d" d="M229.44,45.86c0,2.76-2.22,4.95-5.04,4.95s-5.07-2.19-5.07-4.95,2.25-4.92,5.1-4.92,5.01,2.16,5.01,4.92Zm-8.85,0c0,2.19,1.65,3.93,3.84,3.93,2.13,.03,3.75-1.74,3.75-3.9s-1.62-3.96-3.81-3.96-3.78,1.77-3.78,3.93Zm3.03,2.55h-1.14v-4.92c.45-.06,1.08-.15,1.89-.15,.93,0,1.35,.15,1.68,.39,.3,.21,.51,.57,.51,1.05,0,.6-.45,.99-1.02,1.17v.06c.48,.15,.72,.54,.87,1.2,.15,.75,.27,1.02,.36,1.2h-1.2c-.15-.18-.24-.6-.39-1.2-.09-.51-.39-.75-1.02-.75h-.54v1.95Zm.03-2.76h.54c.63,0,1.14-.21,1.14-.72,0-.45-.33-.75-1.05-.75-.3,0-.51,.03-.63,.06v1.41Z"/></g></g></svg>