<?xml version="1.0" encoding="UTF-8"?><svg xmlns="http://www.w3.org/2000/svg" viewBox="0 0 288.3 184.9"><defs><style>.d{fill:#fff;}.e{fill:#ff6521;}.f{fill:#2b2b2b;}.g{fill:#feda24;}</style></defs><g id="a"/><g id="b"><g id="c"><path class="d" d="M167.12,22.66s-.05,.08-.07,.11c-.46,.79-.98,1.53-1.55,2.22-2.35,2.82-5.62,4.78-9.11,5.47,.33,1.33,.47,2.69,.42,4.06-.61,.11-1.21,.19-1.82,.23-.46,.04-.91,.05-1.37,.05-1.8,0-3.56-.26-5.26-.77-1-.3-1.98-.69-2.93-1.16-2.03-.89-4.36-1.34-6.94-1.34-9.05,0-19.75,5.29-28.3,10.82h0c-1.1,.71-2.16,1.43-3.18,2.13-1.41,.98-2.73,1.94-3.96,2.86h0c-2.9,2.19-5.22,4.15-6.67,5.49-.23,.21-.46,.41-.7,.59-.51,.4-1.06,.75-1.63,1.04-.38,.19-.77,.37-1.17,.51-1.13,.42-2.33,.63-3.56,.63-1.08,0-2.13-.17-3.14-.48l-.09-.03c-.33-.11-.65-.23-.97-.37-.34-.15-.67-.32-.99-.51-.21-.12-.42-.25-.63-.39-.06-.05-.13-.09-.19-.14-.31-.22-.61-.46-.9-.71-.27-.24-.53-.5-.77-.76-.1-.12-.21-.23-.3-.35-.41-.48-.76-.99-1.06-1.52-.03-.05-.05-.09-.07-.14-1.9-3.45-1.71-7.79,.75-11.14,.33-.46,.67-.9,1.01-1.35,.7-.93,1.4-1.84,2.11-2.73,.52-.66,1.04-1.31,1.57-1.94,1.64,.5,2.76,1.36,3.5,2.13,10.8-12.98,21.96-21.2,32.01-26.39,1.68-.87,3.32-1.65,4.92-2.35C138.92,.79,149.4,.01,154.04,0c.27,0,.52,.01,.76,.05,5.15,.37,9.88,3.39,12.36,7.89,2.64,4.52,2.63,10.04-.04,14.72Z"/><path class="d" d="M167.12,22.66s-.05,.08-.07,.11c-.46,.79-.98,1.53-1.55,2.22-2.35,2.82-5.62,4.78-9.11,5.47-.6,.12-1.2,.2-1.81,.24-.33,.02-.65,.04-.97,.04-2.25,0-4.43-.52-6.46-1.54-.19-.09-.38-.17-.58-.24h0c-2.43-.98-5.14-1.48-8.09-1.48-10.71,0-23.05,6.4-32.41,12.69-.64,.43-1.26,.86-1.87,1.28-4.65,3.26-8.41,6.37-10.61,8.41-1.17,1.09-2.7,1.68-4.3,1.68-.58,0-1.15-.08-1.69-.23-.08-.02-.15-.05-.23-.07h0c-.34-.11-.67-.25-.99-.42-.28-.14-.55-.31-.81-.5-.17-.12-.33-.25-.48-.39-.03-.03-.07-.06-.1-.09-.33-.3-.61-.62-.85-.97-.38-.53-.66-1.1-.86-1.7-.61-1.87-.32-3.99,.93-5.7,1.16-1.57,2.32-3.08,3.49-4.53,.48-.6,.96-1.18,1.44-1.76,10.8-12.98,21.96-21.2,32.01-26.39,1.68-.87,3.32-1.65,4.92-2.35C138.92,.79,149.4,.01,154.04,0c.27,0,.52,.01,.76,.05,5.15,.37,9.88,3.39,12.36,7.89,2.64,4.52,2.63,10.04-.04,14.72Z"/><path class="d" d="M156.81,34.52c-.09,2.35-.76,4.71-2,6.88-.19,.33-.39,.65-.61,.97-.7,1.05-1.52,2.01-2.43,2.85-.73,.69-1.53,1.3-2.36,1.82-2.44,1.56-5.27,2.44-8.12,2.44-1.15,0-2.27-.14-3.37-.4-.5-.12-.99-.27-1.47-.44-.55-.19-1.08-.42-1.61-.69l-.07-.03c-2.56-1.13-5.46-1.7-8.62-1.7-.49,0-.98,.01-1.47,.04-4.34,.22-8.83,1.38-13.19,3.06-2.39,.93-4.75,2.01-7.03,3.18-.5,.25-.98,.51-1.47,.78-.17,.09-.34,.19-.51,.28-1.22,.67-2.42,1.36-3.58,2.06-.47,.28-.93,.57-1.39,.85-2.79,1.74-5.34,3.51-7.56,5.14-3.01,2.21-5.4,4.17-6.92,5.46h0c-.27,.23-.51,.44-.72,.62h0c-.59,.51-.95,.84-1.06,.94-.36,.33-.76,.61-1.18,.85-.21,.11-.42,.22-.64,.31-.77,.32-1.6,.49-2.45,.49h0c-.59,0-1.16-.08-1.71-.24-.27-.07-.53-.17-.79-.28-.65-.28-1.24-.67-1.78-1.16-2.43-2.24-2.74-5.91-.71-8.52,2.59-3.34,5.28-6.52,8.05-9.53,.07-.08,.14-.15,.21-.23,.99-1.08,2.01-2.14,3.02-3.17,.51-.51,1.02-1.03,1.53-1.53,1.25-1.23,2.51-2.42,3.78-3.58,.84-.76,1.69-1.51,2.54-2.25,.19-.16,.37-.32,.56-.47,.08-.08,.16-.14,.24-.21,1.58-1.33,3.17-2.61,4.77-3.82,3.32-2.53,6.71-4.8,10.11-6.79,10.71-6.27,21.59-9.72,30.64-9.72,6.73,0,12.15,1.92,15.57,5.47,.61,.64,1.17,1.32,1.64,2.06,.05,.08,.09,.15,.14,.23,.42,.7,.77,1.43,1.06,2.18,.23,.57,.41,1.15,.55,1.73,.33,1.33,.47,2.69,.42,4.06Z"/><path class="e" d="M89.3,49.74c-1.07,0-2.15-.38-3.01-1.15-1.74-1.55-2.01-4.17-.63-6.04C113.42,4.83,145.02,1.83,154.05,1.81h.01c.19,0,.39,.01,.57,.04,4.58,.32,8.74,2.95,10.95,6.96,2.33,4,2.32,8.84-.03,12.96-2.49,4.36-7.17,7.17-11.94,7.17h0c-1.98,0-3.89-.46-5.69-1.37-2.81-1.26-5.99-1.9-9.45-1.9-17.6,0-39.25,16.51-46.11,22.87-.87,.8-1.97,1.21-3.08,1.21Z"/><path class="e" d="M76.99,68.49c-1.1,0-2.2-.4-3.06-1.2-1.72-1.59-1.94-4.23-.51-6.08,10.27-13.24,22.12-24.01,34.29-31.13,10.44-6.11,20.99-9.48,29.73-9.48,7.31,0,12.88,2.38,15.7,6.71,.03,.05,.07,.11,.1,.16,2.37,4.01,2.38,8.88,.02,13.03-2.49,4.36-7.17,7.18-11.94,7.18h0c-1.98,0-3.89-.46-5.68-1.37-2.82-1.26-6-1.9-9.46-1.9-20.78,0-45.1,21.96-46.13,22.9-.86,.79-1.96,1.18-3.05,1.18Z"/><path class="g" d="M159.5,11.03c-1.57-2.9-4.52-4.58-7.6-4.7h0c-4.93,0-36.69,.75-64.76,38.89,.69-.64,36.02-32.89,60.59-21.74,7.42,3.85,16.11-5.11,11.77-12.46Z"/><path class="d" d="M147.19,29.77c-6.75-10.38-41.78-5.23-72.35,34.2,.7-.64,35.99-32.89,60.59-21.74,7.42,3.84,16.11-5.12,11.77-12.47Z"/><g><path class="e" d="M99.35,176c-.13-.41-.38-.78-.75-1.09s-.87-.55-1.49-.7l-2.77-.66-.98,4.14-.42,1.76-.51,2.13,1.31,.31,.5-2.1,.27-1.12,1.01,.24,.38,1.27,.7,2.38,1.57,.37-.76-2.41-.44-1.4c.48,0,.89-.09,1.23-.28,.14-.07,.26-.16,.38-.26,.4-.36,.67-.79,.79-1.32,.1-.45,.09-.88-.03-1.29Zm-3.95-1.06l1.45,.35c.5,.12,.84,.33,1.04,.62,.19,.29,.23,.65,.14,1.06-.1,.42-.3,.72-.61,.9-.31,.19-.71,.23-1.2,.11l-1.46-.35,.64-2.69Z"/><path class="e" d="M108.05,177.23l.15-1.1-3.86-.51-.66-.09-.56,4.24-.19,1.43-.03,.21-.02,.15-.29,2.16,1.08,.14,3.43,.46,.15-1.09-3.18-.42,.14-1.05,.19-1.46,2.83,.37,.05-.35,.1-.74-2.82-.38,.32-2.4,3.18,.42Z"/><path class="e" d="M112.86,184.55c-.44-.21-.77-.5-1.02-.86-.24-.36-.35-.78-.34-1.26l1.45,.05c.02,.36,.15,.65,.39,.89,.24,.24,.59,.36,1.04,.38,.47,.02,.83-.08,1.1-.3,.27-.22,.41-.5,.42-.86,0-.28-.06-.51-.22-.69-.16-.18-.35-.32-.59-.42-.24-.1-.57-.22-.99-.34-.53-.16-.97-.32-1.3-.48-.33-.16-.61-.39-.84-.71-.23-.32-.33-.73-.31-1.25,.02-.47,.15-.89,.4-1.23,.25-.35,.59-.61,1.03-.79,.43-.18,.93-.25,1.49-.23,.8,.03,1.45,.25,1.94,.67,.5,.42,.76,.97,.79,1.67l-1.5-.05c-.01-.3-.15-.56-.4-.79-.25-.22-.59-.34-1.02-.36-.39-.01-.71,.07-.96,.26-.25,.19-.38,.47-.4,.84,0,.25,.06,.46,.21,.63,.15,.17,.34,.3,.57,.41,.23,.1,.55,.22,.96,.34,.54,.17,.98,.33,1.32,.5,.34,.16,.62,.4,.85,.72,.23,.32,.34,.74,.32,1.26-.01,.42-.14,.81-.38,1.18-.24,.36-.58,.65-1.02,.86-.44,.21-.95,.31-1.54,.29-.55-.02-1.05-.13-1.49-.34Z"/><path class="e" d="M126.44,176.22l.07,1.1-2.19,.15,.48,7.13-1.35,.09-.48-7.13-2.2,.15-.07-1.1,5.75-.39Z"/><path class="e" d="M135.86,181.43l-3.4,.6-.29,1.76-1.39,.25,1.47-8.65,1.54-.27,4.35,7.62-1.4,.25-.88-1.56Zm-.57-1.02l-1.99-3.54-.67,4.01,2.65-.47Z"/><path class="e" d="M141.19,173.44l1.5,5.04c.18,.6,.47,1,.88,1.21,.4,.21,.89,.23,1.45,.06,.57-.17,.97-.45,1.19-.85,.22-.4,.25-.9,.07-1.49l-1.5-5.04,1.3-.39,1.5,5.02c.19,.64,.21,1.23,.07,1.76-.15,.53-.42,.98-.83,1.34-.4,.36-.89,.63-1.46,.79-.57,.17-1.12,.21-1.65,.13-.53-.08-1-.3-1.41-.67-.41-.37-.71-.87-.9-1.52l-1.5-5.02,1.3-.39Z"/><path class="e" d="M156.77,176.63l-3.03-2.3-.95,.4,1.28,3.04-1.25,.53-3.2-7.61,2.63-1.11c.58-.25,1.12-.35,1.61-.32,.49,.03,.91,.18,1.25,.44s.61,.6,.79,1.02c.21,.5,.25,1.01,.14,1.53-.12,.53-.45,.99-.98,1.39l3.21,2.36-1.49,.63Zm-4.4-2.9l1.38-.58c.47-.2,.77-.46,.91-.79s.13-.7-.04-1.09c-.17-.39-.41-.65-.74-.78-.33-.12-.73-.09-1.2,.11l-1.38,.58,1.07,2.55Z"/><path class="e" d="M165.86,170.13l-3.02,1.68,.3,1.76-1.23,.69-1.45-8.66,1.37-.76,6.61,5.78-1.24,.69-1.34-1.18Zm-.87-.78l-3.04-2.7,.69,4.01,2.35-1.31Z"/><path class="e" d="M177.52,164.34l-1.1,.79-6.91-2.6,3.61,4.99-1.1,.79-4.85-6.69,1.1-.79,6.91,2.59-3.61-4.98,1.1-.79,4.85,6.69Z"/><path class="e" d="M179.55,151.64l.74,.82-1.63,1.47,4.8,5.3-1,.91-4.8-5.3-1.64,1.48-.74-.82,4.27-3.87Z"/><path class="e" d="M183.67,148.93l1.79,1.63,1.92-2.11,.82,.74-1.92,2.11,1.87,1.7,2.16-2.37,.82,.74-3.07,3.37-6.11-5.57,3.07-3.37,.82,.74-2.16,2.37Z"/></g><path class="e" d="M39.56,138.76c-.19-.09-.38-.19-.56-.28-.23,.56-.47,1.11-.69,1.66,11.77,17.67,29.29,31.2,49.86,37.9l.42-1.77c-20.27-6.64-37.5-20.04-49.02-37.52Z"/><path class="d" d="M80.56,94.06c0,1.07-.06,2.17-.19,3.32h0c-.62,5.8-2.79,12.54-6.05,18.87-.55,1.07-1.13,2.13-1.74,3.16-.23,.39-.46,.77-.7,1.16-.37,.59-.77,1.22-1.21,1.88-3.29,4.91-8.64,11.29-15.25,13.33-.96,.3-1.94,.5-2.95,.6-.43,.04-.88,.06-1.32,.06-5.35,0-10.42-1.95-14.39-5.44-.27,.63-.54,1.25-.79,1.86-.31,.71-.6,1.41-.89,2.1-2.08,4.91-3.74,9.01-5.08,12.42-.43,1.11-.84,2.15-1.2,3.12-3.44,9.09-4.02,12.2-4.11,13.13-.46,4.58-3.74,7.53-8.37,7.53h-.85l-.83-.22c-5.07-1.35-14.65-6.48-14.65-16.23,0-6.09,6.27-20.7,13.44-35.42,.6-1.22,1.2-2.44,1.8-3.66,2.68-5.41,5.43-10.73,7.97-15.56,.51-.96,1-1.9,1.49-2.81,3.04-5.74,5.69-10.59,7.43-13.74v-.02l.08-.13,.09-.15c1.09-1.74,2.18-3.03,3.31-3.96,.33-.28,.66-.52,1.01-.74,.91-.59,1.87-.98,2.87-1.23,1.23-.31,2.55-.41,4-.41,.83,0,1.71,.08,2.6,.25,1.85,.34,3.76,1.05,5.4,2.17,.71,.48,1.37,1.03,1.95,1.66,.83-.55,1.64-1.04,2.44-1.48,3.15-1.73,6.12-2.6,8.86-2.6,2.18,0,4.05,.33,5.64,.86,.94,.32,1.79,.7,2.56,1.13,1.82,1.03,3.15,2.33,4.08,3.51,.5,.63,.94,1.31,1.33,2.02,.9,1.64,1.53,3.51,1.88,5.58,.2,1.18,.31,2.43,.32,3.75,0,.11,0,.22,0,.33Z"/><path class="d" d="M80.56,94.06c0,1.07-.06,2.17-.19,3.32h0c-.62,5.8-2.79,12.54-6.05,18.87-.55,1.07-1.13,2.13-1.74,3.16-.23,.39-.46,.77-.7,1.16-.37,.59-.77,1.22-1.21,1.88-3.29,4.91-8.64,11.29-15.25,13.33-.96,.3-1.94,.5-2.95,.6-.43,.04-.88,.06-1.32,.06-5.35,0-10.42-1.95-14.39-5.44-.27,.63-.54,1.25-.79,1.86-.31,.71-.6,1.41-.89,2.1-2.08,4.91-3.74,9.01-5.08,12.42-.43,1.11-.84,2.15-1.2,3.12-3.44,9.09-4.02,12.2-4.11,13.13-.46,4.58-3.74,7.53-8.37,7.53h-.85l-.83-.22c-5.07-1.35-14.65-6.48-14.65-16.23,0-6.09,6.27-20.7,13.44-35.42,.6-1.22,1.2-2.44,1.8-3.66,2.68-5.41,5.43-10.73,7.97-15.56,.51-.96,1-1.9,1.49-2.81,3.04-5.74,5.69-10.59,7.43-13.74v-.02l.08-.13,.09-.15c1.09-1.74,2.18-3.03,3.31-3.96,.33-.28,.66-.52,1.01-.74,.91-.59,1.87-.98,2.87-1.23,1.23-.31,2.55-.41,4-.41,.83,0,1.71,.08,2.6,.25,1.85,.34,3.76,1.05,5.4,2.17,.71,.48,1.37,1.03,1.95,1.66,.83-.55,1.64-1.04,2.44-1.48,3.15-1.73,6.12-2.6,8.86-2.6,2.18,0,4.05,.33,5.64,.86,.94,.32,1.79,.7,2.56,1.13,1.82,1.03,3.15,2.33,4.08,3.51,.5,.63,.94,1.31,1.33,2.02,.9,1.64,1.53,3.51,1.88,5.58,.2,1.18,.31,2.43,.32,3.75,0,.11,0,.22,0,.33Z"/><path class="d" d="M138.79,102.85c-1.44-2.99-4.41-4.85-7.76-4.85-.46,0-.91,.03-1.36,.1-.01-1.35-.12-2.65-.33-3.91-.22-1.37-.56-2.68-1.02-3.94-.37-1.02-.81-2.01-1.33-2.94-2.66-4.77-8.4-10.45-20.61-10.45-7.92,0-15.56,3.13-22.05,8.92-1.42,1.26-2.8,2.66-4.1,4.19-.28,.32-.55,.65-.82,.98-.51,.63-1.01,1.27-1.49,1.93,0,0,0,0,0,0-5.14,7.03-8.37,15.42-8.37,21.93,0,1.41,.1,2.77,.3,4.07,.19,1.24,.47,2.42,.83,3.55,.6,1.87,1.43,3.57,2.48,5.09,3.89,5.67,10.76,8.9,19.77,8.9,8.32,0,16.59-3.46,23.39-9.77,1.04-.12,2.04-.29,2.99-.51,.91-.2,1.78-.44,2.61-.72,.99-.33,1.93-.72,2.82-1.15,5.59-2.69,9.32-7.15,12.85-11.88,2.22-2.83,2.68-6.5,1.22-9.55Zm-32.49,2.08c-.56-.7-.95-1.54-.95-2.56,0-3.69,2.57-5.07,3.28-5.38,.08,1.31-.44,4.27-2.33,7.94Z"/><path class="d" d="M173.3,56.96l-.14,.28c-1.24,2.45-2.45,4.86-3.64,7.24-1.29,2.59-2.55,5.14-3.77,7.63-.34,.7-.68,1.39-1.02,2.08-.85,1.75-1.68,3.46-2.5,5.14-2.31,4.79-4.46,9.33-6.4,13.54-.01,.03-.03,.06-.05,.09,0,.02-.02,.03-.03,.05-.96,2.09-1.87,4.1-2.74,6.01,1.04-.53,2.11-.85,3.21-.97,.32-.04,.64-.05,.96-.05,.4,0,.8,.03,1.19,.08,2.88,.38,5.34,2.12,6.59,4.74,.32,.67,.55,1.36,.68,2.07h0c.14,.69,.19,1.39,.14,2.09-.09,1.93-.82,3.85-2.14,5.5-.11,.14-.22,.28-.33,.42-.12,.15-.24,.31-.36,.46h0c-4.22,5.38-7.73,9.51-10.66,12.67-.76,.82-1.48,1.58-2.17,2.28-.64,.65-1.26,1.26-1.84,1.82-6.64,6.31-9.36,6.31-11.11,6.31-3.74,0-13.86-3.16-17.9-10.28-.43-.77-.8-1.58-1.07-2.44-.4-1.23-.62-2.56-.62-3.99,0-.33,.02-.7,.06-1.08,.16-1.69,.68-3.84,1.46-6.35,1.59-5.05,4.3-11.53,7.51-18.46,.55-1.19,1.11-2.38,1.69-3.6,1.88-3.95,3.88-7.99,5.89-11.95,.97-1.9,1.93-3.78,2.89-5.63,.65-1.26,1.31-2.51,1.95-3.73,1.17-2.22,2.31-4.37,3.41-6.41,2.1-3.92,4.02-7.42,5.59-10.25,.74-1.33,1.39-2.52,1.96-3.52l.1-.19,.12-.18c.05-.07,.09-.14,.14-.21,1.17-1.75,2.42-3.09,3.83-4.05,.81-.56,1.68-.98,2.61-1.3,.53-.18,1.09-.32,1.67-.42,.89-.17,1.85-.25,2.88-.25,.81,0,1.88,.1,3.06,.34,1.91,.4,4.13,1.19,5.99,2.58,.02,.02,.05,.04,.07,.05,.29,.22,.57,.45,.84,.7,.67,.61,1.26,1.32,1.76,2.14,.43,.71,.76,1.45,.98,2.22,.19,.64,.29,1.29,.33,1.95,.09,1.61-.28,3.26-1.08,4.81Z"/><path class="d" d="M191.77,72.3l-.11,.21c-1.96,3.88-3.84,7.67-5.63,11.31-1.33,2.71-2.61,5.33-3.82,7.87-1.03,2.14-2.01,4.21-2.94,6.2h0c-.85,1.84-1.67,3.6-2.45,5.3,.24-.03,.5-.05,.75-.05h0c.06,0,.12,0,.19,0,3.2,0,6.04,1.76,7.4,4.59,.63,1.31,.89,2.74,.78,4.16h0c-.13,1.74-.8,3.46-1.98,4.95-.38,.49-.75,.96-1.12,1.42-2.58,3.27-4.83,5.96-6.81,8.16-.75,.84-1.47,1.61-2.15,2.32-.65,.68-1.26,1.29-1.84,1.86-1.42,1.38-2.66,2.44-3.75,3.25-3.03,2.26-4.91,2.6-6.48,2.6-2.73,0-9.36-1.96-13.48-6.31-.61-.64-1.15-1.32-1.63-2.07-1.14-1.78-1.85-3.86-1.85-6.27v-.03c0-2.47,1.18-6.46,3.06-11.28h0c.69-1.78,1.48-3.66,2.34-5.63,1.64-3.77,3.55-7.8,5.57-11.88,.01-.03,.03-.06,.05-.09,5.31-10.77,11.31-21.74,15.01-28.36l.11-.19,.12-.18c2.51-3.86,5.58-5.57,9.98-5.57,2.7,0,7.95,1.11,10.48,5.28,1.58,2.6,1.66,5.68,.22,8.46Z"/><path class="d" d="M288.06,106.78c-.6,3.92-3.86,6.78-7.74,6.78-1.23,0-3.09-.31-5.05-1.77-.14-.06-.56-.22-1.13-.29-1.23-.14-2.59-.14-4.16-.14-13.78,0-30.13,5.83-43.27,10.51-2.28,.81-4.47,1.59-6.57,2.32-1.15,.4-2.28,.78-3.37,1.14-3.45,1.13-6.6,2.06-9.44,2.64-1.82,1.74-3.76,3.23-5.8,4.46h0c-.95,.58-1.93,1.09-2.92,1.54-3.56,1.64-7.33,2.49-11.13,2.49-1.59,0-3.11-.12-4.54-.36-1.01-.16-1.98-.38-2.9-.65-3.26-.97-5.97-2.61-8.02-4.84-.6-.65-1.13-1.34-1.62-2.08-1.11-1.7-1.91-3.64-2.38-5.8-.33-1.51-.51-3.12-.51-4.83,0-.34,0-.7,.04-1.06h0c.37-6,3.76-14.19,9.61-20.58h0c1.52-1.67,3.2-3.21,5.05-4.55,4.01-2.94,8.76-4.96,14.15-5.35,.61-.05,1.24-.07,1.87-.07,.28,0,.56,0,.84,.01,5.36,.14,9.19,1.63,11.92,3.58,.65,.46,1.23,.94,1.76,1.45,1.21,1.14,2.12,2.36,2.81,3.51,1.59,2.66,2.46,5.77,2.57,9.16,.51-.25,1.02-.51,1.54-.77,1.03-.51,2.07-1.04,3.13-1.57,.96-.48,1.94-.97,2.92-1.45,15.09-7.46,32.33-15.33,44.86-15.33,1.58,0,3.08,.13,4.58,.41,10.31,1.8,14.17,13.86,12.9,21.5Z"/><path class="d" d="M224.83,95.1c-.47,.23-.94,.46-1.4,.69h0s.07-.04,.1-.05c.43-.22,.87-.43,1.31-.64Z"/><path class="d" d="M288.06,106.78c-.6,3.92-3.86,6.78-7.74,6.78-1.23,0-3.09-.31-5.05-1.77-.14-.06-.56-.22-1.13-.29-1.23-.14-2.59-.14-4.16-.14-13.78,0-30.13,5.83-43.27,10.51-2.28,.81-4.47,1.59-6.57,2.32-1.15,.4-2.28,.78-3.37,1.14-3.45,1.13-6.6,2.06-9.44,2.64-1.82,1.74-3.76,3.23-5.8,4.46h0c-.95,.58-1.93,1.09-2.92,1.54-3.56,1.64-7.33,2.49-11.13,2.49-1.59,0-3.11-.12-4.54-.36-1.01-.16-1.98-.38-2.9-.65-3.26-.97-5.97-2.61-8.02-4.84-1.42,1.38-2.66,2.44-3.75,3.25-.59-.65-1.13-1.33-1.64-2.04-1.09-1.55-1.97-3.26-2.63-5.1-.61-1.67-1.02-3.46-1.25-5.33h0c-.14-1.13-.21-2.3-.21-3.5s.1-2.42,.3-3.69c0,0,0,0,0,0,.04-.26,.08-.53,.14-.8h0c.5-2.74,1.42-5.63,2.69-8.48h0c1.29-2.93,2.95-5.8,4.9-8.45,.42-.57,.85-1.13,1.3-1.68,3.05-3.75,6.54-6.78,10.3-9h0c1.26-.74,2.54-1.39,3.85-1.95-1.33,2.71-2.61,5.33-3.82,7.87,4.01-2.94,8.76-4.96,14.15-5.35,.61-.05,1.24-.07,1.87-.07,.28,0,.56,0,.84,.01,5.36,.14,9.19,1.63,11.92,3.58,.65,.46,1.23,.94,1.76,1.45,1.21,1.14,2.12,2.36,2.81,3.51,1.59,2.66,2.46,5.77,2.57,9.16,.51-.25,1.02-.51,1.54-.77,1.03-.51,2.07-1.04,3.13-1.57,.96-.48,1.94-.97,2.92-1.45,15.09-7.46,32.33-15.33,44.86-15.33,1.58,0,3.08,.13,4.58,.41,10.31,1.8,14.17,13.86,12.9,21.5Z"/><path class="d" d="M288.06,106.78c-.6,3.92-3.86,6.78-7.74,6.78-1.23,0-3.09-.31-5.05-1.77-.14-.06-.56-.22-1.13-.29-1.23-.14-2.59-.14-4.16-.14-13.78,0-30.13,5.83-43.27,10.51-2.28,.81-4.47,1.59-6.57,2.32-1.15,.4-2.28,.78-3.37,1.14-3.45,1.13-6.6,2.06-9.44,2.64-1.82,1.74-3.76,3.23-5.8,4.46h0c-.95,.58-1.93,1.09-2.92,1.54-3.56,1.64-7.33,2.49-11.13,2.49-1.59,0-3.11-.12-4.54-.36-1.01-.16-1.98-.38-2.9-.65-3.26-.97-5.97-2.61-8.02-4.84-.6-.65-1.13-1.34-1.62-2.08-1.11-1.7-1.91-3.64-2.38-5.8-.33-1.51-.51-3.12-.51-4.83,0-.34,0-.7,.04-1.06h0c.37-6,3.76-14.19,9.61-20.58h0c1.52-1.67,3.2-3.21,5.05-4.55,4.01-2.94,8.76-4.96,14.15-5.35,.61-.05,1.24-.07,1.87-.07,.28,0,.56,0,.84,.01,5.36,.14,9.19,1.63,11.92,3.58,.65,.46,1.23,.94,1.76,1.45,1.21,1.14,2.12,2.36,2.81,3.51,1.59,2.66,2.46,5.77,2.57,9.16,.51-.25,1.02-.51,1.54-.77,1.03-.51,2.07-1.04,3.13-1.57,.96-.48,1.94-.97,2.92-1.45,15.09-7.46,32.33-15.33,44.86-15.33,1.58,0,3.08,.13,4.58,.41,10.31,1.8,14.17,13.86,12.9,21.5Z"/><path class="e" d="M187.48,133.84c-10.87,0-17.36-5.96-17.36-15.95s10.94-29,28.1-29c8.87,0,13.11,3.96,15.11,7.29,2.02,3.37,2.65,7.61,1.91,12.17,1.76-.87,3.65-1.81,5.62-2.8,16.08-8.05,36.09-18.06,49.73-18.06,1.42,0,2.76,.12,4.11,.36,8.99,1.57,11.76,12.69,10.79,18.51-.41,2.67-2.57,4.6-5.17,4.6-1.76,0-3.06-.92-3.61-1.35-.4-.25-1.23-.56-2.22-.69-1.42-.17-2.85-.17-4.5-.17-14.23,0-30.82,5.91-44.14,10.66-7.71,2.75-14.45,5.15-19.77,6.14-5.33,5.36-11.88,8.3-18.59,8.3Zm12.47-31.52c-.8,.08-3.84,1.73-3.84,5.62,0,1.67,1.02,3.07,2.4,4.06,2.45-4.1,3.23-8.06,2.58-9.38-.12-.26-.76-.3-1.14-.3Z"/><path class="e" d="M15.82,168.55l-.5-.13c-4.4-1.17-12.71-5.55-12.71-13.71,0-11.73,26.49-60.32,31.81-69.94l.05-.09,.06-.09c2.71-4.34,5.06-5.11,8.98-5.11,3,0,7.07,1.37,8.89,4.37,.15,.25,.29,.51,.4,.78,3.79-2.91,8-5.14,11.96-5.14,5.52,0,8.61,2.45,10.23,4.51,1.98,2.52,2.98,5.9,2.98,10.07,0,7.23-3.17,16.86-8.28,25.14-2.72,4.4-9.95,14.64-18.51,14.64-6.11,0-11.53-2.78-15.22-7.48-8.44,19.37-13.43,32.69-13.84,37.03-.32,3.24-2.48,5.17-5.78,5.17h-.51Zm27.57-55.04c.31,1.73,1.09,3.69,2.47,3.93,1.15-.68,4.3-4.05,8.1-11.39,2.03-3.92,3.33-7.23,4.06-9.62-4.16,3.52-10.52,10.82-14.63,17.08Z"/><path class="d" d="M163.63,48.98c-.09,.68-.3,1.36-.64,2.01-1.64,3.24-4.35,9.06-7.05,15.14-.29,.65-.58,1.31-.87,1.97-.27,.61-.53,1.21-.79,1.82-.74,1.7-1.45,3.38-2.12,5-2.44,5.87-4.32,10.87-4.5,12.63-.28,2.76-2.35,4.62-5.15,4.62h-.55l-.53-.14c-2.49-.66-5.1-2.24-6.68-4.53-.47-.68-.85-1.43-1.1-2.24-.24-.75-.37-1.54-.37-2.39,0-.6,0-1.72,.93-4.57,.36-1.09,.85-2.44,1.54-4.12-4.22-.84-8.15-4.21-8.15-9.22,0-.22,0-.44,.02-.66,.12-2.72,1-6.09,2.54-9.37,3.08-6.57,8.81-12.79,16.47-12.79,2.06,0,3.89,.43,5.4,1.26,1.44-1.09,2.94-1.26,4.39-1.26,.25,0,.52,.01,.8,.04,.4,.04,.82,.11,1.25,.23,1.2,.3,2.45,.88,3.43,1.83,.19,.18,.36,.37,.52,.58,.15,.19,.3,.4,.43,.62,.04,.05,.07,.11,.09,.17,.26,.46,.45,.94,.57,1.43,.15,.63,.19,1.29,.11,1.94Z"/><path class="g" d="M4.66,154.01c0-11.32,31.32-68.05,31.32-68.05,1.89-3.02,2.89-3.27,5.66-3.27s7.29,1.89,5.53,5.28c-1.13,2.14-2.89,5.91-5.03,10.44,6.29-8.05,14.84-15.72,20.75-15.72,21.51,0,.88,46.54-13.58,46.54-8.05,0-13.58-5.91-15.47-12.7-8.18,18.36-16.85,39.24-17.48,45.78-.13,1.26-.63,1.64-1.89,1.64-3.77-1.01-9.81-4.53-9.81-9.94Zm32.83-42.14c.25,4.4,2.52,8.8,6.79,8.8,6.41,0,21.26-30.94,15.09-30.94-5.28,0-17.48,15.09-21.89,22.14Z"/><path class="d" d="M192.41,58.67c-.06,.76-.29,1.51-.67,2.21-.17,.32-.37,.62-.61,.91-.19,.25-.38,.49-.57,.73-.06,.07-.11,.14-.17,.21-.51,.66-1.02,1.28-1.5,1.86-1.04,1.27-1.99,2.38-2.85,3.35-.49,.55-.95,1.04-1.39,1.5-.42,.44-.82,.84-1.19,1.2-.24,.23-.48,.46-.7,.66-1.31,1.2-2.36,1.94-3.22,2.39-1.11,.58-1.92,.69-2.64,.69-1.78,0-3.68-.61-5.37-1.64-.56-.34-1.09-.73-1.59-1.17-.01,0-.03-.02-.04-.03-1.43,1.15-2.83,1.95-4.22,2.39-.31,.1-.62,.19-.93,.25-.61,.14-1.21,.2-1.82,.2-.35,0-.73-.03-1.14-.1-1.64-.26-3.66-1.05-5.39-2.34-.78-.58-1.5-1.26-2.11-2.04-.42-.54-.78-1.12-1.07-1.75-.43-.96-.69-2.03-.69-3.2,0-3.72,2.33-9.43,6.92-16.99,.46-.76,.95-1.54,1.45-2.34,.11-.18,.23-.36,.34-.54,.07-.12,.15-.23,.23-.34,.14-.19,.28-.36,.42-.52,.7-.8,1.56-1.39,2.51-1.74,.65-.24,1.34-.36,2.05-.36,1.91,0,5.52,1.05,7.07,3.88,.19,.34,.33,.69,.45,1.05,.34-.55,.65-1.04,.91-1.45l.31-.49c1.21-1.9,3.12-2.99,5.23-2.99,.47,0,1.05,.06,1.68,.2,.76,.17,1.59,.45,2.38,.87,1.19,.62,2.31,1.53,3.01,2.8,.15,.27,.28,.55,.37,.84,.24,.69,.35,1.4,.31,2.12-.04,.8-.25,1.59-.64,2.34-.08,.17-.18,.34-.28,.5-.16,.26-.38,.66-.64,1.16h.16c.11-.02,.22-.02,.33-.02,.46,0,.91,.05,1.33,.17,1.5,.37,2.76,1.37,3.44,2.8,.42,.87,.58,1.81,.5,2.75Z"/><path class="e" d="M92.93,133.84c-13,0-20.76-7.1-20.76-19s13.33-35.35,34.22-35.35c10.95,0,16.01,4.95,18.33,9.11,2.12,3.79,2.79,8.48,2.1,13.49,1.29-.96,2.75-1.47,4.23-1.47,2.33,0,4.4,1.29,5.4,3.37,1.04,2.16,.69,4.77-.92,6.82-5.05,6.77-10.12,12.46-20.36,13.37-6.44,6.24-14.28,9.66-22.23,9.66Zm.44-17.81c.16,.45,.44,.79,.92,1.04-.32-.34-.62-.68-.92-1.04Zm15.15-21.69c-.98,0-5.77,2.19-5.77,8.04,0,2.98,1.99,5.16,4.29,6.49,3.58-5.56,4.93-11.33,3.83-13.59-.15-.3-.45-.93-2.34-.93Z"/><path class="e" d="M137.2,133.84c-3.96,0-16.99-4.39-16.99-14.1,0-11.74,26.71-60.12,32.07-69.7l.06-.11,.07-.11c2.36-3.63,4.87-5.05,8.94-5.05,2.7,0,7.46,1.22,9.5,4.57,1.19,1.96,1.24,4.3,.14,6.43l-.16,.31c-11.49,22.76-20.65,42.31-25.4,54,2.27-2.42,4.53-4.92,6.1-6.66l.07-.07,.07-.07c.66-.66,2.65-2.65,5.53-2.65,2.36,0,4.45,1.28,5.44,3.34,1.05,2.18,.66,4.83-1,6.91-17.9,22.98-22.65,22.98-24.44,22.98Z"/><path class="e" d="M161.79,133.84c-3.34,0-14.35-3.75-14.35-12.04,0-9.57,21.4-48.33,25.69-56.01l.06-.11,.07-.11c2.03-3.12,4.28-4.39,7.8-4.39,2.01,0,6.32,.84,8.26,4.02,1.1,1.8,1.14,3.95,.13,5.9l-.12,.24c-7.91,15.68-14.45,29.47-18.52,38.91,.68-.75,1.3-1.44,1.82-2.01l.07-.07,.07-.07c.58-.58,2.35-2.35,4.97-2.35,2.19,0,4.13,1.19,5.05,3.12,.97,2.02,.63,4.45-.89,6.35-14.51,18.63-18.44,18.63-20.12,18.63Z"/><path class="g" d="M173.69,110.16c.8-.8,1.51-1.2,2.21-1.2,1.51,0,2.31,1.61,1.1,3.11-6.72,8.63-14.45,17.16-17.06,17.16-2.21,0-10.44-2.91-10.44-8.13,0-9.03,25.19-54.1,25.19-54.1,1.3-2.01,2.31-2.61,4.52-2.61s6.32,1.51,4.92,4.22c-.5,1-23.59,46.47-23.59,53.5,0,.2,.1,.3,.3,.3,1.71,0,7.23-6.02,12.85-12.24Z"/><path class="g" d="M196.37,92.09c14.55,0,15.96,12.45,10.34,22.98,14.05-5.92,44.76-24.39,62.03-24.39,1.2,0,2.31,.1,3.41,.3,6.32,1.1,8.33,9.94,7.63,14.05-.1,.7-.6,1.3-1.31,1.3-.4,0-.8-.2-1.3-.6-1-.7-2.51-1.2-4.01-1.41-1.71-.2-3.31-.2-5.02-.2-23.69,0-51.99,15.06-65.84,17.06-4.32,4.72-10.14,8.03-16.66,8.03-11.74,0-13.45-7.63-13.45-12.04,0-8.73,9.94-25.09,24.19-25.09Zm-7.83,30.31c1.81,0,3.61-.8,5.42-2.11-4.72-1.81-8.23-5.82-8.73-12.04-1.51,2.91-2.51,6.02-2.51,8.83,0,1.91,.8,5.32,5.82,5.32Zm9.54-24.69c-2.61,0-7.73,3.21-7.73,9.54,0,4.42,3.51,7.73,7.63,9.03,5.72-7.33,8.43-18.57,.1-18.57Z"/><path class="g" d="M152.58,105.33c1.01-1.01,1.89-1.51,2.77-1.51,1.89,0,2.89,2.01,1.38,3.9-8.43,10.82-18.11,21.51-21.38,21.51-2.77,0-13.08-3.65-13.08-10.19,0-11.32,31.57-67.79,31.57-67.79,1.64-2.52,2.89-3.27,5.66-3.27s7.92,1.89,6.16,5.28c-.63,1.26-29.56,58.24-29.56,67.04,0,.25,.13,.38,.38,.38,2.14,0,9.06-7.55,16.1-15.35Z"/><path class="g" d="M104.53,82.69c19.12,0,20.12,17.23,11.82,30.69,2.39-.63,4.53-1.89,6.16-3.65,2.26-2.52,3.02-3.52,3.9-4.4,.88-1.01,1.89-1.51,2.77-1.51,1.76,0,2.89,2.01,1.38,3.9-5.16,6.92-9.56,11.57-18.99,11.95-5.41,5.66-12.58,9.56-20.5,9.56-14.72,0-16.85-9.56-16.85-15.09,0-10.94,12.45-31.44,30.31-31.44Zm-9.81,37.98c2.26,0,4.65-1.01,6.92-2.64-5.91-2.52-10.44-7.55-11.07-15.22-1.89,3.77-3.14,7.67-3.14,11.19,0,2.39,1.01,6.67,7.3,6.67Zm11.95-30.94c-3.27,0-9.69,4.02-9.69,11.95,0,5.53,4.28,9.68,9.56,11.32,7.17-9.18,10.57-23.27,.13-23.27Z"/><path class="d" d="M91.12,40.05v.05c.01,.63-.05,1.26-.2,1.9-.04,.17-.08,.34-.14,.51h0c-.03,.12-.07,.22-.1,.33-.27,.86-.6,1.82-.99,2.9h0c-.33,.9-.69,1.88-1.08,2.91,0,.03-.02,.06-.04,.09h0c-.11,.29-.22,.58-.33,.88-.19,.49-.38,1-.57,1.51,0,0,0,.01,0,.02-.02,.05-.04,.11-.06,.17-.33,.85-.66,1.73-1,2.63-.13,.35-.27,.7-.4,1.06-.02,.04-.03,.09-.05,.13-1.28,3.43-2.54,6.97-3.27,9.73h0c-.19,.7-.33,1.34-.45,1.92-.05,.35-.09,.65-.12,.92h0c-.12,1.22,0,1.64,.05,1.73l.09,.11c.33,.47,.61,.98,.8,1.5,.47,1.28,.53,2.68,.16,3.97-.1,.38-.25,.75-.43,1.1-.19,.36-.4,.69-.65,1-1.17,1.5-2.97,2.36-5,2.36-1.68,0-3.13-.23-4.37-.61-.98-.3-1.83-.69-2.56-1.13-1.15-.69-2.01-1.49-2.65-2.24-.38-.45-.8-1.02-1.17-1.7-1.21,1.05-2.85,1.82-5.17,1.82-2.72,0-5.64-1.36-7.81-3.63-.34-.35-.65-.72-.94-1.1-1.85,2.36-4.02,4.63-6.55,6.24-2.03,1.29-4.3,2.16-6.84,2.33-.29,.03-.6,.04-.9,.04-.64,0-1.25-.04-1.82-.1-.32-.03-.62-.08-.92-.13-5.32-.93-7.56-4.47-8.32-6.12-1.92-4.13-1.07-9.18,.85-11.68,1.14-1.52,2.98-2.45,4.9-2.45s3.71,.93,4.82,2.43c.77-.36,1.92-1.21,3.63-3.05,.35-.38,.73-.8,1.13-1.27-.19-.06-.37-.13-.55-.2-1.42-.57-2.72-1.52-3.76-2.79-2.02-2.45-2.85-5.81-2.23-8.99,2.14-10.62,15.13-12.77,21.92-13.16,1.06-.06,1.97-.08,2.67-.08,.4,0,.79,0,1.17,0,6.63,.13,10.69,1.34,12.68,3.8,2.23-2.16,4.65-3.09,8-3.09,1.19,0,2.21,.17,3.09,.43,1.64,.5,2.76,1.36,3.5,2.13,.28,.29,.5,.57,.67,.81,.16,.23,.3,.45,.43,.69,.53,.96,.83,2.03,.89,3.13,0,.07,0,.15,0,.23Z"/><path class="d" d="M106.95,67.04c-1.25,1.58-2.36,2.92-3.36,4.06-1.13,1.29-2.11,2.31-2.98,3.13-.7,.66-1.33,1.18-1.89,1.59-1.84,1.34-3.07,1.52-4.3,1.52-1.57,0-3.45-.58-5.11-1.52-.38,.23-.76,.44-1.15,.61-1.28,.6-2.56,.91-3.83,.91-.67,0-1.35-.07-2.02-.21-.81-.16-1.61-.42-2.38-.78-1.53-.7-2.91-1.77-3.92-3.14-1.08-1.46-1.76-3.27-1.76-5.37,0-3.16,1.21-7.2,3.37-10.76,2.01-3.3,4.82-6.2,8.27-7.66,.14-.06,.28-.12,.43-.18-.03-.31-.03-.62,0-.93,.06-1.08,.39-2.13,.99-3.08,.1-.16,.22-.34,.36-.55,.81-1.19,2.24-3.08,3.44-4.64,.87-1.12,1.63-2.09,1.96-2.48,.61-.75,1.36-1.34,2.2-1.76,.88-.42,1.86-.65,2.88-.65,3.59,0,6.87,2.8,8.13,5.42,1.21,2.54,.93,5.29-.74,7.37-.21,.25-.5,.57-.85,.92-.51,.51-1.14,1.12-1.8,1.73,.51,.44,.95,.93,1.31,1.47,.11,.16,.21,.33,.3,.5,.22,.4,.4,.82,.53,1.25,.35,1.12,.39,2.29,.14,3.42,.67,.37,1.27,.87,1.77,1.46,.35,.41,.65,.86,.89,1.36,.26,.55,.45,1.13,.55,1.71,.31,1.83-.18,3.74-1.41,5.28Z"/><path class="d" d="M104.95,77.33c-4.89,0-8.95-2.41-10.85-6.44-1.63-3.46-1.19-7.49,1.11-10.27l1.36-1.59c.71-.83,1.34-1.57,1.91-2.22,1.14-3.71,4.51-7.96,9.74-9.55,.97-.34,1.77-.34,2.08-.34,1.52,0,2.86,.49,3.98,1.29,.94-1.42,2.42-2.42,4.14-2.73l.17-.03c.52-.07,1.11-.16,1.79-.16,6.39,0,9.83,5.53,9.83,10.74,0,8.4-9.29,18.28-18.25,19.59-2.02,1.14-4.38,1.72-7.03,1.72Z"/><path class="d" d="M211.3,61.8c-3.97,5.09-8.32,9.91-13.41,11.77-.85,.32-1.73,.55-2.63,.68-.61,.09-1.23,.14-1.87,.14-.9,0-1.77-.06-2.59-.18-.92-.13-1.79-.33-2.61-.6-.16-.05-.33-.11-.48-.17-1.69-.63-3.12-1.58-4.24-2.79-.08-.09-.16-.17-.24-.26-.29-.34-.56-.7-.8-1.07-.72-1.09-1.24-2.34-1.54-3.74-.08-.33-.14-.66-.19-1.01-.09-.68-.14-1.38-.14-2.11,0-.22,0-.44,.02-.66,.01-.2,.03-.4,.05-.6,.08-.84,.25-1.71,.48-2.62,.76-2.87,2.25-5.98,4.27-8.75,.26-.36,.53-.71,.8-1.05h0c.11-.14,.22-.28,.33-.41,.45-.54,.91-1.04,1.38-1.51,.07-.07,.14-.14,.2-.2,1.23-1.21,2.52-2.19,3.84-2.91,1.9-1.05,3.87-1.6,5.84-1.6,7.19,0,10.46,4.95,10.46,9.56,0,.45-.02,.89-.07,1.33,1.71,.27,3.17,1.33,3.92,2.9,.91,1.89,.61,4.14-.78,5.87Z"/><path class="e" d="M176.9,72.71c-2.42,0-5.16-1.39-6.92-3.46-2.5,2.32-4.83,3.46-7.06,3.46-2.6,0-8.71-2.63-8.71-7.74,0-4.8,4.6-12.95,8.45-18.95,.9-1.41,2.25-2.19,3.8-2.19,1.64,0,4.46,.93,5.6,3,.71,1.3,.65,2.79-.18,4.1-1.36,2.18-3.68,6.9-4.89,10.23,1.36-1.57,3.23-4.16,5.51-8.24,1.44-2.66,2.93-4.99,3.82-6.39l.31-.49c.91-1.43,2.26-2.21,3.81-2.21,1.64,0,4.46,.93,5.6,3,.71,1.3,.65,2.79-.18,4.1-.68,1.08-2,3.85-3.25,6.69,.46-.51,.88-.97,1.23-1.36l.04-.05,.05-.05c.37-.37,1.51-1.51,3.2-1.51,1.41,0,2.66,.77,3.26,2.01,.62,1.3,.4,2.87-.58,4.09-9.32,11.96-11.84,11.96-12.92,11.96Z"/><path class="e" d="M77.32,77.23c-4.26,0-6.63-1.73-7.86-3.19-.95-1.12-1.95-2.92-2-5.57-1.08,2.32-2.34,4.89-6.06,4.89-2.12,0-4.43-1.1-6.18-2.93-1.15-1.2-1.9-2.55-2.18-3.9-4.12,6.02-8.72,10.7-14.68,10.7s-8.14-3.16-9.02-5.05c-1.49-3.22-.89-7.43,.59-9.35,.73-.98,1.91-1.57,3.12-1.57,1.61,0,3.03,1.02,3.54,2.55l.03,.09c.08,.02,.19,.04,.35,.04,3,0,6.86-4.41,10.47-9.26-.64,.4-1.4,.62-2.2,.62-1.95,0-3.84-.94-5.19-2.59-1.6-1.94-2.25-4.61-1.76-7.13,2.14-10.6,17.67-11.42,22.39-11.42,6.62,0,10.74,1.06,12.24,3.16,.4,.55,.84,1.42,.88,2.66,.73-.94,1.41-1.74,1.99-2.34,1.91-1.98,3.79-2.76,6.73-2.76,3.23,0,4.78,1.52,5.43,2.43,.96,1.36,1.18,3.11,.6,4.82-.66,2.12-1.74,4.95-2.99,8.22-2.05,5.37-4.6,12.05-5.35,16.06-.22,1.42-.43,3.4,.34,4.38l.09,.12c.88,1.23,1.01,2.88,.33,4.2-.69,1.34-2.05,2.14-3.65,2.14Zm-28.37-27.46c.37,.79,.45,1.66,.25,2.48,.57-.8,1.13-1.59,1.68-2.36,1.12-1.58,2.21-3.13,3.3-4.59-2.79,.94-4.9,2.47-5.23,4.44v.03Z"/><path class="e" d="M94.43,75.08c-1.38,0-3.46-.68-5.14-1.98-1.72,1.33-3.36,1.98-4.95,1.98-3.76,0-7.82-2.77-7.82-7.25,0-5.64,4.73-15.68,12.58-17.04-.74-1.44-.69-3.06,.13-4.36,.97-1.57,4.57-6.19,5.59-7.46,.81-1.01,2-1.58,3.34-1.58,2.58,0,5.12,2.11,6.09,4.15,.83,1.74,.66,3.6-.46,4.98-.7,.84-2.85,2.84-4.73,4.47,1.3,.43,2.7,1.26,3.46,2.65,.79,1.44,.72,3.14-.18,4.57-.08,.12-.17,.28-.27,.46,1.6,.02,3.01,.92,3.7,2.35,.72,1.49,.49,3.26-.6,4.61-7.47,9.44-9.37,9.44-10.76,9.44Z"/><path class="e" d="M104.95,75.08c-4,0-7.29-1.93-8.81-5.15-1.26-2.67-.94-5.77,.81-7.88l1.34-1.56c.85-.99,1.58-1.85,2.23-2.59,.86-3.38,3.97-7.17,8.41-8.51,.63-.23,1.16-.23,1.38-.23,2.81,0,4.82,2.65,5.29,5.15,.46,2.48-.84,4.18-2.34,4.76-.28,.11-.72,.42-1.05,.72,.07,.08,.14,.16,.2,.22,.36,.41,.78,.89,1.19,1.44,.66-.9,1.3-1.99,1.82-3.19,1.03-2.38,1.04-3.96,.89-4.37l-.08-.1-.11-.16c-.69-1.03-.79-2.36-.28-3.56,.53-1.25,1.66-2.15,3.01-2.4l.13-.02c.43-.06,.91-.13,1.43-.13,4.92,0,7.58,4.37,7.58,8.49,0,7.47-8.95,16.56-16.74,17.41-1.37,.86-3.41,1.64-6.28,1.64Z"/><path class="d" d="M97.94,63.6c1.72-2.01,3.06-3.59,4.11-4.78,.19-2.15,2.49-5.74,6.36-6.84,.1-.05,.19-.05,.29-.05,1.39,0,2.58,3.06,1.72,3.39-1.15,.43-3.59,2.2-3.59,3.97,0,1.67,3.49,3.49,3.49,6.26,0,.33-.05,.72-.14,1.1,4.83-1.58,9.99-12.1,7.12-15.49-.1-.14,0-.67,.53-.77,.33-.05,.67-.1,.96-.1,2.92,0,4.21,2.87,4.21,5.12,0,5.69-8.22,14.1-14.53,14.1-1.1,.91-2.77,1.58-5.12,1.58-5.55,0-7.46-5.02-5.4-7.51Zm4.97,3.59c2.01,0,3.06-1.05,3.06-2.01,0-1.34-2.44-2.06-3.49-4.11-.62,.81-1.39,1.77-2.2,2.77-.91,1.15,.14,3.35,2.63,3.35Z"/><path class="e" d="M142.18,90.48l-.32-.09c-3.32-.89-6.9-3.62-6.9-7.53,0-.76,0-2.73,3.26-10.18-.14,.01-.28,.02-.41,.02-4.1,0-8.52-2.96-8.52-7.74,0-7.26,6.75-21.14,17.34-21.14,2.31,0,4.2,.6,5.58,1.72,1.22-1.41,2.49-1.72,4.21-1.72s3.96,.77,5,2.49c.72,1.19,.75,2.61,.08,3.91-3.65,7.22-15.01,32.32-15.51,37.16-.19,1.91-1.52,3.11-3.48,3.11h-.33Zm4.45-37.54c-.5,.34-1.06,.86-1.62,1.53-1.88,2.24-3.23,5.29-3.88,7.48,.42-.39,.89-.89,1.41-1.51,2.22-2.69,3.61-5.73,4.09-7.49Z"/><path class="d" d="M130.62,64.51c0-6.57,6.12-18.61,14.81-18.61,3.8,0,5.22,1.87,5.54,4.19,.84-1.55,1.35-2.51,1.35-2.51,.97-1.55,1.48-1.67,2.9-1.67s3.74,.97,2.83,2.7c-2.96,5.86-15.2,32.39-15.78,38.06-.06,.64-.32,.84-.97,.84-1.93-.52-5.02-2.32-5.02-5.09,0-2.51,3.03-9.47,6.44-16.42-2.13,2.13-4.38,3.74-6.12,3.74-2.83,0-5.99-2-5.99-5.22Zm7.21,.84c5.28,0,13.78-15.84,8.76-15.84-6.05,0-11.85,15.84-8.76,15.84Z"/><path class="d" d="M78.3,67.23c0-4.88,4.54-13.82,11-13.82,2.39,0,3.49,1,3.92,2.34,.43-.67,.77-1.2,1-1.58,.33-.53,.77-.77,1.24-.77,1,0,3.35,.96,2.44,2.39-1.2,1.91-5.78,12.05-4.64,12.05,.81,0,3.44-2.87,6.12-5.83,.38-.38,.72-.57,1.05-.57,.67,0,1.1,.77,.53,1.48-3.25,4.11-6.88,8.18-8.13,8.18-1.05,0-4.54-1.34-4.59-3.82-1.86,2.15-3.92,3.82-5.5,3.82-2.1,0-4.45-1.48-4.45-3.87Zm5.35,.62c3.92,0,10.23-11.76,6.5-11.76-4.49,0-8.8,11.76-6.5,11.76Zm12.19-27.35c.19-.24,.43-.33,.72-.33,1.48,0,4.02,2.39,3.01,3.63-.91,1.1-5.83,5.45-6.79,6.07-.1,.05-.24,.1-.38,.1-.91,0-2.53-1.39-1.91-2.34,.76-1.24,4.11-5.59,5.35-7.12Z"/><path class="d" d="M31.02,64.27c.1-.14,.29-.24,.43-.24s.29,.1,.33,.24c.05,.91,1.24,2.44,3.59,2.44,8.94,0,17.55-19.27,25.43-26.44-.38,0-.81-.05-1.24-.05-6.07,0-14.53,2.29-15.54,8.37-.14,.76-.05,1.39,.29,2.06,.1,.19-.1,.67-.67,.67-2.25,0-4.21-2.77-3.63-5.69,1.34-6.65,11.28-8.7,19.08-8.7,4.92,0,8.94,.81,9.51,1.77,.19,.24,.24,.57,.24,.86-.1,2.39-6.79,18.41-7.6,22.61,3.39-5.64,11.71-18.98,15.39-22.8,1.2-1.24,2.15-1.72,4.3-1.72,2.34,0,3.39,1.2,2.82,2.82-1.77,5.69-7.22,18.07-8.46,24.76-.38,2.39-.53,5.07,1,7.03,.24,.33,.24,1-.57,1-4.64,0-7.08-2.68-6.36-7.03,1.1-7.46,7.41-19.17,8.75-21.75,.24-.53,.05-1.05-.38-1.05-.48,0-.76,.19-1.24,.81-2.1,2.82-11.71,18.17-13.63,22.09-1.24,2.68-1.67,3.06-3.06,3.06-2.34,0-5.21-2.73-5.12-4.78,.14-4.11,7.22-16.88,8.51-20.27,.14-.38,.1-.91-.43-.91-.91,0-1.72,1-3.11,2.92-7.17,9.99-13.67,26.92-22.9,26.92-8.08,0-6.79-7.74-5.74-8.99Z"/><path class="e" d="M193.39,72.71c-6.99,0-11.16-3.83-11.16-10.25,0-3.37,1.72-7.83,4.5-11.64,3.28-4.51,7.2-6.99,11.03-6.99,6.06,0,8.77,3.95,8.77,7.87,0,1.13-.18,2.19-.51,3.17,.38-.13,.8-.22,1.27-.22,1.41,0,2.66,.77,3.26,2.01,.62,1.3,.4,2.87-.58,4.09-4.83,6.2-10.2,11.96-16.59,11.96Zm.71-11.03c-.03,.25-.05,.49-.05,.71,0,.53,0,.89,1.21,.89s2.63-.94,4.13-2.26c-1.38,.44-2.92,.68-4.58,.68-.24,0-.48,0-.71-.01Z"/><path class="d" d="M196.57,45.9c4.44,0,6.25,2.64,6.25,5.35,0,5.15-4.57,7.47-9.21,7.47-.9,0-1.8-.06-2.64-.26-.39,1.16-.64,2.38-.64,3.48,0,1.22,.52,3.41,3.74,3.41,3.48,0,7.02-3.86,10.63-7.86,.52-.52,.97-.77,1.42-.77,.97,0,1.48,1.03,.71,2-4.32,5.54-9.27,11.01-14.62,11.01-7.54,0-8.63-4.89-8.63-7.73,0-5.6,6.38-16.1,13.01-16.1Zm-3.09,9.79c3.16,0,6.38-1.29,6.38-4.64,0-.84-.39-1.55-1.35-1.55-1.8,0-4.51,2.77-6.31,6.12,.45,.06,.84,.06,1.29,.06Z"/><path class="d" d="M163.6,46.93c.45-.71,1.03-1.03,1.67-1.03,1.35,0,4.51,1.29,3.28,3.22-1.61,2.58-8.69,16.23-5.02,16.23,2.38,0,6.38-5.22,9.98-11.66,1.61-2.96,3.28-5.54,4.06-6.76,.45-.71,1.03-1.03,1.67-1.03,1.35,0,4.51,1.29,3.28,3.22-1.61,2.58-7.79,16.23-6.25,16.23,1.09,0,4.64-3.86,8.24-7.86,.52-.52,.97-.77,1.42-.77,.97,0,1.48,1.03,.71,2-4.32,5.54-9.27,11.01-10.95,11.01-2.64,0-6.18-2.64-6.18-5.41-2.58,3.09-5.35,5.41-7.79,5.41-1.42,0-6.18-1.87-6.18-5.22,0-4.89,6.31-14.88,8.05-17.58Z"/><path class="g" d="M130.35,148.85c-.22,1.87-1.43,3.39-3.03,4.1h0c-2.62,1.04-19.63,7.38-42.62-6.9,.5,.19,26.09,9.81,36.77-1.32,3.12-3.62,9.64-.71,8.89,4.11Z"/><path class="e" d="M119.84,141.51c-1.38,6.94-21.06,11.64-45.65-2.8,.51,.19,26.07,9.82,36.77-1.32,3.12-3.61,9.64-.7,8.89,4.12Z"/><path class="f" d="M223.07,42.1c0,2.69-2.17,4.83-4.91,4.83s-4.94-2.14-4.94-4.83,2.19-4.8,4.97-4.8,4.89,2.11,4.89,4.8Zm-8.63,0c0,2.14,1.61,3.83,3.74,3.83,2.08,.03,3.66-1.7,3.66-3.8s-1.58-3.86-3.72-3.86-3.69,1.73-3.69,3.83Zm2.95,2.49h-1.11v-4.8c.44-.06,1.05-.15,1.84-.15,.91,0,1.32,.15,1.64,.38,.29,.21,.5,.56,.5,1.02,0,.58-.44,.97-.99,1.14v.06c.47,.15,.7,.53,.85,1.17,.15,.73,.26,.99,.35,1.17h-1.17c-.15-.18-.23-.58-.38-1.17-.09-.5-.38-.73-.99-.73h-.53v1.9Zm.03-2.69h.53c.61,0,1.11-.2,1.11-.7,0-.44-.32-.73-1.02-.73-.29,0-.5,.03-.61,.06v1.37Z"/></g></g></svg>