<?xml version="1.0" encoding="UTF-8"?><svg xmlns="http://www.w3.org/2000/svg" viewBox="0 0 405.88 240.97"><defs><style>.d{fill:#fff;}.e{fill:#ff6521;}.f{fill:#feda24;}</style></defs><g id="a"/><g id="b"><g id="c"><path class="d" d="M235.28,31.9c-.03,.05-.06,.11-.1,.16-.64,1.11-1.37,2.15-2.19,3.12-3.31,3.97-7.91,6.73-12.83,7.71,.47,1.87,.67,3.79,.59,5.71-.85,.15-1.7,.27-2.57,.33-.64,.05-1.28,.08-1.93,.08-2.54,0-5.01-.36-7.41-1.09-1.41-.42-2.79-.97-4.13-1.63-2.86-1.25-6.14-1.88-9.77-1.88-12.74,0-27.8,7.45-39.84,15.23h0c-1.55,1-3.04,2.01-4.48,3-1.98,1.37-3.85,2.73-5.57,4.03h0c-4.08,3.08-7.34,5.84-9.39,7.73-.32,.29-.64,.57-.99,.83-.72,.57-1.49,1.06-2.3,1.47-.53,.27-1.09,.52-1.65,.72-1.59,.59-3.28,.88-5.02,.88-1.51,0-3-.24-4.42-.68l-.13-.04c-.46-.16-.92-.33-1.37-.53-.48-.21-.94-.45-1.39-.71-.3-.17-.59-.36-.88-.55-.09-.06-.18-.13-.27-.2-.44-.31-.86-.64-1.27-1-.38-.34-.74-.7-1.09-1.07-.15-.17-.29-.33-.43-.5-.57-.67-1.07-1.39-1.49-2.14-.04-.06-.08-.13-.1-.19-2.68-4.86-2.41-10.96,1.06-15.68,.47-.64,.94-1.27,1.42-1.89,.99-1.32,1.98-2.59,2.98-3.85,.73-.93,1.47-1.84,2.21-2.73,2.31,.71,3.89,1.91,4.93,3,15.2-18.27,30.91-29.84,45.07-37.15,2.36-1.22,4.67-2.32,6.93-3.31C195.58,1.11,210.33,.02,216.87,0c.38,0,.73,.02,1.07,.06,7.25,.52,13.91,4.78,17.4,11.1,3.71,6.37,3.7,14.14-.06,20.73Z"/><path class="d" d="M235.28,31.9c-.03,.05-.06,.11-.1,.16-.64,1.11-1.37,2.15-2.19,3.12-3.31,3.97-7.91,6.73-12.83,7.71-.84,.17-1.69,.29-2.54,.34-.46,.03-.91,.05-1.37,.05-3.17,0-6.23-.73-9.1-2.17-.27-.12-.53-.24-.81-.34h0c-3.41-1.39-7.24-2.09-11.39-2.09-15.08,0-32.46,9.01-45.62,17.87-.9,.61-1.77,1.21-2.63,1.81-6.55,4.59-11.83,8.97-14.93,11.85-1.65,1.53-3.8,2.37-6.06,2.37-.81,0-1.62-.11-2.38-.32-.11-.03-.21-.06-.32-.1h0c-.48-.15-.95-.35-1.4-.59-.39-.2-.78-.44-1.14-.71-.24-.17-.46-.35-.68-.55-.04-.04-.1-.08-.14-.13-.46-.42-.86-.88-1.2-1.37-.53-.74-.93-1.55-1.21-2.4-.86-2.64-.45-5.62,1.31-8.02,1.63-2.21,3.26-4.34,4.91-6.38,.67-.84,1.35-1.67,2.02-2.48,15.2-18.27,30.91-29.84,45.07-37.15,2.36-1.22,4.67-2.32,6.93-3.31C195.58,1.11,210.33,.02,216.87,0c.38,0,.73,.02,1.07,.06,7.25,.52,13.91,4.78,17.4,11.1,3.71,6.37,3.7,14.14-.06,20.73Z"/><path class="d" d="M220.77,48.59c-.13,3.31-1.07,6.63-2.81,9.69-.27,.47-.55,.92-.85,1.37-.99,1.48-2.14,2.82-3.42,4.01-1.03,.97-2.15,1.82-3.33,2.57-3.44,2.19-7.41,3.43-11.43,3.43-1.62,0-3.2-.19-4.74-.57-.7-.17-1.39-.38-2.07-.62-.77-.27-1.53-.6-2.27-.97l-.1-.04c-3.6-1.59-7.68-2.39-12.13-2.39-.69,0-1.38,.02-2.07,.06-6.11,.31-12.43,1.94-18.57,4.31-3.37,1.3-6.69,2.83-9.9,4.48-.7,.36-1.39,.72-2.07,1.09-.24,.13-.48,.26-.72,.39-1.72,.94-3.4,1.91-5.04,2.91-.66,.39-1.32,.8-1.96,1.2-3.92,2.45-7.52,4.94-10.64,7.24-4.23,3.11-7.61,5.87-9.74,7.68h0c-.38,.32-.72,.62-1.02,.87h0c-.83,.72-1.34,1.19-1.49,1.33-.51,.46-1.07,.86-1.66,1.2-.29,.16-.59,.31-.9,.43-1.08,.45-2.25,.69-3.45,.69h-.01c-.83,0-1.63-.11-2.41-.34-.38-.1-.75-.24-1.11-.39-.91-.39-1.75-.94-2.5-1.63-3.43-3.16-3.85-8.32-1-11.99,3.64-4.7,7.43-9.18,11.33-13.42,.1-.11,.2-.22,.3-.32,1.4-1.52,2.82-3.01,4.25-4.46,.71-.72,1.43-1.44,2.15-2.15,1.75-1.73,3.53-3.41,5.32-5.04,1.19-1.07,2.38-2.13,3.58-3.17,.26-.22,.52-.45,.78-.66,.11-.11,.23-.2,.34-.3,2.22-1.88,4.46-3.67,6.71-5.38,4.68-3.56,9.44-6.76,14.23-9.56,15.08-8.83,30.4-13.69,43.14-13.69,9.48,0,17.11,2.71,21.92,7.7,.86,.9,1.64,1.86,2.31,2.9,.07,.11,.13,.22,.2,.32,.58,.99,1.09,2.02,1.49,3.06,.32,.8,.57,1.62,.78,2.44,.47,1.87,.67,3.79,.59,5.71Z"/><path class="e" d="M125.71,70.03c-1.51,0-3.03-.54-4.23-1.61-2.45-2.18-2.83-5.87-.89-8.51C159.68,6.81,204.17,2.58,216.88,2.54h.02c.27,0,.54,.02,.81,.05,6.44,.45,12.3,4.16,15.41,9.8,3.28,5.63,3.27,12.44-.04,18.24-3.5,6.13-10.1,10.1-16.81,10.1h0c-2.79,0-5.48-.65-8.01-1.93-3.96-1.77-8.43-2.67-13.3-2.67-24.77,0-55.25,23.24-64.91,32.2-1.22,1.13-2.77,1.7-4.33,1.7Z"/><path class="e" d="M108.39,96.43c-1.55,0-3.1-.56-4.31-1.69-2.42-2.24-2.74-5.96-.72-8.56,14.46-18.65,31.15-33.8,48.27-43.83,14.69-8.6,29.56-13.34,41.85-13.34,10.29,0,18.14,3.36,22.1,9.45,.05,.08,.1,.15,.14,.23,3.34,5.65,3.35,12.51,.02,18.34-3.5,6.14-10.1,10.1-16.81,10.1h0c-2.78,0-5.47-.65-8-1.92-3.97-1.77-8.45-2.67-13.32-2.67-29.25,0-63.5,30.92-64.94,32.23-1.21,1.11-2.75,1.66-4.29,1.66Z"/><path class="f" d="M224.55,15.53c-2.22-4.08-6.36-6.44-10.69-6.61v-.02c-6.93,.02-51.65,1.08-91.17,54.77,.97-.9,50.71-46.31,85.3-30.6,10.45,5.42,22.69-7.19,16.57-17.54Z"/><path class="d" d="M207.22,41.92c-9.5-14.61-58.83-7.36-101.86,48.15,.98-.9,50.66-46.3,85.3-30.6,10.45,5.41,22.69-7.2,16.56-17.55Z"/><path class="d" d="M113.42,132.42c0,1.5-.09,3.06-.27,4.68h0c-.88,8.17-3.93,17.66-8.51,26.56-.78,1.51-1.59,2.99-2.45,4.45-.32,.55-.65,1.09-.98,1.63-.52,.83-1.08,1.72-1.7,2.65-4.64,6.92-12.17,15.89-21.47,18.77-1.35,.42-2.73,.71-4.15,.85-.61,.06-1.23,.09-1.86,.09-7.54,0-14.67-2.74-20.27-7.66-.38,.89-.76,1.76-1.12,2.61-.43,1-.85,1.99-1.25,2.95-2.93,6.92-5.27,12.69-7.15,17.49-.61,1.56-1.18,3.03-1.69,4.39-4.84,12.8-5.67,17.18-5.79,18.49-.64,6.44-5.27,10.6-11.79,10.6h-1.2l-1.16-.31c-7.13-1.9-20.62-9.12-20.62-22.85,0-8.57,8.83-29.14,18.92-49.87,.84-1.72,1.69-3.43,2.54-5.15,3.78-7.61,7.64-15.11,11.22-21.91,.71-1.35,1.41-2.67,2.09-3.96,4.29-8.08,8.01-14.91,10.46-19.34l.02-.03,.1-.18,.13-.21c1.53-2.45,3.06-4.26,4.66-5.57,.46-.39,.93-.73,1.42-1.04,1.28-.83,2.63-1.38,4.04-1.74,1.74-.43,3.59-.58,5.63-.58,1.17,0,2.41,.11,3.66,.35,2.6,.48,5.29,1.48,7.6,3.05,1,.67,1.93,1.45,2.75,2.34,1.16-.78,2.31-1.47,3.44-2.09,4.43-2.43,8.61-3.66,12.48-3.66,3.07,0,5.7,.46,7.94,1.21,1.33,.45,2.52,.99,3.6,1.6,2.57,1.46,4.43,3.27,5.74,4.95,.7,.89,1.32,1.84,1.88,2.85,1.27,2.31,2.16,4.94,2.65,7.85,.28,1.67,.43,3.43,.45,5.28,0,.15,0,.31,0,.46Z"/><path class="d" d="M113.42,132.42c0,1.5-.09,3.06-.27,4.68h0c-.88,8.17-3.93,17.66-8.51,26.56-.78,1.51-1.59,2.99-2.45,4.45-.32,.55-.65,1.09-.98,1.63-.52,.83-1.08,1.72-1.7,2.65-4.64,6.92-12.17,15.89-21.47,18.77-1.35,.42-2.73,.71-4.15,.85-.61,.06-1.23,.09-1.86,.09-7.54,0-14.67-2.74-20.27-7.66-.38,.89-.76,1.76-1.12,2.61-.43,1-.85,1.99-1.25,2.95-2.93,6.92-5.27,12.69-7.15,17.49-.61,1.56-1.18,3.03-1.69,4.39-4.84,12.8-5.67,17.18-5.79,18.49-.64,6.44-5.27,10.6-11.79,10.6h-1.2l-1.16-.31c-7.13-1.9-20.62-9.12-20.62-22.85,0-8.57,8.83-29.14,18.92-49.87,.84-1.72,1.69-3.43,2.54-5.15,3.78-7.61,7.64-15.11,11.22-21.91,.71-1.35,1.41-2.67,2.09-3.96,4.29-8.08,8.01-14.91,10.46-19.34l.02-.03,.1-.18,.13-.21c1.53-2.45,3.06-4.26,4.66-5.57,.46-.39,.93-.73,1.42-1.04,1.28-.83,2.63-1.38,4.04-1.74,1.74-.43,3.59-.58,5.63-.58,1.17,0,2.41,.11,3.66,.35,2.6,.48,5.29,1.48,7.6,3.05,1,.67,1.93,1.45,2.75,2.34,1.16-.78,2.31-1.47,3.44-2.09,4.43-2.43,8.61-3.66,12.48-3.66,3.07,0,5.7,.46,7.94,1.21,1.33,.45,2.52,.99,3.6,1.6,2.57,1.46,4.43,3.27,5.74,4.95,.7,.89,1.32,1.84,1.88,2.85,1.27,2.31,2.16,4.94,2.65,7.85,.28,1.67,.43,3.43,.45,5.28,0,.15,0,.31,0,.46Z"/><path class="d" d="M195.4,144.8c-2.03-4.22-6.21-6.83-10.92-6.83-.64,0-1.28,.04-1.91,.14-.02-1.89-.17-3.73-.47-5.51-.31-1.93-.79-3.78-1.44-5.54-.52-1.44-1.14-2.82-1.88-4.13-3.75-6.71-11.82-14.71-29.01-14.71-11.15,0-21.9,4.4-31.04,12.57-2,1.78-3.94,3.75-5.77,5.89-.39,.45-.78,.91-1.16,1.38-.72,.89-1.42,1.79-2.1,2.72,0,0,0,0,0,0-7.23,9.89-11.78,21.71-11.78,30.88,0,1.99,.14,3.9,.42,5.73,.27,1.74,.65,3.41,1.17,4.99,.84,2.63,2.01,5.02,3.48,7.17,5.48,7.99,15.15,12.53,27.83,12.53,11.71,0,23.36-4.88,32.93-13.75,1.47-.17,2.87-.41,4.21-.72,1.28-.28,2.5-.62,3.67-1.02,1.39-.47,2.72-1.01,3.97-1.62,7.87-3.79,13.12-10.07,18.09-16.73,3.12-3.99,3.78-9.14,1.71-13.45Zm-45.74,2.93c-.78-.98-1.34-2.17-1.34-3.6,0-5.19,3.62-7.14,4.62-7.58,.11,1.84-.62,6.01-3.28,11.18Z"/><path class="d" d="M243.98,80.18l-.2,.4c-1.74,3.45-3.45,6.85-5.12,10.19-1.81,3.65-3.59,7.24-5.3,10.75-.48,.99-.96,1.96-1.43,2.93-1.2,2.46-2.37,4.88-3.52,7.24-3.26,6.75-6.28,13.13-9.01,19.06-.02,.04-.04,.09-.06,.13-.01,.03-.03,.04-.04,.07-1.35,2.94-2.64,5.77-3.85,8.46,1.46-.74,2.98-1.2,4.52-1.37,.45-.05,.9-.08,1.35-.08,.57,0,1.13,.04,1.68,.11,4.05,.53,7.52,2.99,9.28,6.67,.45,.94,.77,1.92,.96,2.92h0c.19,.97,.26,1.96,.2,2.94-.13,2.72-1.16,5.42-3.01,7.75-.16,.2-.31,.4-.47,.6-.17,.22-.34,.44-.5,.65h0c-5.95,7.58-10.88,13.39-15.01,17.84-1.07,1.16-2.09,2.23-3.06,3.2-.9,.92-1.77,1.77-2.59,2.56-9.35,8.88-13.18,8.88-15.64,8.88-5.27,0-19.52-4.44-25.2-14.47-.61-1.08-1.13-2.23-1.51-3.43-.57-1.74-.88-3.61-.88-5.61,0-.47,.03-.98,.08-1.53,.23-2.38,.95-5.41,2.06-8.93,2.24-7.12,6.06-16.23,10.57-25.99,.78-1.67,1.56-3.36,2.38-5.06,2.65-5.56,5.46-11.25,8.29-16.83,1.36-2.68,2.72-5.32,4.07-7.92,.92-1.77,1.84-3.53,2.75-5.25,1.65-3.13,3.26-6.16,4.79-9.02,2.96-5.51,5.66-10.44,7.87-14.43,1.04-1.88,1.96-3.54,2.75-4.96l.15-.26,.17-.25c.06-.1,.13-.2,.2-.3,1.64-2.47,3.4-4.35,5.39-5.7,1.14-.78,2.37-1.39,3.68-1.83,.75-.25,1.53-.45,2.35-.6,1.26-.24,2.61-.35,4.05-.35,1.14,0,2.65,.14,4.31,.48,2.69,.57,5.81,1.68,8.44,3.64,.03,.03,.07,.05,.1,.07,.41,.31,.8,.64,1.18,.99,.94,.86,1.78,1.86,2.48,3.01,.61,1,1.07,2.05,1.37,3.13,.26,.9,.41,1.82,.46,2.74,.12,2.27-.39,4.58-1.52,6.77Z"/><path class="d" d="M269.98,101.79l-.15,.29c-2.76,5.47-5.41,10.8-7.92,15.92-1.88,3.82-3.68,7.51-5.38,11.08-1.44,3.01-2.83,5.92-4.15,8.72h0c-1.2,2.59-2.35,5.07-3.45,7.47,.34-.04,.7-.06,1.06-.07h0c.09,0,.17,0,.26,0,4.51,0,8.5,2.48,10.42,6.47,.89,1.85,1.25,3.86,1.09,5.86h0c-.18,2.45-1.13,4.88-2.79,6.96-.53,.69-1.06,1.35-1.58,2-3.64,4.6-6.8,8.39-9.59,11.49-1.06,1.19-2.07,2.27-3.02,3.27-.91,.95-1.77,1.82-2.59,2.61-2,1.95-3.75,3.44-5.28,4.58-4.27,3.18-6.92,3.66-9.12,3.66-3.84,0-13.18-2.76-18.97-8.88-.85-.9-1.62-1.86-2.29-2.91-1.61-2.51-2.61-5.44-2.61-8.83v-.04c.01-3.47,1.67-9.09,4.31-15.88h0c.97-2.51,2.08-5.16,3.29-7.93,2.31-5.3,5-10.99,7.84-16.73,.02-.04,.04-.09,.06-.13,7.47-15.16,15.93-30.61,21.13-39.92l.15-.27,.17-.25c3.53-5.43,7.86-7.85,14.05-7.85,3.8,0,11.19,1.56,14.76,7.43,2.23,3.66,2.33,7.99,.31,11.9Z"/><path class="d" d="M405.55,150.33c-.85,5.51-5.43,9.54-10.89,9.54-1.74,0-4.36-.44-7.1-2.49-.2-.09-.79-.31-1.6-.41-1.73-.2-3.64-.2-5.86-.2-19.4,0-42.42,8.2-60.91,14.79-3.21,1.14-6.3,2.24-9.25,3.26-1.62,.56-3.2,1.09-4.74,1.6-4.85,1.6-9.29,2.89-13.29,3.71-2.56,2.45-5.3,4.55-8.17,6.28h0c-1.34,.81-2.72,1.54-4.11,2.17-5.01,2.3-10.32,3.51-15.67,3.51-2.24,0-4.38-.17-6.4-.5-1.42-.22-2.79-.53-4.08-.92-4.59-1.36-8.4-3.68-11.29-6.81-.84-.91-1.6-1.88-2.28-2.93-1.56-2.39-2.69-5.13-3.36-8.17-.47-2.12-.71-4.39-.71-6.8,0-.48,.01-.99,.05-1.49h0c.52-8.44,5.3-19.97,13.53-28.97h0c2.14-2.35,4.51-4.51,7.1-6.41,5.65-4.14,12.34-6.99,19.92-7.53,.86-.06,1.74-.1,2.63-.1,.4,0,.79,0,1.18,.02,7.55,.2,12.94,2.29,16.79,5.04,.91,.64,1.74,1.33,2.48,2.04,1.7,1.6,2.99,3.32,3.96,4.94,2.24,3.75,3.47,8.13,3.62,12.9,.71-.36,1.44-.72,2.17-1.09,1.45-.72,2.92-1.46,4.41-2.21,1.35-.67,2.73-1.36,4.11-2.05,21.25-10.5,45.51-21.58,63.16-21.58,2.22,0,4.33,.18,6.44,.57,14.51,2.53,19.95,19.51,18.15,30.27Z"/><path class="d" d="M405.55,150.33c-.85,5.51-5.43,9.54-10.89,9.54-1.74,0-4.36-.44-7.1-2.49-.2-.09-.79-.31-1.6-.41-1.73-.2-3.64-.2-5.86-.2-19.4,0-42.42,8.2-60.91,14.79-3.21,1.14-6.3,2.24-9.25,3.26-1.62,.56-3.2,1.09-4.74,1.6-4.85,1.6-9.29,2.89-13.29,3.71-2.56,2.45-5.3,4.55-8.17,6.28h0c-1.34,.81-2.72,1.54-4.11,2.17-5.01,2.3-10.32,3.51-15.67,3.51-2.24,0-4.38-.17-6.4-.5-1.42-.22-2.79-.53-4.08-.92-4.59-1.36-8.4-3.68-11.29-6.81-2,1.95-3.75,3.44-5.28,4.58-.83-.91-1.6-1.87-2.3-2.87-1.54-2.19-2.78-4.59-3.7-7.18-.85-2.35-1.44-4.86-1.76-7.51h0c-.2-1.6-.3-3.24-.3-4.92s.15-3.41,.43-5.2c0,0,0-.01,0-.01,.05-.37,.11-.75,.19-1.13h0c.7-3.86,2-7.93,3.78-11.94h0c1.82-4.12,4.16-8.17,6.89-11.9,.59-.81,1.2-1.6,1.83-2.37,4.3-5.28,9.2-9.54,14.5-12.67h0c1.77-1.04,3.57-1.96,5.42-2.74-1.88,3.82-3.68,7.51-5.38,11.08,5.65-4.14,12.34-6.99,19.92-7.53,.86-.06,1.74-.1,2.63-.1,.4,0,.79,0,1.18,.02,7.55,.2,12.94,2.29,16.79,5.04,.91,.64,1.74,1.33,2.48,2.04,1.7,1.6,2.99,3.32,3.96,4.94,2.24,3.75,3.47,8.13,3.62,12.9,.71-.36,1.44-.72,2.17-1.09,1.45-.72,2.92-1.46,4.41-2.21,1.35-.67,2.73-1.36,4.11-2.05,21.25-10.5,45.51-21.58,63.16-21.58,2.22,0,4.33,.18,6.44,.57,14.51,2.53,19.95,19.51,18.15,30.27Z"/><path class="d" d="M405.55,150.33c-.85,5.51-5.43,9.54-10.89,9.54-1.74,0-4.36-.44-7.1-2.49-.2-.09-.79-.31-1.6-.41-1.73-.2-3.64-.2-5.86-.2-19.4,0-42.42,8.2-60.91,14.79-3.21,1.14-6.3,2.24-9.25,3.26-1.62,.56-3.2,1.09-4.74,1.6-4.85,1.6-9.29,2.89-13.29,3.71-2.56,2.45-5.3,4.55-8.17,6.28h0c-1.34,.81-2.72,1.54-4.11,2.17-5.01,2.3-10.32,3.51-15.67,3.51-2.24,0-4.38-.17-6.4-.5-1.42-.22-2.79-.53-4.08-.92-4.59-1.36-8.4-3.68-11.29-6.81-.84-.91-1.6-1.88-2.28-2.93-1.56-2.39-2.69-5.13-3.36-8.17-.47-2.12-.71-4.39-.71-6.8,0-.48,.01-.99,.05-1.49h0c.52-8.44,5.3-19.97,13.53-28.97h0c2.14-2.35,4.51-4.51,7.1-6.41,5.65-4.14,12.34-6.99,19.92-7.53,.86-.06,1.74-.1,2.63-.1,.4,0,.79,0,1.18,.02,7.55,.2,12.94,2.29,16.79,5.04,.91,.64,1.74,1.33,2.48,2.04,1.7,1.6,2.99,3.32,3.96,4.94,2.24,3.75,3.47,8.13,3.62,12.9,.71-.36,1.44-.72,2.17-1.09,1.45-.72,2.92-1.46,4.41-2.21,1.35-.67,2.73-1.36,4.11-2.05,21.25-10.5,45.51-21.58,63.16-21.58,2.22,0,4.33,.18,6.44,.57,14.51,2.53,19.95,19.51,18.15,30.27Z"/><path class="e" d="M263.95,188.42c-15.3,0-24.44-8.4-24.44-22.46s15.41-40.83,39.56-40.83c12.49,0,18.46,5.58,21.27,10.26,2.84,4.74,3.72,10.72,2.69,17.14,2.48-1.22,5.13-2.55,7.92-3.94,22.64-11.33,50.82-25.43,70.01-25.43,2,0,3.89,.17,5.79,.51,12.66,2.21,16.56,17.87,15.19,26.06-.58,3.76-3.62,6.48-7.27,6.48-2.48,0-4.31-1.3-5.09-1.91-.56-.35-1.73-.78-3.13-.97-2-.23-4.01-.23-6.34-.23-20.04,0-43.38,8.32-62.15,15-10.85,3.87-20.34,7.25-27.83,8.64-7.5,7.55-16.72,11.68-26.17,11.68Zm17.55-44.37c-1.13,.12-5.41,2.44-5.41,7.92,0,2.35,1.43,4.32,3.37,5.71,3.45-5.77,4.54-11.34,3.63-13.21-.18-.36-1.06-.42-1.6-.42Z"/><path class="e" d="M22.27,237.3l-.7-.19c-6.19-1.65-17.9-7.81-17.9-19.31,0-16.52,37.3-84.92,44.78-98.46l.07-.13,.08-.13c3.82-6.12,7.12-7.19,12.64-7.19,4.23,0,9.95,1.92,12.52,6.15,.22,.36,.41,.72,.57,1.09,5.34-4.1,11.26-7.24,16.84-7.24,7.77,0,12.12,3.45,14.4,6.35,2.78,3.54,4.19,8.31,4.19,14.18,0,10.17-4.47,23.74-11.66,35.39-3.82,6.2-14.02,20.61-26.05,20.61-8.6,0-16.23-3.91-21.43-10.54-11.88,27.28-18.9,46.03-19.49,52.13-.46,4.57-3.5,7.28-8.14,7.28h-.72Zm38.82-77.49c.43,2.44,1.54,5.2,3.47,5.53,1.61-.96,6.05-5.71,11.4-16.04,2.86-5.53,4.69-10.18,5.72-13.54-5.86,4.95-14.8,15.23-20.6,24.05Z"/><path class="d" d="M230.37,68.96c-.12,.96-.42,1.91-.9,2.83-2.31,4.57-6.13,12.75-9.93,21.31-.41,.92-.81,1.85-1.22,2.77-.38,.85-.74,1.71-1.11,2.56-1.04,2.4-2.04,4.76-2.99,7.04-3.44,8.26-6.08,15.3-6.33,17.78-.39,3.89-3.31,6.5-7.26,6.5h-.78l-.75-.2c-3.5-.93-7.18-3.15-9.4-6.38-.66-.96-1.2-2.02-1.55-3.15-.34-1.06-.52-2.17-.52-3.36,0-.85,0-2.42,1.32-6.43,.5-1.54,1.2-3.44,2.17-5.8-5.95-1.18-11.47-5.92-11.47-12.98,0-.31,0-.62,.03-.93,.17-3.83,1.41-8.57,3.57-13.19,4.34-9.25,12.41-18,23.18-18,2.89,0,5.48,.61,7.61,1.78,2.02-1.53,4.15-1.78,6.17-1.78,.36,0,.74,.02,1.13,.06,.57,.06,1.16,.16,1.76,.32,1.69,.42,3.45,1.24,4.83,2.58,.26,.25,.51,.52,.74,.81,.22,.27,.42,.57,.6,.87,.05,.08,.1,.16,.13,.24,.37,.64,.64,1.32,.8,2.02,.22,.89,.27,1.81,.15,2.73Z"/><path class="f" d="M6.56,216.82c0-15.94,44.09-95.8,44.09-95.8,2.66-4.25,4.07-4.6,7.97-4.6s10.27,2.66,7.79,7.44c-1.59,3.01-4.07,8.32-7.08,14.7,8.85-11.33,20.89-22.13,29.22-22.13,30.28,0,1.24,65.52-19.12,65.52-11.33,0-19.12-8.32-21.78-17.88-11.51,25.85-23.73,55.25-24.61,64.46-.18,1.77-.89,2.3-2.66,2.3-5.31-1.42-13.81-6.37-13.81-13.99Zm46.22-59.32c.35,6.2,3.54,12.4,9.56,12.4,9.03,0,29.93-43.56,21.25-43.56-7.44,0-24.61,21.25-30.81,31.17Z"/><path class="d" d="M270.89,82.6c-.09,1.07-.41,2.13-.94,3.12-.24,.45-.53,.88-.85,1.28-.27,.35-.54,.69-.8,1.02-.08,.1-.16,.2-.24,.3-.72,.93-1.43,1.8-2.1,2.62-1.46,1.79-2.8,3.36-4.02,4.72-.69,.77-1.34,1.47-1.95,2.11-.59,.62-1.15,1.18-1.68,1.69-.34,.33-.67,.64-.99,.93-1.85,1.69-3.32,2.73-4.54,3.36-1.56,.82-2.71,.97-3.71,.97-2.51,0-5.18-.85-7.56-2.31-.79-.48-1.54-1.03-2.24-1.65-.02-.01-.04-.03-.06-.04-2.02,1.62-3.99,2.74-5.95,3.37-.44,.15-.87,.27-1.31,.36-.85,.19-1.7,.28-2.56,.28-.49,0-1.03-.04-1.6-.14-2.31-.37-5.16-1.48-7.59-3.29-1.1-.81-2.12-1.77-2.97-2.87-.59-.76-1.1-1.58-1.5-2.47-.61-1.35-.97-2.86-.97-4.51,0-5.24,3.27-13.27,9.75-23.92,.65-1.07,1.34-2.16,2.05-3.29,.16-.25,.32-.5,.48-.76,.1-.17,.21-.32,.32-.48,.19-.26,.39-.51,.6-.74,.99-1.13,2.19-1.96,3.54-2.45,.91-.34,1.88-.51,2.89-.51,2.69,0,7.77,1.48,9.96,5.46,.26,.48,.47,.97,.63,1.48,.48-.78,.92-1.46,1.28-2.04l.44-.69c1.7-2.68,4.39-4.21,7.36-4.21,.67,0,1.48,.09,2.36,.29,1.07,.24,2.24,.64,3.36,1.22,1.68,.87,3.26,2.16,4.24,3.95,.21,.38,.39,.78,.53,1.18,.34,.97,.49,1.98,.44,2.99-.05,1.13-.35,2.24-.9,3.3-.11,.24-.25,.48-.39,.71-.23,.37-.54,.93-.9,1.63l.23-.02c.16-.01,.31-.01,.47-.01,.65,0,1.28,.08,1.88,.24,2.11,.52,3.89,1.93,4.85,3.94,.58,1.22,.81,2.55,.7,3.87Z"/><path class="e" d="M130.83,188.42c-18.3,0-29.23-10-29.23-26.75s18.76-49.77,48.18-49.77c15.41,0,22.54,6.97,25.8,12.82,2.98,5.34,3.93,11.94,2.96,18.99,1.82-1.35,3.87-2.07,5.95-2.07,3.29,0,6.2,1.82,7.61,4.75,1.46,3.05,.97,6.71-1.29,9.6-7.11,9.53-14.25,17.54-28.67,18.83-9.07,8.79-20.11,13.6-31.3,13.6Zm.62-25.07c.22,.63,.62,1.12,1.29,1.46-.45-.47-.88-.96-1.29-1.46Zm21.33-30.53c-1.38,0-8.13,3.08-8.13,11.32,0,4.19,2.8,7.26,6.04,9.13,5.03-7.82,6.94-15.95,5.39-19.14-.21-.43-.64-1.31-3.29-1.31Z"/><path class="e" d="M193.16,188.42c-5.57,0-23.92-6.19-23.92-19.85,0-16.53,37.61-84.64,45.15-98.13l.09-.16,.1-.15c3.33-5.12,6.85-7.11,12.58-7.11,3.8,0,10.51,1.71,13.37,6.43,1.68,2.75,1.74,6.05,.19,9.05l-.22,.44c-16.18,32.05-29.07,59.56-35.75,76.02,3.2-3.41,6.38-6.93,8.58-9.37l.09-.1,.1-.1c.92-.92,3.74-3.74,7.79-3.74,3.33,0,6.26,1.8,7.66,4.71,1.47,3.07,.93,6.79-1.41,9.73-25.2,32.35-31.88,32.35-34.4,32.35Z"/><path class="e" d="M227.78,188.42c-4.71,0-20.2-5.28-20.2-16.95,0-13.47,30.13-68.05,36.17-78.85l.09-.16,.1-.15c2.85-4.39,6.03-6.18,10.97-6.18,2.83,0,8.9,1.18,11.62,5.66,1.54,2.54,1.61,5.57,.19,8.31l-.17,.33c-11.14,22.07-20.35,41.49-26.07,54.78,.96-1.05,1.83-2.02,2.57-2.84l.09-.1,.1-.1c.82-.82,3.31-3.31,7-3.31,3.09,0,5.81,1.68,7.11,4.39,1.36,2.84,.88,6.26-1.26,8.94-20.43,26.23-25.96,26.23-28.32,26.23Z"/><path class="f" d="M244.52,155.09c1.13-1.13,2.12-1.7,3.11-1.7,2.12,0,3.25,2.26,1.55,4.38-9.47,12.15-20.35,24.16-24.02,24.16-3.11,0-14.7-4.1-14.7-11.45,0-12.72,35.47-76.16,35.47-76.16,1.84-2.83,3.25-3.67,6.36-3.67s8.9,2.12,6.92,5.93c-.71,1.41-33.21,65.42-33.21,75.32,0,.28,.14,.42,.42,.42,2.4,0,10.17-8.48,18.09-17.24Z"/><path class="f" d="M276.45,129.65c20.49,0,22.47,17.52,14.55,32.36,19.78-8.34,63.02-34.34,87.33-34.34,1.7,0,3.25,.14,4.8,.42,8.9,1.55,11.73,13.99,10.74,19.78-.14,.99-.85,1.84-1.84,1.84-.56,0-1.13-.28-1.84-.85-1.41-.99-3.53-1.7-5.65-1.98-2.4-.28-4.66-.28-7.07-.28-33.35,0-73.2,21.2-92.7,24.02-6.08,6.64-14.27,11.3-23.46,11.3-16.53,0-18.94-10.74-18.94-16.96,0-12.29,13.99-35.33,34.05-35.33Zm-11.02,42.67c2.54,0,5.09-1.13,7.63-2.97-6.64-2.54-11.59-8.2-12.29-16.96-2.12,4.1-3.53,8.48-3.53,12.43,0,2.68,1.13,7.49,8.2,7.49Zm13.42-34.76c-3.67,0-10.88,4.52-10.88,13.42,0,6.22,4.95,10.88,10.74,12.72,8.05-10.32,11.87-26.14,.14-26.14Z"/><path class="f" d="M214.81,148.29c1.42-1.42,2.66-2.12,3.9-2.12,2.66,0,4.07,2.83,1.95,5.49-11.86,15.23-25.5,30.28-30.1,30.28-3.9,0-18.42-5.14-18.42-14.34,0-15.94,44.45-95.44,44.45-95.44,2.3-3.54,4.07-4.6,7.97-4.6s11.16,2.66,8.68,7.44c-.89,1.77-41.61,81.99-41.61,94.38,0,.35,.18,.53,.53,.53,3.01,0,12.75-10.62,22.67-21.6Z"/><path class="f" d="M147.16,116.42c26.92,0,28.33,24.26,16.65,43.21,3.36-.89,6.37-2.66,8.68-5.14,3.19-3.54,4.25-4.96,5.49-6.2,1.24-1.42,2.66-2.12,3.9-2.12,2.48,0,4.07,2.83,1.95,5.49-7.26,9.74-13.46,16.29-26.74,16.82-7.61,7.97-17.71,13.46-28.86,13.46-20.72,0-23.73-13.46-23.73-21.25,0-15.41,17.53-44.27,42.68-44.27Zm-13.81,53.48c3.19,0,6.55-1.42,9.74-3.72-8.32-3.54-14.7-10.62-15.58-21.43-2.66,5.31-4.43,10.8-4.43,15.76,0,3.36,1.42,9.38,10.27,9.38Zm16.82-43.56c-4.6,0-13.64,5.67-13.64,16.82,0,7.79,6.02,13.63,13.46,15.94,10.09-12.93,14.87-32.76,.18-32.76Z"/><path class="d" d="M128.29,56.38v.07c.02,.88-.08,1.78-.28,2.68-.06,.24-.11,.48-.19,.71h0c-.04,.17-.1,.31-.15,.47-.38,1.21-.85,2.57-1.39,4.08h0c-.46,1.27-.97,2.65-1.53,4.1-.01,.04-.03,.08-.05,.13h0c-.15,.41-.31,.82-.46,1.23-.26,.69-.53,1.41-.81,2.13,0,.01,0,.02-.01,.03-.03,.08-.06,.16-.09,.24-.46,1.2-.93,2.44-1.41,3.7-.18,.5-.38,.99-.56,1.49-.03,.06-.04,.12-.07,.18-1.81,4.83-3.57,9.81-4.61,13.7h0c-.26,.99-.47,1.89-.63,2.71-.08,.49-.13,.92-.17,1.29h0c-.17,1.72,.01,2.31,.06,2.44l.12,.16c.47,.66,.85,1.37,1.13,2.12,.67,1.8,.75,3.77,.23,5.59-.15,.53-.36,1.06-.61,1.55-.26,.5-.57,.97-.91,1.41-1.64,2.1-4.18,3.32-7.05,3.32-2.37,0-4.41-.33-6.16-.86-1.38-.43-2.58-.97-3.6-1.6-1.62-.97-2.84-2.1-3.73-3.15-.54-.64-1.13-1.44-1.65-2.4-1.7,1.48-4.01,2.56-7.28,2.56-3.83,0-7.94-1.91-10.99-5.11-.48-.5-.92-1.02-1.32-1.55-2.61,3.33-5.65,6.52-9.23,8.79-2.86,1.82-6.05,3.05-9.63,3.27-.41,.04-.84,.05-1.27,.05-.9,0-1.76-.05-2.56-.14-.45-.04-.87-.11-1.29-.18-7.49-1.31-10.64-6.3-11.71-8.62-2.7-5.82-1.51-12.93,1.2-16.44,1.6-2.14,4.2-3.45,6.9-3.45s5.23,1.31,6.78,3.42c1.08-.51,2.71-1.7,5.11-4.29,.5-.53,1.02-1.13,1.59-1.79-.26-.08-.52-.18-.78-.28-2-.8-3.83-2.14-5.3-3.93-2.84-3.45-4.01-8.18-3.13-12.66,3.01-14.96,21.3-17.98,30.87-18.53,1.49-.08,2.78-.11,3.76-.11,.56,0,1.11,0,1.64,.01,9.33,.18,15.05,1.89,17.86,5.35,3.13-3.04,6.54-4.35,11.27-4.35,1.67,0,3.12,.24,4.35,.61,2.31,.71,3.89,1.91,4.93,3,.39,.41,.7,.8,.94,1.14,.22,.32,.43,.64,.61,.97,.74,1.35,1.17,2.86,1.25,4.41,0,.1,.01,.21,.01,.32Z"/><path class="d" d="M150.57,94.38c-1.76,2.23-3.33,4.11-4.72,5.71-1.59,1.81-2.97,3.26-4.19,4.4-.99,.93-1.87,1.66-2.66,2.23-2.59,1.88-4.32,2.14-6.05,2.14-2.21,0-4.86-.81-7.2-2.14-.54,.32-1.07,.62-1.62,.86-1.81,.85-3.61,1.28-5.39,1.28-.94,0-1.89-.1-2.84-.29-1.14-.23-2.27-.59-3.34-1.09-2.16-.99-4.1-2.49-5.52-4.42-1.53-2.06-2.47-4.61-2.47-7.57,0-4.45,1.7-10.13,4.75-15.15,2.82-4.64,6.79-8.73,11.65-10.78,.2-.09,.4-.17,.6-.25-.04-.44-.04-.87-.01-1.3,.08-1.52,.55-3,1.39-4.33,.14-.22,.31-.48,.5-.77,1.14-1.67,3.15-4.33,4.84-6.53,1.23-1.58,2.3-2.94,2.75-3.5,.85-1.06,1.91-1.89,3.1-2.47,1.23-.6,2.62-.92,4.05-.92,5.06,0,9.67,3.94,11.44,7.64,1.7,3.57,1.32,7.45-1.04,10.37-.29,.36-.71,.8-1.2,1.3-.71,.72-1.6,1.57-2.54,2.44,.71,.62,1.34,1.32,1.84,2.07,.15,.23,.29,.46,.43,.7,.31,.57,.56,1.15,.75,1.76,.49,1.57,.55,3.22,.19,4.82,.94,.52,1.79,1.22,2.49,2.05,.49,.57,.91,1.21,1.25,1.91,.37,.78,.63,1.59,.77,2.41,.43,2.58-.25,5.27-1.99,7.43Z"/><path class="d" d="M147.75,108.87c-6.89,0-12.6-3.39-15.27-9.07-2.29-4.87-1.68-10.54,1.56-14.46l1.92-2.24c1-1.17,1.89-2.21,2.68-3.13,1.61-5.22,6.35-11.2,13.72-13.45,1.37-.47,2.5-.47,2.93-.47,2.14,0,4.03,.69,5.6,1.82,1.32-2,3.41-3.4,5.83-3.84l.24-.04c.73-.1,1.56-.22,2.53-.22,8.99,0,13.84,7.79,13.84,15.12,0,11.82-13.07,25.74-25.69,27.57-2.84,1.61-6.16,2.42-9.89,2.42Z"/><path class="d" d="M297.47,87c-5.59,7.17-11.71,13.94-18.89,16.57-1.2,.45-2.44,.77-3.7,.96-.86,.13-1.74,.2-2.63,.2-1.27,0-2.49-.08-3.64-.25-1.3-.18-2.52-.46-3.67-.85-.23-.07-.46-.15-.68-.24-2.38-.89-4.39-2.22-5.97-3.93-.11-.12-.23-.24-.34-.37-.41-.48-.79-.98-1.13-1.51-1.01-1.54-1.75-3.3-2.17-5.26-.11-.46-.19-.93-.26-1.42-.13-.95-.2-1.95-.2-2.98,0-.31,0-.62,.03-.93,.02-.28,.04-.56,.07-.85,.11-1.18,.35-2.41,.68-3.68,1.07-4.04,3.17-8.43,6.02-12.32,.37-.51,.75-1,1.13-1.48h0c.16-.2,.31-.39,.47-.57,.64-.76,1.28-1.46,1.94-2.12,.1-.1,.19-.19,.29-.28,1.73-1.7,3.54-3.08,5.41-4.1,2.68-1.48,5.45-2.26,8.22-2.26,10.12,0,14.72,6.98,14.72,13.46,0,.63-.03,1.25-.1,1.87,2.4,.38,4.46,1.87,5.52,4.08,1.28,2.66,.86,5.82-1.09,8.27Z"/><path class="e" d="M249.05,102.36c-3.4,0-7.27-1.96-9.74-4.87-3.52,3.27-6.8,4.87-9.94,4.87-3.67,0-12.26-3.71-12.26-10.9,0-6.75,6.47-18.23,11.9-26.68,1.26-1.98,3.16-3.08,5.35-3.08,2.31,0,6.27,1.31,7.88,4.23,1.01,1.83,.91,3.93-.25,5.77-1.92,3.07-5.18,9.71-6.89,14.4,1.91-2.21,4.54-5.85,7.76-11.6,2.03-3.74,4.12-7.03,5.37-8.99l.44-.69c1.28-2.01,3.18-3.11,5.36-3.11,2.31,0,6.27,1.31,7.88,4.23,1.01,1.83,.91,3.93-.25,5.77-.95,1.52-2.82,5.41-4.57,9.42,.65-.71,1.24-1.37,1.74-1.92l.06-.07,.06-.06c.53-.53,2.13-2.13,4.51-2.13,1.99,0,3.75,1.08,4.58,2.83,.88,1.83,.57,4.04-.81,5.76-13.12,16.84-16.67,16.84-18.19,16.84Z"/><path class="e" d="M108.86,108.73c-6,0-9.33-2.44-11.07-4.49-1.33-1.57-2.75-4.11-2.81-7.85-1.52,3.26-3.29,6.88-8.54,6.88-2.98,0-6.24-1.54-8.7-4.13-1.62-1.69-2.67-3.59-3.07-5.49-5.8,8.48-12.28,15.07-20.67,15.07s-11.47-4.45-12.7-7.11c-2.1-4.53-1.25-10.47,.83-13.17,1.03-1.37,2.68-2.22,4.39-2.22,2.26,0,4.26,1.44,4.98,3.59l.04,.12c.11,.03,.27,.06,.5,.06,4.22,0,9.65-6.21,14.74-13.04-.9,.56-1.97,.87-3.09,.87-2.74,0-5.4-1.33-7.3-3.64-2.25-2.73-3.17-6.48-2.47-10.04,3.01-14.93,24.88-16.08,31.52-16.08,9.32,0,15.11,1.5,17.24,4.45,.57,.77,1.18,2,1.24,3.74,1.03-1.32,1.98-2.45,2.8-3.3,2.68-2.79,5.34-3.88,9.48-3.88,4.54,0,6.74,2.14,7.64,3.42,1.36,1.92,1.66,4.38,.85,6.79-.93,2.99-2.45,6.97-4.21,11.58-2.89,7.56-6.47,16.97-7.54,22.62-.32,2-.6,4.78,.48,6.16l.12,.16c1.24,1.74,1.42,4.06,.47,5.91-.97,1.88-2.89,3.01-5.14,3.01Zm-39.94-38.66c.53,1.12,.64,2.34,.36,3.49,.81-1.13,1.6-2.24,2.36-3.33,1.57-2.22,3.11-4.4,4.64-6.47-3.92,1.33-6.9,3.47-7.36,6.26v.05Z"/><path class="e" d="M132.94,105.7c-1.94,0-4.86-.96-7.24-2.79-2.43,1.87-4.73,2.79-6.96,2.79-5.3,0-11.01-3.9-11.01-10.2,0-7.94,6.66-22.07,17.71-23.99-1.04-2.03-.97-4.3,.19-6.14,1.37-2.2,6.43-8.72,7.87-10.5,1.14-1.43,2.82-2.23,4.7-2.23,3.63,0,7.21,2.97,8.58,5.84,1.17,2.45,.93,5.07-.64,7.02-.98,1.19-4.02,4-6.66,6.29,1.83,.6,3.8,1.78,4.87,3.73,1.11,2.02,1.02,4.42-.25,6.43-.11,.17-.23,.39-.37,.65,2.25,.03,4.24,1.29,5.22,3.31,1.01,2.1,.69,4.59-.84,6.49-10.51,13.29-13.19,13.29-15.15,13.29Z"/><path class="e" d="M147.75,105.7c-5.63,0-10.27-2.71-12.4-7.25-1.77-3.76-1.32-8.12,1.14-11.1l1.88-2.2c1.19-1.39,2.23-2.6,3.13-3.65,1.21-4.76,5.59-10.1,11.85-11.98,.89-.32,1.63-.32,1.94-.32,3.95,0,6.79,3.74,7.45,7.25,.65,3.49-1.19,5.88-3.3,6.7-.4,.16-1.01,.59-1.48,1.01,.1,.11,.19,.22,.27,.31,.51,.58,1.1,1.25,1.67,2.03,.93-1.27,1.83-2.8,2.57-4.49,1.45-3.34,1.47-5.58,1.25-6.15l-.11-.13-.15-.23c-.97-1.45-1.11-3.32-.4-5.01,.75-1.76,2.33-3.02,4.24-3.37l.18-.03c.6-.09,1.28-.18,2.02-.18,6.93,0,10.67,6.16,10.67,11.95,0,10.51-12.6,23.32-23.57,24.52-1.93,1.21-4.81,2.31-8.84,2.31Z"/><path class="d" d="M137.89,89.53c2.42-2.83,4.31-5.05,5.79-6.73,.27-3.03,3.5-8.08,8.95-9.63,.13-.07,.27-.07,.4-.07,1.95,0,3.63,4.31,2.42,4.78-1.62,.61-5.05,3.1-5.05,5.59,0,2.36,4.91,4.91,4.91,8.82,0,.47-.07,1.01-.2,1.55,6.8-2.22,14.07-17.03,10.03-21.81-.13-.2,0-.94,.74-1.08,.47-.07,.94-.13,1.35-.13,4.11,0,5.92,4.04,5.92,7.2,0,8.01-11.58,19.86-20.46,19.86-1.55,1.28-3.9,2.22-7.2,2.22-7.81,0-10.5-7.07-7.61-10.57Zm7,5.05c2.83,0,4.31-1.48,4.31-2.83,0-1.88-3.43-2.89-4.91-5.79-.87,1.14-1.95,2.49-3.1,3.9-1.28,1.62,.2,4.71,3.7,4.71Z"/><path class="e" d="M200.17,127.38l-.45-.12c-4.68-1.25-9.71-5.1-9.71-10.6,0-1.06,0-3.84,4.59-14.33-.2,.01-.39,.02-.58,.02-5.77,0-11.99-4.17-11.99-10.9,0-10.22,9.51-29.76,24.41-29.76,3.25,0,5.92,.84,7.86,2.42,1.72-1.99,3.51-2.42,5.93-2.42s5.57,1.08,7.04,3.5c1.01,1.67,1.05,3.67,.11,5.5-5.14,10.17-21.14,45.5-21.83,52.31-.27,2.69-2.15,4.37-4.9,4.37h-.47Zm6.26-52.85c-.71,.48-1.49,1.21-2.28,2.15-2.65,3.16-4.54,7.45-5.46,10.53,.59-.55,1.25-1.25,1.98-2.13,3.12-3.79,5.09-8.07,5.76-10.55Z"/><path class="d" d="M183.9,90.82c0-9.25,8.61-26.2,20.85-26.2,5.35,0,7.34,2.63,7.8,5.89,1.18-2.18,1.9-3.54,1.9-3.54,1.36-2.18,2.09-2.36,4.08-2.36s5.26,1.36,3.99,3.81c-4.17,8.25-21.4,45.61-22.21,53.59-.09,.91-.45,1.18-1.36,1.18-2.72-.73-7.07-3.26-7.07-7.16,0-3.54,4.26-13.33,9.07-23.12-2.99,2.99-6.17,5.26-8.61,5.26-3.99,0-8.43-2.81-8.43-7.34Zm10.15,1.18c7.43,0,19.4-22.31,12.33-22.31-8.52,0-16.68,22.31-12.33,22.31Z"/><path class="d" d="M110.23,94.65c0-6.87,6.39-19.45,15.48-19.45,3.37,0,4.91,1.41,5.52,3.3,.61-.94,1.08-1.68,1.41-2.22,.47-.74,1.08-1.08,1.75-1.08,1.41,0,4.71,1.35,3.43,3.37-1.68,2.69-8.14,16.96-6.53,16.96,1.14,0,4.85-4.04,8.62-8.21,.54-.54,1.01-.81,1.48-.81,.94,0,1.55,1.08,.74,2.09-4.58,5.79-9.69,11.51-11.44,11.51-1.48,0-6.39-1.88-6.46-5.38-2.62,3.03-5.52,5.38-7.74,5.38-2.96,0-6.26-2.09-6.26-5.45Zm7.54,.88c5.52,0,14.4-16.56,9.15-16.56-6.33,0-12.38,16.56-9.15,16.56Zm17.16-38.5c.27-.34,.61-.47,1.01-.47,2.09,0,5.65,3.37,4.24,5.12-1.28,1.55-8.21,7.67-9.56,8.55-.13,.07-.34,.13-.54,.13-1.28,0-3.57-1.95-2.69-3.3,1.08-1.75,5.79-7.87,7.54-10.03Z"/><path class="d" d="M43.67,90.48c.13-.2,.4-.34,.61-.34s.4,.13,.47,.34c.07,1.28,1.75,3.43,5.05,3.43,12.59,0,24.7-27.12,35.81-37.22-.54,0-1.14-.07-1.75-.07-8.55,0-20.46,3.23-21.87,11.78-.2,1.08-.07,1.95,.4,2.89,.13,.27-.13,.94-.94,.94-3.16,0-5.92-3.9-5.12-8.01,1.88-9.36,15.88-12.25,26.86-12.25,6.93,0,12.59,1.14,13.39,2.49,.27,.34,.34,.81,.34,1.21-.13,3.37-9.56,25.91-10.7,31.84,4.78-7.94,16.49-26.72,21.67-32.11,1.68-1.75,3.03-2.42,6.06-2.42,3.3,0,4.78,1.68,3.97,3.97-2.49,8.01-10.16,25.44-11.91,34.86-.54,3.37-.74,7.13,1.41,9.89,.34,.47,.34,1.41-.81,1.41-6.53,0-9.96-3.77-8.95-9.89,1.55-10.5,10.43-26.99,12.32-30.62,.34-.74,.07-1.48-.54-1.48-.67,0-1.08,.27-1.75,1.14-2.96,3.97-16.49,25.58-19.18,31.1-1.75,3.77-2.36,4.31-4.31,4.31-3.3,0-7.34-3.84-7.2-6.73,.2-5.79,10.16-23.76,11.98-28.54,.2-.54,.13-1.28-.61-1.28-1.28,0-2.42,1.41-4.37,4.11-10.1,14.07-19.25,37.89-32.24,37.89-11.37,0-9.56-10.9-8.08-12.65Z"/><path class="e" d="M272.26,102.36c-9.83,0-15.71-5.4-15.71-14.44,0-4.74,2.43-11.02,6.34-16.39,4.62-6.34,10.14-9.84,15.53-9.84,8.53,0,12.35,5.57,12.35,11.08,0,1.59-.25,3.08-.72,4.46,.53-.19,1.13-.31,1.79-.31,1.99,0,3.75,1.08,4.58,2.83,.88,1.83,.57,4.04-.81,5.76-6.8,8.73-14.36,16.84-23.36,16.84Zm.99-15.52c-.04,.35-.07,.69-.07,1,0,.75,0,1.25,1.7,1.25s3.7-1.32,5.82-3.19c-1.95,.62-4.12,.96-6.45,.96-.34,0-.68,0-1-.02Z"/><path class="d" d="M276.74,64.62c6.26,0,8.8,3.72,8.8,7.53,0,7.25-6.44,10.52-12.97,10.52-1.27,0-2.54-.09-3.72-.36-.54,1.63-.91,3.35-.91,4.9,0,1.72,.73,4.81,5.26,4.81,4.9,0,9.88-5.44,14.96-11.06,.73-.73,1.36-1.09,1.99-1.09,1.36,0,2.09,1.45,1,2.81-6.07,7.8-13.06,15.5-20.58,15.5-10.61,0-12.15-6.89-12.15-10.88,0-7.89,8.98-22.67,18.32-22.67Zm-4.35,13.78c4.44,0,8.98-1.81,8.98-6.53,0-1.18-.54-2.18-1.9-2.18-2.54,0-6.35,3.9-8.89,8.61,.63,.09,1.18,.09,1.81,.09Z"/><path class="d" d="M230.32,66.07c.63-1,1.45-1.45,2.36-1.45,1.9,0,6.35,1.81,4.62,4.53-2.27,3.63-12.24,22.85-7.07,22.85,3.35,0,8.98-7.34,14.05-16.41,2.27-4.17,4.62-7.8,5.71-9.52,.63-1,1.45-1.45,2.36-1.45,1.9,0,6.35,1.81,4.62,4.53-2.27,3.63-10.97,22.85-8.8,22.85,1.54,0,6.53-5.44,11.61-11.06,.73-.73,1.36-1.09,1.99-1.09,1.36,0,2.09,1.45,1,2.81-6.07,7.8-13.06,15.5-15.41,15.5-3.72,0-8.7-3.72-8.7-7.62-3.63,4.35-7.53,7.62-10.97,7.62-1.99,0-8.7-2.63-8.7-7.34,0-6.89,8.89-20.94,11.33-24.75Z"/><path class="f" d="M183.51,209.56c-.31,2.64-2.01,4.77-4.27,5.78h0c-3.68,1.47-27.64,10.39-60.01-9.71,.71,.27,36.74,13.82,51.76-1.86,4.39-5.1,13.57-.99,12.51,5.79Z"/><path class="d" d="M168.71,199.23c-1.94,9.77-29.66,16.39-64.27-3.94,.71,.27,36.71,13.82,51.76-1.86,4.4-5.09,13.57-.99,12.51,5.8Z"/></g></g></svg>