<svg xmlns="http://www.w3.org/2000/svg" viewBox="0 0 409.62 162.15"><defs><style>.cls-1{fill:#e0052d;}</style></defs><g id="Capa_2" data-name="Capa 2"><g id="Capa_1-2" data-name="Capa 1"><path d="M86.72,83.16H69.23l-.11-47.95L49.79,75.6H37L17.6,35.21V83.16H0V7.45H21.49L43.42,51.73,65.23,7.45H86.72Z"/><path d="M127.55,83.21q-10.26,0-17.12-3.81A25.13,25.13,0,0,1,100,68.71a32.14,32.14,0,0,1-3.29-14.5q0-9.69,4-16.27a25.77,25.77,0,0,1,11-9.93,35.15,35.15,0,0,1,15.45-3.33q10.47,0,16.95,3.91a23.83,23.83,0,0,1,9.67,11,38.69,38.69,0,0,1,3,15.42l-.11,3.44H116q3.45,10.26,13.29,10.26,7.44,0,13.71-5.94l10,10Q143.74,83.22,127.55,83.21Zm10.47-35a9.31,9.31,0,0,0-3-7.39,11.36,11.36,0,0,0-7.78-2.65q-5.3,0-8.1,2.8a13,13,0,0,0-3.56,7.24Z"/><path d="M226.26,83.16H207.14V52.61q0-5.49-3-8a10.54,10.54,0,0,0-7-2.48q-10.05,0-11.45,11.07V83.16H166.54V24.73h19.22v10q6.69-10,19.33-10a24.26,24.26,0,0,1,10.18,2.21,18.79,18.79,0,0,1,8,7.23q3,4.86,3,12.65Z"/><path d="M258.44,83.21q-7.19,0-11.77-3a18.53,18.53,0,0,1-6.83-8,26.54,26.54,0,0,1-2.24-11V24.73h19.22V56.16q0,9.72,9.4,10.58,5.83-.64,8.37-4.37a15.26,15.26,0,0,0,2.54-8.8V24.73h19.22V83.16H277.13v-9.5Q271.19,83.22,258.44,83.21Zm12.85-64.74-13.17-1.08L271.08,0,287,6.05Z"/><path class="cls-1" d="M203.68,62.05A29.82,29.82,0,0,1,214,71.6a23.71,23.71,0,0,1,4,13.53q0,7.49-9.4,17.2a85.59,85.59,0,0,1-22.86,16.53q-13.45,6.84-23.38,6.84t-14.33-8.23q-25.29,33.94-28.52,41.16a11.39,11.39,0,0,1,.15,2.13c0,.93-.54,1.39-1.62,1.39s-2.47-.9-4.19-2.72-2.57-4.38-2.57-7.71a14.55,14.55,0,0,1,.15-2.35q1.32-9.7,27-38.23t37-34.69A9.09,9.09,0,0,1,179,75.28a4.79,4.79,0,0,1,2.43.73,2.1,2.1,0,0,1,1.25,1.77,2.18,2.18,0,0,1-.59,1.61q-11,11.48-13.23,14l-17.49,20.28a1.58,1.58,0,0,0-.3.89c0,.68.44,1,1.33,1q5.87,0,15.94-3.38a141.72,141.72,0,0,0,19.92-8.45,73.1,73.1,0,0,0,17-11.91Q212.51,85,212.5,79.1c0-3.23-3.09-5.64-9.26-7.2a80.7,80.7,0,0,0-19.92-2.36,97.35,97.35,0,0,0-23,3A110.29,110.29,0,0,0,138.78,80a147.79,147.79,0,0,0-16.54,9.19,77.16,77.16,0,0,0-11.1,8.38q-3.75,3.6-3.75,4.7c0,.74.35,1.1,1,1.1a28.48,28.48,0,0,0,5.59-1.47A150.77,150.77,0,0,0,142.82,88.8a3.75,3.75,0,0,1,1.4-.59.33.33,0,0,1,.36.37,11.37,11.37,0,0,1-1.83,2.79,76.79,76.79,0,0,1-5.08,5.88,80.5,80.5,0,0,1-7,6.69,39.36,39.36,0,0,1-8.6,5.51,21.46,21.46,0,0,1-9.26,2.28,13.76,13.76,0,0,1-8.82-3.6,12.12,12.12,0,0,1-4.34-9.85q0-6.24,6.18-13.59a74.15,74.15,0,0,1,16.24-14q10.06-6.61,25.06-11.17A100.32,100.32,0,0,1,176.34,55,56.8,56.8,0,0,1,203.68,62.05Z"/><path class="cls-1" d="M228.52,132.61q4.11,0,12.86-5a142.8,142.8,0,0,0,15.36-10l6.62-5.14a3.07,3.07,0,0,1,1.32,2.5,3.47,3.47,0,0,1-1.32,2.64q-24.26,22.5-36.75,22.49a17.11,17.11,0,0,1-2.65-.29q-16.61,19.26-28.52,19.26-7.94-1.19-10-5.59a11.85,11.85,0,0,1-1.18-5.59q0-9.69,11.17-23.15A65.85,65.85,0,0,1,223.52,105a3.24,3.24,0,0,1,2.21.66,2.63,2.63,0,0,0,1.32.74,2.45,2.45,0,0,0,1.54-.59,4.9,4.9,0,0,1,2.58-.74,4.62,4.62,0,0,1,3.38,1.84,5.89,5.89,0,0,1,2.35,4.71Q236.9,119.82,228.52,132.61Zm-32.05,17q4.71,0,11.62-6.17t7.2-8.53a17.3,17.3,0,0,1-3.75-5.37,29,29,0,0,0-2.13-3.89,49.86,49.86,0,0,0-8.09,9.85q-5.58,9.4-5.58,12.93C195.74,149.27,196,149.66,196.47,149.66Zm31.76-36c-1,0-3,1.52-6.11,4.56s-4.63,5.15-4.63,6.32a4.6,4.6,0,0,0,.89,1.77c.58.88,1,1.32,1.32,1.32q2.49,0,5.66-6c2.1-4,3.16-6.34,3.16-7S228.42,113.64,228.23,113.64Z"/><path class="cls-1" d="M256,146.42q4.85,0,19.18-8.67t26.09-17.34l11.91-8.68a3.08,3.08,0,0,1,1.32,2.5A3.81,3.81,0,0,1,313,117c-1,.88-2.37,2.15-4.19,3.82s-5.27,4.65-10.36,9-9.85,8.24-14.26,11.76q-17.34,14-25.58,16.47a20.22,20.22,0,0,1-5.44.73,17.21,17.21,0,0,1-4.41-.44,10.37,10.37,0,0,1-3.52-1.91q-3.83-3.22-3.83-14.41,0-3.07,2.65-9.4a90.52,90.52,0,0,1,8.75-15.29A163.18,163.18,0,0,1,267.1,99.38a130.59,130.59,0,0,1,20.73-17.93A123.43,123.43,0,0,1,314.66,66.9a12.7,12.7,0,0,1,4-.74,4.41,4.41,0,0,1,3.23,1.55,9.16,9.16,0,0,1,2.06,3.16l.74,1.47q0,3.38-10.44,14.84a186.22,186.22,0,0,1-24.77,22.72q-14,10.8-26.09,18.44-9.85,6.48-9.85,13.53C253.51,144.91,254.34,146.42,256,146.42ZM269.24,116q3.67,0,22.27-18.08T310.1,77.78l-.14-.3-2.5,1.18q-7.65,5-20.36,17t-17.57,18.82a2.18,2.18,0,0,0-.59,1.1C268.94,115.87,269,116,269.24,116Z"/><path class="cls-1" d="M304.37,146.42q4.85,0,19.18-8.67t26.09-17.34l11.91-8.68a3.08,3.08,0,0,1,1.32,2.5,3.83,3.83,0,0,1-1.46,2.8c-1,.88-2.38,2.15-4.19,3.82s-5.27,4.65-10.37,9-9.85,8.24-14.26,11.76Q315.25,155.55,307,158a20.27,20.27,0,0,1-5.44.73,17.11,17.11,0,0,1-4.41-.44,10.41,10.41,0,0,1-3.53-1.91q-3.83-3.22-3.82-14.41,0-3.07,2.64-9.4a91.22,91.22,0,0,1,8.75-15.29,162.13,162.13,0,0,1,14.26-17.94,130.93,130.93,0,0,1,20.72-17.93A123.66,123.66,0,0,1,363,66.9a12.7,12.7,0,0,1,4-.74,4.39,4.39,0,0,1,3.23,1.55,9.16,9.16,0,0,1,2.06,3.16l.74,1.47q0,3.38-10.44,14.84a185.6,185.6,0,0,1-24.77,22.72q-14,10.8-26.09,18.44-9.86,6.48-9.85,13.53C301.87,144.91,302.7,146.42,304.37,146.42ZM317.6,116q3.67,0,22.27-18.08t18.59-20.14l-.14-.3-2.5,1.18q-7.65,5-20.36,17t-17.57,18.82a2.18,2.18,0,0,0-.59,1.1C317.3,115.87,317.4,116,317.6,116Z"/><path class="cls-1" d="M373.46,132.61q4.11,0,12.86-5a142.8,142.8,0,0,0,15.36-10l6.62-5.14a3.07,3.07,0,0,1,1.32,2.5,3.47,3.47,0,0,1-1.32,2.64Q384,140.11,371.55,140.1a17.11,17.11,0,0,1-2.65-.29q-16.61,19.26-28.52,19.26-7.94-1.19-10-5.59a11.73,11.73,0,0,1-1.18-5.59q0-9.69,11.17-23.15A65.85,65.85,0,0,1,368.46,105a3.24,3.24,0,0,1,2.21.66,2.59,2.59,0,0,0,1.32.74,2.45,2.45,0,0,0,1.54-.59,4.86,4.86,0,0,1,2.57-.74,4.62,4.62,0,0,1,3.39,1.84,5.89,5.89,0,0,1,2.35,4.71Q381.84,119.82,373.46,132.61Zm-32,17q4.71,0,11.61-6.17t7.21-8.53a17.3,17.3,0,0,1-3.75-5.37,30.46,30.46,0,0,0-2.13-3.89,49.51,49.51,0,0,0-8.09,9.85q-5.58,9.4-5.58,12.93C340.68,149.27,340.92,149.66,341.41,149.66Zm31.75-36q-1.47,0-6.1,4.56c-3.08,3-4.63,5.15-4.63,6.32a4.6,4.6,0,0,0,.89,1.77q.87,1.32,1.32,1.32,2.49,0,5.66-6c2.1-4,3.16-6.34,3.16-7S373.36,113.64,373.16,113.64Z"/></g></g></svg>