<svg xmlns="http://www.w3.org/2000/svg" viewBox="0 0 598.81 162.15"><defs><style>.cls-1{fill:#e0052d;}</style></defs><g id="Capa_2" data-name="Capa 2"><g id="Capa_1-2" data-name="Capa 1"><path d="M86.72,83.16H69.23l-.11-47.95L49.79,75.6H37L17.6,35.21V83.16H0V7.45H21.49L43.42,51.73,65.23,7.45H86.72Z"/><path d="M127.55,83.21q-10.26,0-17.12-3.81A25.13,25.13,0,0,1,100,68.71a32.14,32.14,0,0,1-3.29-14.5q0-9.69,4-16.27a25.77,25.77,0,0,1,11-9.93,35.15,35.15,0,0,1,15.45-3.33q10.47,0,16.95,3.91a23.83,23.83,0,0,1,9.67,11,38.69,38.69,0,0,1,3,15.42l-.11,3.44H116q3.45,10.26,13.29,10.26,7.44,0,13.71-5.94l10,10Q143.74,83.22,127.55,83.21Zm10.47-35a9.31,9.31,0,0,0-3-7.39,11.36,11.36,0,0,0-7.78-2.65q-5.3,0-8.1,2.8a13,13,0,0,0-3.56,7.24Z"/><path d="M226.26,83.16H207.14V52.61q0-5.49-3-8a10.54,10.54,0,0,0-7-2.48q-10.05,0-11.45,11.07V83.16H166.54V24.73h19.22v10q6.69-10,19.33-10a24.26,24.26,0,0,1,10.18,2.21,18.79,18.79,0,0,1,8,7.23q3,4.86,3,12.65Z"/><path d="M258.44,83.21q-7.19,0-11.77-3a18.53,18.53,0,0,1-6.83-8,26.54,26.54,0,0,1-2.24-11V24.73h19.22V56.16q0,9.72,9.4,10.58,5.83-.64,8.37-4.37a15.26,15.26,0,0,0,2.54-8.8V24.73h19.22V83.16H277.13v-9.5Q271.19,83.22,258.44,83.21Zm12.85-64.74-13.17-1.08L271.08,0,287,6.05Z"/><path class="cls-1" d="M203.68,62.05A29.82,29.82,0,0,1,214,71.6a23.71,23.71,0,0,1,4,13.53q0,7.49-9.4,17.2a85.59,85.59,0,0,1-22.86,16.53q-13.45,6.84-23.38,6.84t-14.33-8.23q-25.29,33.94-28.52,41.16a11.39,11.39,0,0,1,.15,2.13c0,.93-.54,1.39-1.62,1.39s-2.47-.9-4.19-2.72-2.57-4.38-2.57-7.71a14.55,14.55,0,0,1,.15-2.35q1.32-9.7,27-38.23t37-34.69A9.09,9.09,0,0,1,179,75.28a4.79,4.79,0,0,1,2.43.73,2.1,2.1,0,0,1,1.25,1.77,2.18,2.18,0,0,1-.59,1.61q-11,11.48-13.23,14l-17.49,20.28a1.58,1.58,0,0,0-.3.89c0,.68.44,1,1.33,1q5.87,0,15.94-3.38a141.72,141.72,0,0,0,19.92-8.45,73.1,73.1,0,0,0,17-11.91Q212.51,85,212.5,79.1q0-4.86-9.26-7.2a80.7,80.7,0,0,0-19.92-2.36,97.35,97.35,0,0,0-23,3A110.29,110.29,0,0,0,138.78,80a146.21,146.21,0,0,0-16.54,9.19,77.16,77.16,0,0,0-11.1,8.38q-3.75,3.6-3.75,4.7c0,.74.35,1.1,1,1.1a28.48,28.48,0,0,0,5.59-1.47A150.77,150.77,0,0,0,142.82,88.8a3.75,3.75,0,0,1,1.4-.59.33.33,0,0,1,.36.37,11.37,11.37,0,0,1-1.83,2.79,76.79,76.79,0,0,1-5.08,5.88,80.5,80.5,0,0,1-7,6.69,39.36,39.36,0,0,1-8.6,5.51,21.46,21.46,0,0,1-9.26,2.28,13.76,13.76,0,0,1-8.82-3.6,12.12,12.12,0,0,1-4.34-9.85q0-6.24,6.18-13.59a74.15,74.15,0,0,1,16.24-14q10.06-6.61,25.06-11.17A100.32,100.32,0,0,1,176.34,55,56.8,56.8,0,0,1,203.68,62.05Z"/><path class="cls-1" d="M202.35,158.77Q191,158.77,191,145q0-8.69,7.57-18.45a65.35,65.35,0,0,1,17.87-16q10.28-6.24,18.22-6.24a9.43,9.43,0,0,1,6.54,2.79q3,2.79,3,5.44,0,4.84-6.91,11a66.4,66.4,0,0,1-14.48,9.85q-7.58,3.75-10,3.75a3.85,3.85,0,0,1-3.6-2.21,2.65,2.65,0,0,0-1.61-.44q-1,0-3.39,3.9c-1.56,2.59-2.35,4.7-2.35,6.32s.59,2.62,1.77,3q11.16,0,24.25-6.54t36.16-23c1.08-.78,2.72-2,4.93-3.52s3.5-2.5,3.89-2.8a3.07,3.07,0,0,1,1.33,2.5,3.48,3.48,0,0,1-1.33,2.65,208.4,208.4,0,0,1-19,16.46,189.51,189.51,0,0,1-26.83,17.27Q211.9,158.77,202.35,158.77Zm31.31-47q-3.82,0-12.93,7.87t-9.12,9.63c0,.19.15.29.45.29q3.23,0,12.86-7.2t9.63-9.85C234.55,112,234.25,111.73,233.66,111.73Z"/><path class="cls-1" d="M262.11,145.4q5.07,0,9.41-6.25a41.82,41.82,0,0,0,6.1-12.64,41,41,0,0,0,1.76-10.22c0-.68-.51-1-1.54-1a6.18,6.18,0,0,0-3.6,1.62L255,131.72a9.28,9.28,0,0,1-4.71,1.18c-1.76,0-2.64-.64-2.64-1.91a2.88,2.88,0,0,1,.37-1.76,9.31,9.31,0,0,1,2.13-1.47q10.88-7.5,29.69-24.41,2.21-2.94,4-2.94a26.16,26.16,0,0,1,5.88,1.11c2.74.73,4.12,1.59,4.12,2.57a73.12,73.12,0,0,1-1.62,16,59.78,59.78,0,0,1-3.31,11,33.09,33.09,0,0,0-1.69,4.05.26.26,0,0,0,.3.29,3.69,3.69,0,0,0,1.17-.44q11-5.58,28.08-18.23l3.53-2.65a3.1,3.1,0,0,1,1.32,2.5,3.49,3.49,0,0,1-1.32,2.65q-.3,0-7.57,6.17t-16.17,13.45a154.76,154.76,0,0,1-19,13.31q-10.14,6-15.73,6-13.81,0-13.82-16.61a3.37,3.37,0,0,1,1.1-2.42,3.88,3.88,0,0,1,2.87-1.1,5.66,5.66,0,0,0,.81,2.27,13.89,13.89,0,0,0,1.69,2.58C256.15,144.56,258.73,145.4,262.11,145.4Z"/><path class="cls-1" d="M357.58,110.7q-.13,5.3-6.54,10.44a24,24,0,0,1-15.51,5.15q-3.82,0-3.82-2.21,0-.89,1.32-1.32,8.84-5.15,11.18-8.38a3,3,0,0,0,.29-1.32.66.66,0,0,0-.74-.74Q331.27,114.09,320,126t-11.32,18.52c0,2.06.79,3.09,2.35,3.09q10.89,0,22.94-6.32t35.86-23.23c1.08-.78,2.72-2,4.93-3.52s3.5-2.5,3.89-2.8a3.07,3.07,0,0,1,1.33,2.5,3.48,3.48,0,0,1-1.33,2.65,208.4,208.4,0,0,1-19,16.46,189.51,189.51,0,0,1-26.83,17.27q-15.14,8.16-24.7,8.16-11.31,0-11.31-12.05,0-8.39,5.58-16.39A51.59,51.59,0,0,1,316,116.88a81.57,81.57,0,0,1,16.91-8.75q8.82-3.3,14.18-3.31c3.58,0,6.15.5,7.72,1.47s2.4,2,2.5,2.94Z"/><path class="cls-1" d="M376.84,150l1.18-9.41c0-.29-.08-.44-.22-.44s-.42.2-.81.59c-1.28,1.38-2.89,3.07-4.85,5.07a80.22,80.22,0,0,1-10.07,8.09q-7.14,5.07-11.54,5.07a17.63,17.63,0,0,1-1.84-.51,8.1,8.1,0,0,1-2.87-2.43,8.8,8.8,0,0,1-1.76-5.88q0-3.82,5.81-11.69A114.44,114.44,0,0,1,363.76,123a92.91,92.91,0,0,1,18-13.16q9.92-5.58,17.27-5.58c1.86.09,3.33,1.42,4.41,4a4.06,4.06,0,0,1,2.64-1.47c.79,0,1.72.58,2.8,1.76a3.62,3.62,0,0,1,1.76,1,2.93,2.93,0,0,1,.88,2.28c0,1-.68,2.06-2.06,3.24-2.05,2.55-4.46,5.44-7.2,8.67s-4.7,5.56-5.88,7-2.4,3-3.67,4.78q-3.24,4.56-3.53,7.35,15-7.2,47.19-31a3.08,3.08,0,0,1,1.32,2.5,3.18,3.18,0,0,1-1.18,2.5l-2.86,2.5Q432,120.7,427,125c-3.34,2.85-6.54,5.57-9.63,8.16s-6.62,5.49-10.59,8.67-7.52,5.91-10.65,8.16Q384.78,158,382,158a4.4,4.4,0,0,1-4-1.77Q376.84,154.51,376.84,150Zm-15-6.17q1.75,0,10.8-7.2t17.13-14.41L398,115c.39-.39.59-.66.59-.81s-.15-.22-.44-.22q-5.6,0-14.56,6.39a98.62,98.62,0,0,0-15.51,13.53q-6.54,7.13-6.54,9.63A.26.26,0,0,0,361.85,143.78Z"/><path class="cls-1" d="M445.05,146c0,.3.32.44.95.44s3.51-1.46,8.6-4.41q20-11.31,47-30.28a3.07,3.07,0,0,1,1.33,2.5,3.81,3.81,0,0,1-1.47,2.8q-1.47,1.32-4.19,3.82t-10.37,9q-7.63,6.48-14.26,11.76-17.34,14-25.57,16.47a21.43,21.43,0,0,1-5.74.73,12,12,0,0,1-5.36-2.2,5.06,5.06,0,0,1-2.43-4.12,33,33,0,0,1,1.11-7c.73-3.09,1.1-4.75,1.1-5s-.08-.37-.22-.37-.42.2-.81.59c-1.28,1.38-2.89,3.07-4.85,5.07a79.47,79.47,0,0,1-10.07,8.09q-7.14,5.07-11.54,5.07a17.63,17.63,0,0,1-1.84-.51,8.1,8.1,0,0,1-2.87-2.43,8.8,8.8,0,0,1-1.76-5.88q0-3.82,5.73-11.69a106.46,106.46,0,0,1,14-15.43,98.21,98.21,0,0,1,18.08-13.16q9.84-5.58,17.2-5.58,2.64,0,4.41,4-.15-1,9.55-13.31a225,225,0,0,1,23-24.69q13.31-12.42,20.65-12.43c1.67,0,2.5.79,2.5,2.36q0,3.68-4.92,10a109.18,109.18,0,0,1-10.59,11.76q-5.66,5.44-14.62,13.67-20.73,18.82-31.24,32.05T445.05,146Zm-25.43-2.2c1.17,0,4.78-2.4,10.8-7.2s11.79-9.61,17.28-14.41l8.08-7.2c.39-.39.59-.66.59-.81s-.15-.22-.44-.22q-5.6,0-14.56,6.39a98.53,98.53,0,0,0-15.5,13.53q-6.56,7.13-6.55,9.63A.26.26,0,0,0,419.62,143.78Z"/><path class="cls-1" d="M514.14,132.61q4.11,0,12.86-5a142.8,142.8,0,0,0,15.36-10l6.62-5.14a3.07,3.07,0,0,1,1.32,2.5,3.47,3.47,0,0,1-1.32,2.64q-24.26,22.5-36.75,22.49a17.11,17.11,0,0,1-2.65-.29Q493,159.07,481.06,159.07q-7.94-1.19-10-5.59a11.73,11.73,0,0,1-1.18-5.59q0-9.69,11.17-23.15A65.85,65.85,0,0,1,509.14,105a3.2,3.2,0,0,1,2.2.66,2.65,2.65,0,0,0,1.33.74,2.45,2.45,0,0,0,1.54-.59,4.86,4.86,0,0,1,2.57-.74,4.62,4.62,0,0,1,3.39,1.84,5.89,5.89,0,0,1,2.35,4.71Q522.52,119.82,514.14,132.61Zm-32.05,17q4.71,0,11.62-6.17t7.2-8.53a17.3,17.3,0,0,1-3.75-5.37A30.46,30.46,0,0,0,495,125.7a49.51,49.51,0,0,0-8.09,9.85q-5.58,9.4-5.58,12.93C481.36,149.27,481.6,149.66,482.09,149.66Zm31.75-36q-1.47,0-6.1,4.56c-3.08,3-4.63,5.15-4.63,6.32a4.6,4.6,0,0,0,.89,1.77q.87,1.32,1.32,1.32,2.49,0,5.66-6c2.1-4,3.16-6.34,3.16-7S514,113.64,513.84,113.64Z"/><path class="cls-1" d="M539.35,145.4q5.07,0,9.4-6.25a41.59,41.59,0,0,0,6.1-12.64,40.65,40.65,0,0,0,1.77-10.22c0-.68-.52-1-1.54-1a6.21,6.21,0,0,0-3.61,1.62l-19.25,14.84a9.28,9.28,0,0,1-4.71,1.18c-1.76,0-2.64-.64-2.64-1.91a3,3,0,0,1,.36-1.76,9.73,9.73,0,0,1,2.14-1.47q10.88-7.5,29.69-24.41,2.21-2.94,4-2.94a26.26,26.26,0,0,1,5.88,1.11q4.11,1.1,4.11,2.57a73.14,73.14,0,0,1-1.61,16,59.78,59.78,0,0,1-3.31,11,33.09,33.09,0,0,0-1.69,4.05.26.26,0,0,0,.29.29,3.63,3.63,0,0,0,1.18-.44q11-5.58,28.08-18.23l3.52-2.65a3.08,3.08,0,0,1,1.33,2.5,3.47,3.47,0,0,1-1.33,2.65q-.29,0-7.57,6.17t-16.17,13.45a154.64,154.64,0,0,1-19,13.31q-10.14,6-15.73,6-13.82,0-13.82-16.61a3.37,3.37,0,0,1,1.1-2.42,3.87,3.87,0,0,1,2.87-1.1,5.66,5.66,0,0,0,.81,2.27,13.89,13.89,0,0,0,1.69,2.58C533.39,144.56,536,145.4,539.35,145.4Z"/></g></g></svg>