<svg xmlns="http://www.w3.org/2000/svg" viewBox="0 0 548.24 162.59"><defs><style>.cls-1{fill:#e0052d;}</style></defs><g id="Capa_2" data-name="Capa 2"><g id="Capa_1-2" data-name="Capa 1"><path d="M86.72,83.16H69.23l-.11-47.95L49.79,75.6H37L17.6,35.21V83.16H0V7.45H21.49L43.42,51.73,65.23,7.45H86.72Z"/><path d="M127.55,83.21q-10.26,0-17.12-3.81A25.13,25.13,0,0,1,100,68.71a32.14,32.14,0,0,1-3.29-14.5q0-9.69,4-16.27a25.77,25.77,0,0,1,11-9.93,35.15,35.15,0,0,1,15.45-3.33q10.47,0,16.95,3.91a23.83,23.83,0,0,1,9.67,11,38.69,38.69,0,0,1,3,15.42l-.11,3.44H116q3.45,10.26,13.29,10.26,7.44,0,13.71-5.94l10,10Q143.74,83.22,127.55,83.21Zm10.47-35a9.31,9.31,0,0,0-3-7.39,11.36,11.36,0,0,0-7.78-2.65q-5.3,0-8.1,2.8a13,13,0,0,0-3.56,7.24Z"/><path d="M226.26,83.16H207.14V52.61q0-5.49-3-8a10.54,10.54,0,0,0-7-2.48q-10.05,0-11.45,11.07V83.16H166.54V24.73h19.22v10q6.69-10,19.33-10a24.26,24.26,0,0,1,10.18,2.21,18.79,18.79,0,0,1,8,7.23q3,4.86,3,12.65Z"/><path d="M258.44,83.21q-7.19,0-11.77-3a18.53,18.53,0,0,1-6.83-8,26.54,26.54,0,0,1-2.24-11V24.73h19.22V56.16q0,9.72,9.4,10.58,5.83-.64,8.37-4.37a15.26,15.26,0,0,0,2.54-8.8V24.73h19.22V83.16H277.13v-9.5Q271.19,83.22,258.44,83.21Zm12.85-64.74-13.17-1.08L271.08,0,287,6.05Z"/><path class="cls-1" d="M114.3,78a121.48,121.48,0,0,1,32.49-15.51q18.22-5.73,30.13-5.74t19.19,2.58q7.27,2.56,10.51,6.54,5.43,6.76,5.44,11.76,0,6-8.38,14.11a79.06,79.06,0,0,1-12.06,9.11l-1.61.89c-.69.19-1,.49-1,.88l.88.73a24.65,24.65,0,0,1,8.75,5.59q3,3.24,3,9.56,0,8.67-7.72,16.53a60,60,0,0,1-18.15,12.64,161,161,0,0,1-19.55,7.58q-9.12,2.79-13,2.79a23.42,23.42,0,0,1-7-1,18.36,18.36,0,0,1-10.59-8c-.39-.49-.73-.73-1-.73-.68,0-2,2.15-3.82,6.46a69.1,69.1,0,0,1-2.94,6.47v-.15c-.29,1-.79,1.47-1.47,1.47q-2.35,0-4.48-4.33c-1.43-2.89-2.13-5.15-2.13-6.76s1-4.36,2.94-8.24a76.31,76.31,0,0,1,5.87-9.92l2.94-4.11q3.39-7.35,27.94-30.73t27.78-23.37a3.27,3.27,0,0,1,2.42,1A6.86,6.86,0,0,1,181.19,79a2.16,2.16,0,0,1-1.33,1.91l-20.72,22.35a2.25,2.25,0,0,0-.3.81c0,.14.15.22.44.22q3.24,0,14.7-5A143,143,0,0,0,196.25,87q10.81-7.2,10.81-11.91,0-5.14-20.58-5.15a124.22,124.22,0,0,0-47.56,9.78,143.87,143.87,0,0,0-16.24,8.45A72.26,72.26,0,0,0,112,95.86q-3.53,3.23-3.53,4.11c0,.59.25.88.74.88q4.7,0,15.51-5.07T137.82,89c1.57-1.12,2.57-1.69,3-1.69a1.29,1.29,0,0,1,1.1.74A48,48,0,0,1,127,103.28q-9.48,6.25-14.78,6.25a10.72,10.72,0,0,1-8.74-4.34c-2.3-2.89-3.46-5.41-3.46-7.57Q100,87.78,114.3,78Zm80.12,34.76c0-1-.62-1.76-1.84-2.35a10.52,10.52,0,0,0-3.75-1h-1.91q-9.25,0-23.52,4.12a34,34,0,0,1-6,1.32,2.58,2.58,0,0,1-2-.88,6.77,6.77,0,0,1-1.18-1.69,1.17,1.17,0,0,0-1.1-.81,2.84,2.84,0,0,0-1.91,1l-25.43,33.95v.15q.74,1.32,2.94,1.32h1.76q11,0,26.31-6.1a112.57,112.57,0,0,0,26.47-14.55Q194.41,118.8,194.42,112.76Z"/><path class="cls-1" d="M212.35,158.77Q201,158.77,201,145q0-8.69,7.57-18.45a65.46,65.46,0,0,1,17.86-16q10.29-6.24,18.23-6.24a9.47,9.47,0,0,1,6.54,2.79q3,2.79,3,5.44,0,4.84-6.91,11a66.64,66.64,0,0,1-14.48,9.85q-7.58,3.75-10,3.75a3.83,3.83,0,0,1-3.6-2.21,2.66,2.66,0,0,0-1.62-.44q-1,0-3.38,3.9t-2.35,6.32c0,1.61.59,2.62,1.76,3q11.18,0,24.26-6.54t36.16-23c1.08-.78,2.72-2,4.92-3.52s3.51-2.5,3.9-2.8a3.08,3.08,0,0,1,1.32,2.5,3.5,3.5,0,0,1-1.32,2.65,207.33,207.33,0,0,1-19,16.46,189.39,189.39,0,0,1-26.82,17.27Q221.9,158.77,212.35,158.77Zm31.31-47q-3.82,0-12.93,7.87t-9.12,9.63c0,.19.15.29.44.29q3.24,0,12.87-7.2t9.62-9.85C244.54,112,244.25,111.73,243.66,111.73Z"/><path class="cls-1" d="M319.22,56q7.63,0,7.64,4.12,0,6-11.54,18.22a213.18,213.18,0,0,1-23.15,21.32l-11.46,9.26a3,3,0,0,0-.89,1.62c0,.39.25.58.74.58q11.61-7.48,20.87-7.79a5.59,5.59,0,0,1,3.24,1q5,4.13,5,9.56t-11.18,18.37q4.71-1.17,12.86-6.1a151.31,151.31,0,0,0,13.9-9.33l5.73-4.41a3.07,3.07,0,0,1,1.32,2.5,3.47,3.47,0,0,1-1.32,2.64q-24.25,22.5-36.75,22.49a17.11,17.11,0,0,1-2.65-.29l.3-.44a113.74,113.74,0,0,1-17.35,14.18q-8.67,5.67-14.26,5.66-13.81,0-13.82-9.4,0-4.71,3-11.1a73.43,73.43,0,0,1,7.27-12.2q4.27-5.81,8.6-11t7.35-8.23a31.1,31.1,0,0,1,3-2.94q10.43-12,18.15-22.27a168.82,168.82,0,0,0,10.22-14.55,55.76,55.76,0,0,1,5-7.42c1.66-2.06,3.06-3.26,4.18-3.61A23.63,23.63,0,0,1,319.22,56Zm-59.1,95q6,0,15.66-8.52a115.5,115.5,0,0,0,16.46-17.79q6.84-9.26,6.84-12a.39.39,0,0,0-.44-.45q-7.65,0-17.35,8.24a91.65,91.65,0,0,0-16,17.19q-6.24,9-6.24,12.35A.9.9,0,0,0,260.12,151Z"/><path class="cls-1" d="M319.81,141.28a7.55,7.55,0,0,0-1.18,3.68c0,1.07.59,1.61,1.77,1.61a12.51,12.51,0,0,0,3.52-.88,406.39,406.39,0,0,0,53.81-34,3.08,3.08,0,0,1,1.32,2.5,3.81,3.81,0,0,1-1.47,2.8q-1.47,1.32-4.19,3.82t-10.36,9q-7.65,6.48-14.26,11.76-17.36,14-25.58,16.47a21.41,21.41,0,0,1-5.73.73q-11.32,0-11.32-12.05,0-4.71,5.14-13.45a124.3,124.3,0,0,1,10.59-15.44q5.43-6.67,7.2-7.42a10.75,10.75,0,0,1,5.73-1.62,15.06,15.06,0,0,1,5.88,1.18,1.32,1.32,0,0,1,.88,1.17c0,.5-.46,1.23-1.39,2.21s-2.36,2.5-4.27,4.56-4.75,5.61-8.52,10.65S321.08,137.85,319.81,141.28Zm35.28-57.92A2.35,2.35,0,0,1,357,84c1.37,1.67,2.06,3,2.06,4a4.12,4.12,0,0,1-.89,2.65c-.58.73-1.3,1.57-2.13,2.5A27.22,27.22,0,0,1,351,97a13.34,13.34,0,0,1-7.27,2.42,2.9,2.9,0,0,1-2.65-3.23q0-4.41,5.29-8.6T355.09,83.36Z"/><path class="cls-1" d="M384.63,146c0,.3.32.44,1,.44s3.5-1.46,8.6-4.41q20-11.31,47-30.28a3.08,3.08,0,0,1,1.32,2.5,3.81,3.81,0,0,1-1.47,2.8q-1.47,1.32-4.19,3.82t-10.36,9q-7.65,6.48-14.26,11.76-17.36,14-25.58,16.47a21.3,21.3,0,0,1-5.73.73,12.08,12.08,0,0,1-5.37-2.2,5.07,5.07,0,0,1-2.42-4.12,32.86,32.86,0,0,1,1.1-7c.73-3.09,1.1-4.75,1.1-5s-.07-.37-.22-.37-.42.2-.81.59q-1.9,2.07-4.85,5.07a79.47,79.47,0,0,1-10.07,8.09q-7.12,5.07-11.54,5.07a17.63,17.63,0,0,1-1.84-.51,8,8,0,0,1-2.86-2.43,8.75,8.75,0,0,1-1.76-5.88q0-3.82,5.73-11.69a105.79,105.79,0,0,1,14-15.43,98.55,98.55,0,0,1,18.08-13.16q9.85-5.58,17.2-5.58,2.66,0,4.41,4-.15-1,9.56-13.31a224.84,224.84,0,0,1,23-24.69Q446.67,57.79,454,57.78c1.66,0,2.5.79,2.5,2.36q0,3.68-4.93,10A109.09,109.09,0,0,1,441,81.89q-5.67,5.44-14.63,13.67-20.73,18.82-31.24,32.05T384.63,146Zm-25.43-2.2q1.77,0,10.81-7.2t17.27-14.41l8.08-7.2c.39-.39.59-.66.59-.81s-.15-.22-.44-.22q-5.58,0-14.55,6.39a98.62,98.62,0,0,0-15.51,13.53q-6.54,7.13-6.54,9.63A.25.25,0,0,0,359.2,143.78Z"/><path class="cls-1" d="M439.46,150l1.18-9.41c0-.29-.07-.44-.22-.44s-.42.2-.81.59c-1.28,1.38-2.89,3.07-4.85,5.07a79.47,79.47,0,0,1-10.07,8.09q-7.14,5.07-11.54,5.07a17.63,17.63,0,0,1-1.84-.51,8,8,0,0,1-2.86-2.43,8.75,8.75,0,0,1-1.77-5.88q0-3.82,5.81-11.69A114.44,114.44,0,0,1,426.38,123a92.91,92.91,0,0,1,18-13.16q9.92-5.58,17.27-5.58c1.86.09,3.33,1.42,4.41,4a4.05,4.05,0,0,1,2.65-1.47c.78,0,1.71.58,2.79,1.76a3.57,3.57,0,0,1,1.76,1,2.94,2.94,0,0,1,.89,2.28c0,1-.69,2.06-2.06,3.24q-3.09,3.82-7.21,8.67t-5.88,7c-1.17,1.42-2.4,3-3.67,4.78-2.16,3-3.33,5.49-3.53,7.35q15-7.2,47.19-31a3.08,3.08,0,0,1,1.32,2.5,3.18,3.18,0,0,1-1.18,2.5l-2.86,2.5q-1.69,1.47-6.69,5.73T480,133.12q-4.63,3.9-10.58,8.67T458.72,150Q447.4,158,444.61,158a4.41,4.41,0,0,1-4-1.77Q439.46,154.51,439.46,150Zm-15-6.17c1.17,0,4.78-2.4,10.8-7.2S447,127,452.4,122.17l8.23-7.2c.39-.39.59-.66.59-.81s-.15-.22-.44-.22q-5.59,0-14.56,6.39a99,99,0,0,0-15.5,13.53q-6.56,7.13-6.55,9.63A.26.26,0,0,0,424.47,143.78Z"/><path class="cls-1" d="M488.78,145.4q5.07,0,9.41-6.25a41.82,41.82,0,0,0,6.1-12.64,41,41,0,0,0,1.76-10.22c0-.68-.51-1-1.54-1a6.18,6.18,0,0,0-3.6,1.62l-19.26,14.84a9.24,9.24,0,0,1-4.7,1.18c-1.77,0-2.65-.64-2.65-1.91a2.88,2.88,0,0,1,.37-1.76,9.31,9.31,0,0,1,2.13-1.47q10.88-7.5,29.69-24.41c1.47-2,2.8-2.94,4-2.94a26.16,26.16,0,0,1,5.88,1.11c2.74.73,4.12,1.59,4.12,2.57a73.12,73.12,0,0,1-1.62,16,59.78,59.78,0,0,1-3.31,11,35.18,35.18,0,0,0-1.69,4.05.26.26,0,0,0,.3.29,3.61,3.61,0,0,0,1.17-.44q11-5.58,28.08-18.23l3.53-2.65a3.1,3.1,0,0,1,1.32,2.5,3.49,3.49,0,0,1-1.32,2.65q-.3,0-7.57,6.17t-16.17,13.45a154.76,154.76,0,0,1-19,13.31q-10.14,6-15.73,6-13.82,0-13.82-16.61a3.34,3.34,0,0,1,1.11-2.42,3.84,3.84,0,0,1,2.86-1.1,5.66,5.66,0,0,0,.81,2.27,13.89,13.89,0,0,0,1.69,2.58C482.83,144.56,485.4,145.4,488.78,145.4Z"/></g></g></svg>