<svg xmlns="http://www.w3.org/2000/svg" viewBox="0 0 433.58 205.96"><defs><style>.cls-1{fill:#e0052d;}</style></defs><g id="Capa_2" data-name="Capa 2"><g id="Capa_1-2" data-name="Capa 1"><path d="M86.72,83.16H69.23l-.11-47.95L49.79,75.6H37L17.6,35.21V83.16H0V7.45H21.49L43.42,51.73,65.23,7.45H86.72Z"/><path d="M127.55,83.21q-10.26,0-17.12-3.81A25.13,25.13,0,0,1,100,68.71a32.14,32.14,0,0,1-3.29-14.5q0-9.69,4-16.27a25.77,25.77,0,0,1,11-9.93,35.15,35.15,0,0,1,15.45-3.33q10.47,0,16.95,3.91a23.83,23.83,0,0,1,9.67,11,38.69,38.69,0,0,1,3,15.42l-.11,3.44H116q3.45,10.26,13.29,10.26,7.44,0,13.71-5.94l10,10Q143.74,83.22,127.55,83.21Zm10.47-35a9.34,9.34,0,0,0-3-7.39,11.36,11.36,0,0,0-7.78-2.65q-5.3,0-8.1,2.8a13,13,0,0,0-3.56,7.24Z"/><path d="M226.26,83.16H207.14V52.61q0-5.49-3-8a10.54,10.54,0,0,0-7-2.48q-10.05,0-11.45,11.07V83.16H166.54V24.73h19.22v10q6.69-10,19.33-10a24.26,24.26,0,0,1,10.18,2.21,18.79,18.79,0,0,1,8,7.23q3,4.86,3,12.65Z"/><path d="M258.44,83.21q-7.19,0-11.77-3a18.53,18.53,0,0,1-6.83-8,26.38,26.38,0,0,1-2.24-11V24.73h19.22V56.16q0,9.72,9.4,10.58,5.83-.64,8.37-4.37a15.26,15.26,0,0,0,2.54-8.8V24.73h19.22V83.16H277.13v-9.5Q271.19,83.22,258.44,83.21Zm12.85-64.74-13.17-1.08L271.08,0,287,6.05Z"/><path class="cls-1" d="M163.84,119.82l-15,.59q-13.83,0-18.6-1a61.67,61.67,0,0,1-8.52-2.28,20.52,20.52,0,0,1-6-3.08,13.13,13.13,0,0,1-5.44-11q0-2.06,2.5-6.17a49.39,49.39,0,0,1,8.6-9.78A88,88,0,0,1,136,76.38q8.46-5.07,22.27-8.89a129.81,129.81,0,0,1,30-4.41,57,57,0,0,1,12.13,1.39A54.06,54.06,0,0,1,211,67.78a20.93,20.93,0,0,1,7.43,5.81,13.75,13.75,0,0,1,3.23,9q0,4.11-7.94,8.82-8.82,5.3-23.3,5.29t-14.48-2.06q0-1.62,8.46-3.82t17-5.15q8.52-2.92,8.52-6.61c0-1.27-2.15-1.91-6.47-1.91q-42.63,0-73.2,22-5.73,4.26-5.74,7.35,0,4.84,30.58,4.85,27.48.3,27.49,14.7,0,10.29-14,19.55a112.36,112.36,0,0,1-32.85,14.41,140.23,140.23,0,0,1-35.5,5.29,38.38,38.38,0,0,1-16.46-4.12q-8.69-4.11-8.68-10c0-1.28,1.08-2,3.24-2.06q17.34-1.91,22.19-4.12a8.68,8.68,0,0,1,1.91-.29c.5,0,.74.1.74.29,0,.4-.59,1-1.76,1.91a29.57,29.57,0,0,1-3.53,1.62q-4.12,1.47-4.12,1.91c0,.3,1,.44,2.94.44s6.91-.78,14.85-2.35,16.44-3.58,25.5-6a118.52,118.52,0,0,0,24-9.11q10.42-5.43,10.43-10.44C171.48,120.9,168.94,119.82,163.84,119.82Z"/><path class="cls-1" d="M226.76,132.61q4.11,0,12.86-5a142.8,142.8,0,0,0,15.36-10l6.61-5.14a3.07,3.07,0,0,1,1.33,2.5,3.45,3.45,0,0,1-1.33,2.64q-24.25,22.5-36.75,22.49a17.13,17.13,0,0,1-2.64-.29q-16.62,19.26-28.52,19.26-7.94-1.19-10-5.59a11.83,11.83,0,0,1-1.17-5.58q0-9.71,11.17-23.16A65.85,65.85,0,0,1,221.76,105a3.2,3.2,0,0,1,2.2.66,2.61,2.61,0,0,0,1.33.74,2.45,2.45,0,0,0,1.54-.59,4.86,4.86,0,0,1,2.57-.73,4.54,4.54,0,0,1,3.38,1.83,5.86,5.86,0,0,1,2.35,4.71Q235.13,119.82,226.76,132.61Zm-32,17q4.69,0,11.61-6.17t7.21-8.53a17.3,17.3,0,0,1-3.75-5.37,32.14,32.14,0,0,0-2.13-3.89,49.51,49.51,0,0,0-8.09,9.85Q194,145,194,148.48C194,149.27,194.22,149.66,194.71,149.66Zm31.75-36c-1,0-3,1.53-6.1,4.56s-4.63,5.15-4.63,6.32a4.46,4.46,0,0,0,.88,1.77c.59.88,1,1.32,1.33,1.32q2.49,0,5.66-6c2.1-4,3.16-6.34,3.16-7S226.66,113.64,226.46,113.64Z"/><path class="cls-1" d="M287.76,89.68c1.08,0,2.25.81,3.53,2.43s1.91,2.82,1.91,3.6a2.31,2.31,0,0,1-.44,1.62q-10.14,8.82-19.7,18.52t-14.11,15l-4.41,5.3c-.79.78-1.18,1.32-1.18,1.61s.1.44.3.44a1.17,1.17,0,0,0,.73-.44l1.32-1q24.1-21.45,37.49-21.46a5.56,5.56,0,0,1,3.23,1q5,4.13,5,9.33T294,138.93a73,73,0,0,1-18.3,14.18q-10.89,6.1-18.16,6.1t-9.63-3.82L246.3,153a.57.57,0,0,0-.44-.15q-3.23,0-21.38,20.58t-23.3,29.84c-.39,1.77-1.18,2.65-2.36,2.65a2.54,2.54,0,0,1-1.61-.59l-6.62-5.14a1.34,1.34,0,0,1-.59-1.32q0-1.77,22.27-28.89T259,116.29Q283.34,89.68,287.76,89.68Zm-37.34,62q4.86,0,14.77-5.66A119,119,0,0,0,283,133.78q7.86-6.61,7.87-9.26a.39.39,0,0,0-.44-.44q-3.24,0-13.6,6.54t-19.19,13.23q-8.82,6.69-8.82,7.28C248.8,151.52,249.34,151.72,250.42,151.72Z"/><path class="cls-1" d="M324.8,150l1.18-9.4c0-.3-.08-.45-.22-.45s-.42.2-.81.59c-1.28,1.38-2.89,3.07-4.85,5.07A79.47,79.47,0,0,1,310,153.85q-7.14,5.07-11.54,5.07a17.63,17.63,0,0,1-1.84-.51,8.1,8.1,0,0,1-2.87-2.43A8.8,8.8,0,0,1,292,150.1q0-3.82,5.81-11.69A114.44,114.44,0,0,1,311.72,123a92.91,92.91,0,0,1,18-13.16q9.91-5.58,17.27-5.58,2.79.15,4.41,4a4.06,4.06,0,0,1,2.64-1.47c.79,0,1.72.58,2.8,1.76a3.52,3.52,0,0,1,1.76,1,2.92,2.92,0,0,1,.88,2.27c0,1-.68,2.06-2.05,3.24q-3.09,3.82-7.21,8.67t-5.88,7c-1.17,1.42-2.4,3-3.67,4.78q-3.24,4.56-3.53,7.35,15-7.2,47.19-31a3.08,3.08,0,0,1,1.32,2.5,3.18,3.18,0,0,1-1.18,2.5l-2.86,2.5q-1.69,1.47-6.69,5.73t-9.63,8.16q-4.64,3.9-10.58,8.68T344.06,150Q332.74,158,330,158a4.41,4.41,0,0,1-4-1.76Q324.79,154.51,324.8,150Zm-15-6.17q1.76,0,10.8-7.2t17.13-14.41L346,115c.39-.39.59-.66.59-.81s-.15-.22-.44-.22q-5.6,0-14.56,6.39a99,99,0,0,0-15.5,13.53q-6.56,7.13-6.55,9.63A.26.26,0,0,0,309.81,143.78Z"/><path class="cls-1" d="M374.12,145.4q5.07,0,9.41-6.25a41.71,41.71,0,0,0,6.1-12.64,41,41,0,0,0,1.76-10.22c0-.68-.51-1-1.54-1a6.18,6.18,0,0,0-3.6,1.62L367,131.73a9.34,9.34,0,0,1-4.7,1.17c-1.77,0-2.65-.63-2.65-1.91a2.88,2.88,0,0,1,.37-1.76,9.31,9.31,0,0,1,2.13-1.47q10.88-7.5,29.69-24.41,2.21-2.92,4-2.93a26,26,0,0,1,5.88,1.1c2.74.73,4.12,1.59,4.12,2.57a73.12,73.12,0,0,1-1.62,16,59.53,59.53,0,0,1-3.31,11,35.18,35.18,0,0,0-1.69,4.05.26.26,0,0,0,.3.29,3.69,3.69,0,0,0,1.17-.44q11-5.58,28.08-18.23l3.53-2.64a3.07,3.07,0,0,1,1.32,2.49,3.47,3.47,0,0,1-1.32,2.65q-.3,0-7.57,6.18t-16.17,13.45a155.79,155.79,0,0,1-19,13.3q-10.14,6-15.73,6-13.81,0-13.82-16.61a3.35,3.35,0,0,1,1.11-2.43,3.84,3.84,0,0,1,2.86-1.1,5.74,5.74,0,0,0,.81,2.28,14.13,14.13,0,0,0,1.69,2.57Q369.06,145.4,374.12,145.4Z"/></g></g></svg>