<svg xmlns="http://www.w3.org/2000/svg" viewBox="0 0 645.41 162.15"><defs><style>.cls-1{fill:#e0052d;}</style></defs><g id="Capa_2" data-name="Capa 2"><g id="Capa_1-2" data-name="Capa 1"><path d="M86.72,83.16H69.23l-.11-47.95L49.79,75.6H37L17.6,35.21V83.16H0V7.45H21.49L43.42,51.73,65.23,7.45H86.72Z"/><path d="M127.55,83.21q-10.26,0-17.12-3.81A25.13,25.13,0,0,1,100,68.71a32.14,32.14,0,0,1-3.29-14.5q0-9.69,4-16.27a25.77,25.77,0,0,1,11-9.93,35.15,35.15,0,0,1,15.45-3.33q10.47,0,16.95,3.91a23.83,23.83,0,0,1,9.67,11,38.69,38.69,0,0,1,3,15.42l-.11,3.44H116q3.45,10.26,13.29,10.26,7.44,0,13.71-5.94l10,10Q143.74,83.22,127.55,83.21Zm10.47-35a9.34,9.34,0,0,0-3-7.39,11.36,11.36,0,0,0-7.78-2.65q-5.3,0-8.1,2.8a13,13,0,0,0-3.56,7.24Z"/><path d="M226.26,83.16H207.14V52.61q0-5.49-3-8a10.54,10.54,0,0,0-7-2.48q-10.05,0-11.45,11.07V83.16H166.54V24.73h19.22v10q6.69-10,19.33-10a24.26,24.26,0,0,1,10.18,2.21,18.79,18.79,0,0,1,8,7.23q3,4.86,3,12.65Z"/><path d="M258.44,83.21q-7.19,0-11.77-3a18.53,18.53,0,0,1-6.83-8,26.38,26.38,0,0,1-2.24-11V24.73h19.22V56.16q0,9.72,9.4,10.58,5.83-.64,8.37-4.37a15.26,15.26,0,0,0,2.54-8.8V24.73h19.22V83.16H277.13v-9.5Q271.19,83.22,258.44,83.21Zm12.85-64.74-13.17-1.08L271.08,0,287,6.05Z"/><path class="cls-1" d="M203.68,62.05A29.82,29.82,0,0,1,214,71.6a23.71,23.71,0,0,1,4,13.53q0,7.49-9.4,17.2a85.59,85.59,0,0,1-22.86,16.53q-13.45,6.84-23.38,6.84t-14.33-8.23q-25.29,33.94-28.52,41.16a11.39,11.39,0,0,1,.15,2.13c0,.93-.54,1.39-1.62,1.39s-2.47-.9-4.19-2.72-2.57-4.38-2.57-7.71a14.55,14.55,0,0,1,.15-2.35q1.32-9.7,27-38.23t37-34.69A9.09,9.09,0,0,1,179,75.28a4.82,4.82,0,0,1,2.43.73,2.1,2.1,0,0,1,1.25,1.77,2.18,2.18,0,0,1-.59,1.61q-11,11.48-13.23,14l-17.49,20.28a1.58,1.58,0,0,0-.3.89c0,.68.44,1,1.33,1q5.87,0,15.94-3.38a141.72,141.72,0,0,0,19.92-8.45,73.1,73.1,0,0,0,17-11.91q7.2-6.82,7.21-12.71,0-4.86-9.26-7.2a80.7,80.7,0,0,0-19.92-2.36,97.35,97.35,0,0,0-23,3A110.29,110.29,0,0,0,138.78,80a146.21,146.21,0,0,0-16.54,9.19,77.16,77.16,0,0,0-11.1,8.38q-3.75,3.6-3.75,4.7c0,.74.35,1.1,1,1.1a28.48,28.48,0,0,0,5.59-1.47A150.77,150.77,0,0,0,142.82,88.8a3.75,3.75,0,0,1,1.4-.59.33.33,0,0,1,.36.37,11.37,11.37,0,0,1-1.83,2.79,76.79,76.79,0,0,1-5.08,5.88,80.5,80.5,0,0,1-7,6.69,39.36,39.36,0,0,1-8.6,5.51,21.46,21.46,0,0,1-9.26,2.28,13.76,13.76,0,0,1-8.82-3.6,12.12,12.12,0,0,1-4.34-9.85q0-6.24,6.18-13.59a74.15,74.15,0,0,1,16.24-14q10.06-6.61,25.06-11.17A100.32,100.32,0,0,1,176.34,55,56.8,56.8,0,0,1,203.68,62.05Z"/><path class="cls-1" d="M228.52,132.61q4.11,0,12.86-5a142.8,142.8,0,0,0,15.36-10l6.62-5.14a3.07,3.07,0,0,1,1.32,2.5,3.47,3.47,0,0,1-1.32,2.64q-24.26,22.5-36.75,22.49a17.11,17.11,0,0,1-2.65-.29q-16.61,19.26-28.52,19.26-7.94-1.19-10-5.59a11.85,11.85,0,0,1-1.18-5.59q0-9.69,11.17-23.15A65.85,65.85,0,0,1,223.52,105a3.24,3.24,0,0,1,2.21.66,2.59,2.59,0,0,0,1.32.74,2.45,2.45,0,0,0,1.54-.59,4.9,4.9,0,0,1,2.58-.74,4.62,4.62,0,0,1,3.38,1.84,5.89,5.89,0,0,1,2.35,4.71Q236.9,119.82,228.52,132.61Zm-32.05,17q4.71,0,11.62-6.17t7.2-8.53a17.3,17.3,0,0,1-3.75-5.37,29,29,0,0,0-2.13-3.89,49.86,49.86,0,0,0-8.09,9.85q-5.58,9.4-5.58,12.93C195.74,149.27,196,149.66,196.47,149.66Zm31.75-36q-1.47,0-6.1,4.56c-3.08,3-4.63,5.15-4.63,6.32a4.6,4.6,0,0,0,.89,1.77c.58.88,1,1.32,1.32,1.32q2.49,0,5.66-6c2.1-4,3.16-6.34,3.16-7S228.42,113.64,228.22,113.64Z"/><path class="cls-1" d="M240.43,128.64q8.07-5.58,16.9-12.06c-3.14-2.15-5.14-4.26-6-6.32a4.46,4.46,0,0,1-.44-1.47c0-2,.64-3.25,1.91-3.89a14.65,14.65,0,0,1,6.18-1q1.62,0,9.55,4t10.07,4a20.89,20.89,0,0,0,6-1.25,20.94,20.94,0,0,1,6.1-1.25,4.54,4.54,0,0,1,3.3,1c2.45,3.23,3.68,5.2,3.68,5.88a2,2,0,0,1-1,1.69l-6,4.19q-5.07,3.52-9.93,7.2a72.75,72.75,0,0,0-9.11,8.23q-4.26,4.56-4.26,7.36c0,.29.24.44.73.44q7.94,0,53.51-32.2c.68,0,1,.62,1,1.84s-3.87,5.44-11.61,12.64a254.46,254.46,0,0,1-26.24,21.17q-14.64,10.36-21.25,10.36-10.29,0-10.29-10.29a18.28,18.28,0,0,1,3.75-10.8q3.75-5.22,15.81-14a25.41,25.41,0,0,1-6.77-1.25c-2.84-.83-4.65-1.84-5.43-3q-3.82,3.38-13.24,11.32a9.42,9.42,0,0,1-5.73,1.61c-2.35,0-3.53-.36-3.53-1.1S238.86,129.91,240.43,128.64Z"/><path class="cls-1" d="M357.73,110.7q-.15,5.3-6.54,10.44a24,24,0,0,1-15.51,5.15q-3.82,0-3.82-2.21,0-.89,1.32-1.32,8.82-5.15,11.17-8.38a2.85,2.85,0,0,0,.3-1.32.66.66,0,0,0-.74-.74q-12.5,1.77-23.81,13.67t-11.32,18.52c0,2.06.78,3.09,2.35,3.09q10.88,0,22.93-6.32t35.87-23.23c1.08-.78,2.72-2,4.93-3.52s3.5-2.5,3.89-2.8a3.09,3.09,0,0,1,1.33,2.5,3.52,3.52,0,0,1-1.33,2.65,208.4,208.4,0,0,1-19,16.46,190.09,190.09,0,0,1-26.83,17.27q-15.15,8.16-24.7,8.16-11.32,0-11.32-12.05,0-8.39,5.59-16.39a51.59,51.59,0,0,1,13.67-13.45A81.57,81.57,0,0,1,333,108.13q8.82-3.3,14.18-3.31c3.58,0,6.15.5,7.72,1.47s2.4,2,2.5,2.94Z"/><path class="cls-1" d="M368.32,141.28a7.55,7.55,0,0,0-1.18,3.68c0,1.07.59,1.61,1.76,1.61a12.55,12.55,0,0,0,3.53-.88,405.65,405.65,0,0,0,53.8-34,3.07,3.07,0,0,1,1.33,2.5,3.84,3.84,0,0,1-1.47,2.8q-1.47,1.32-4.19,3.82t-10.37,9q-7.63,6.48-14.26,11.76-17.34,14-25.57,16.47a21.43,21.43,0,0,1-5.74.73q-11.31,0-11.32-12.05,0-4.71,5.15-13.45a125.38,125.38,0,0,1,10.58-15.44q5.44-6.67,7.21-7.42a10.75,10.75,0,0,1,5.73-1.62,15.06,15.06,0,0,1,5.88,1.18,1.32,1.32,0,0,1,.88,1.17c0,.5-.47,1.23-1.4,2.21s-2.35,2.5-4.26,4.56-4.75,5.61-8.52,10.65S369.59,137.85,368.32,141.28Zm35.27-57.92a2.37,2.37,0,0,1,1.92.59c1.37,1.67,2.05,3,2.05,4a4.11,4.11,0,0,1-.88,2.65c-.59.73-1.3,1.57-2.13,2.5a27.22,27.22,0,0,1-5,3.82,13.36,13.36,0,0,1-7.27,2.42,2.9,2.9,0,0,1-2.65-3.23q0-4.41,5.29-8.6T403.59,83.36Z"/><path class="cls-1" d="M436.52,132.61q4.11,0,12.86-5a143,143,0,0,0,15.37-10l6.61-5.14a3.07,3.07,0,0,1,1.32,2.5,3.47,3.47,0,0,1-1.32,2.64q-24.25,22.5-36.75,22.49a17.11,17.11,0,0,1-2.65-.29q-16.6,19.26-28.51,19.26-7.95-1.19-10-5.59a11.85,11.85,0,0,1-1.18-5.59q0-9.69,11.18-23.15A65.75,65.75,0,0,1,431.52,105a3.22,3.22,0,0,1,2.21.66,2.63,2.63,0,0,0,1.32.74,2.43,2.43,0,0,0,1.54-.59,4.9,4.9,0,0,1,2.58-.74,4.6,4.6,0,0,1,3.38,1.84,5.86,5.86,0,0,1,2.35,4.71Q444.9,119.82,436.52,132.61Zm-32,17q4.69,0,11.61-6.17t7.2-8.53a17.64,17.64,0,0,1-3.75-5.37,29,29,0,0,0-2.13-3.89,49.47,49.47,0,0,0-8.08,9.85q-5.59,9.4-5.59,12.93C403.74,149.27,404,149.66,404.48,149.66Zm31.75-36c-1,0-3,1.52-6.1,4.56s-4.63,5.15-4.63,6.32a4.52,4.52,0,0,0,.88,1.77q.89,1.32,1.32,1.32c1.67,0,3.55-2,5.66-6s3.16-6.34,3.16-7S436.42,113.64,436.23,113.64Z"/><path class="cls-1" d="M476.5,107.47a11.58,11.58,0,0,1,3.9,1.18c1.81.78,2.72,1.66,2.72,2.64a3.52,3.52,0,0,1-.74,2.06l-11,15.29a12.71,12.71,0,0,0-1.91,2.64c0,.2.05.3.14.3l.74-.44q17.06-11.91,28.08-20.88a6.41,6.41,0,0,1,3.45-1.47,3.72,3.72,0,0,1,1.84.3l4.11,1.17a2.19,2.19,0,0,1,1.47,1.91,2.94,2.94,0,0,1-.58,1.91q-2.81,3.09-6.4,7c-2.4,2.6-4.19,4.55-5.36,5.88s-2.5,2.82-4,4.48-2.53,2.94-3.16,3.82-1.35,1.89-2.13,3a13.31,13.31,0,0,0-1.62,2.86,23.74,23.74,0,0,0-.88,5.88c0,.88.56,1.33,1.69,1.33s3.18-.69,6.17-2.06A76.1,76.1,0,0,0,503.77,140q6.25-4.26,16.61-12.13t18.16-13.3a3.07,3.07,0,0,1,1.32,2.5,3.47,3.47,0,0,1-1.32,2.64q-4.71,4.56-11.91,11.39t-22,18.31Q489.88,160.83,484,160.83q-11.33,0-11.32-12.05,0-4.56,3.53-9.56l6.32-8.67a6.13,6.13,0,0,0,.88-1.54c0-.15-.29,0-.88.51q-25.57,21.31-32.63,25a5.48,5.48,0,0,1-2.94.74c-3.24,0-4.85-1.47-4.85-4.42a4.88,4.88,0,0,1,.73-2.64q10.88-10,15.29-16.32a54.4,54.4,0,0,0,7.42-9.85q3.9-6.31,6.62-10.43T476.5,107.47Z"/><path class="cls-1" d="M526.19,158.77q-11.33,0-11.32-13.81,0-8.69,7.57-18.45a65.46,65.46,0,0,1,17.86-16q10.29-6.24,18.23-6.24a9.47,9.47,0,0,1,6.54,2.79q3,2.79,3,5.44,0,4.84-6.91,11a66.35,66.35,0,0,1-14.47,9.85q-7.58,3.75-10,3.75a3.83,3.83,0,0,1-3.6-2.21,2.66,2.66,0,0,0-1.62-.44c-.69,0-1.81,1.3-3.38,3.9s-2.35,4.7-2.35,6.32.59,2.62,1.76,3q11.18,0,24.26-6.54t36.16-23c1.08-.78,2.72-2,4.92-3.52s3.51-2.5,3.9-2.8a3.08,3.08,0,0,1,1.32,2.5,3.5,3.5,0,0,1-1.32,2.65,208.68,208.68,0,0,1-19,16.46,188.94,188.94,0,0,1-26.83,17.27Q535.74,158.77,526.19,158.77Zm31.31-47q-3.82,0-12.94,7.87t-9.11,9.63c0,.19.15.29.44.29q3.23,0,12.86-7.2t9.63-9.85C558.38,112,558.09,111.73,557.5,111.73Z"/><path class="cls-1" d="M585.94,145.4q5.09,0,9.41-6.25a41.59,41.59,0,0,0,6.1-12.64,40.65,40.65,0,0,0,1.77-10.22c0-.68-.52-1-1.55-1a6.18,6.18,0,0,0-3.6,1.62l-19.26,14.84a9.24,9.24,0,0,1-4.7,1.18c-1.76,0-2.65-.64-2.65-1.91a3,3,0,0,1,.37-1.76,9.84,9.84,0,0,1,2.13-1.47q10.88-7.5,29.7-24.41,2.21-2.94,4-2.94a26.35,26.35,0,0,1,5.88,1.11q4.11,1.1,4.11,2.57a73.76,73.76,0,0,1-1.61,16,60.58,60.58,0,0,1-3.31,11,33.09,33.09,0,0,0-1.69,4.05.25.25,0,0,0,.29.29,3.63,3.63,0,0,0,1.18-.44q11-5.58,28.07-18.23l3.53-2.65a3.11,3.11,0,0,1,1.33,2.5,3.5,3.5,0,0,1-1.33,2.65q-.3,0-7.57,6.17t-16.17,13.45a154.64,154.64,0,0,1-19,13.31q-10.15,6-15.73,6-13.83,0-13.82-16.61a3.37,3.37,0,0,1,1.1-2.42,3.87,3.87,0,0,1,2.87-1.1,5.66,5.66,0,0,0,.81,2.27,13.4,13.4,0,0,0,1.69,2.58C580,144.56,582.56,145.4,585.94,145.4Z"/></g></g></svg>