<svg xmlns="http://www.w3.org/2000/svg" viewBox="0 0 497.38 162.59"><defs><style>.cls-1{fill:#e0052d;}</style></defs><g id="Capa_2" data-name="Capa 2"><g id="Capa_1-2" data-name="Capa 1"><path d="M86.72,83.16H69.23l-.11-47.95L49.79,75.6H37L17.6,35.21V83.16H0V7.45H21.49L43.42,51.73,65.23,7.45H86.72Z"/><path d="M127.55,83.21q-10.26,0-17.12-3.81A25.13,25.13,0,0,1,100,68.71a32.14,32.14,0,0,1-3.29-14.5q0-9.69,4-16.27a25.77,25.77,0,0,1,11-9.93,35.15,35.15,0,0,1,15.45-3.33q10.47,0,16.95,3.91a23.83,23.83,0,0,1,9.67,11,38.69,38.69,0,0,1,3,15.42l-.11,3.44H116q3.45,10.26,13.29,10.26,7.44,0,13.71-5.94l10,10Q143.74,83.22,127.55,83.21Zm10.47-35a9.34,9.34,0,0,0-3-7.39,11.36,11.36,0,0,0-7.78-2.65q-5.3,0-8.1,2.8a13,13,0,0,0-3.56,7.24Z"/><path d="M226.26,83.16H207.14V52.61q0-5.49-3-8a10.54,10.54,0,0,0-7-2.48q-10.05,0-11.45,11.07V83.16H166.54V24.73h19.22v10q6.69-10,19.33-10a24.26,24.26,0,0,1,10.18,2.21,18.79,18.79,0,0,1,8,7.23q3,4.86,3,12.65Z"/><path d="M258.44,83.21q-7.19,0-11.77-3a18.53,18.53,0,0,1-6.83-8,26.38,26.38,0,0,1-2.24-11V24.73h19.22V56.16q0,9.72,9.4,10.58,5.83-.64,8.37-4.37a15.26,15.26,0,0,0,2.54-8.8V24.73h19.22V83.16H277.13v-9.5Q271.19,83.22,258.44,83.21Zm12.85-64.74-13.17-1.08L271.08,0,287,6.05Z"/><path class="cls-1" d="M103.28,135.25q.14-13.66,9.63-28.15A104.52,104.52,0,0,1,136.5,81.67a131.18,131.18,0,0,1,31.31-17.93q17.2-7,32.34-7a36.43,36.43,0,0,1,16.1,3.61q7.41,3.6,7.42,10.87T215.36,87a76.93,76.93,0,0,1-19.84,14.41q-11.55,6-20.21,5.95a17.93,17.93,0,0,1-8.24-2.2q-4.26-2.2-4.26-6.18,0-2.2,3.53-3.82,12.49-5,18.82-9.7,1.32-1.47,2-1.47c.44,0,.66.39.66,1.18q0,2.06-5,4.85-3.53,2.64-3.52,2.94c0,.19,0,.29.14.29q2.94,0,17.94-11.32t15-14.55q0-2.06-4-2.06A68.23,68.23,0,0,0,179.72,72a102.64,102.64,0,0,0-25.8,16.76A184.37,184.37,0,0,0,133.56,110a119.22,119.22,0,0,0-14,20.88q-4.84,9.63-4.85,14.92,0,3.22,3.09,3.23,2.64,0,10.58-2.35t23-9.41a190.83,190.83,0,0,0,29-16.9c.69-.59,1.15-.89,1.4-.89s.37.2.37.59-.86,2.06-2.58,5a84.37,84.37,0,0,1-7.79,10.73A115,115,0,0,1,160,148.12a62.57,62.57,0,0,1-16,10.21q-9.34,4.26-17.2,4.26t-12.35-2.79a17.19,17.19,0,0,1-6.54-6.91q-4.26-8.22-4.56-14.84Z"/><path class="cls-1" d="M204.41,150l1.18-9.41c0-.29-.08-.44-.22-.44s-.42.2-.81.59c-1.28,1.38-2.89,3.07-4.85,5.07a79.47,79.47,0,0,1-10.07,8.09q-7.14,5.07-11.54,5.07a17.63,17.63,0,0,1-1.84-.51,8.1,8.1,0,0,1-2.87-2.43,8.8,8.8,0,0,1-1.76-5.88q0-3.82,5.81-11.69A114.44,114.44,0,0,1,191.33,123a93.14,93.14,0,0,1,18-13.16q9.93-5.58,17.28-5.58c1.86.09,3.33,1.42,4.41,4a4.06,4.06,0,0,1,2.64-1.47c.79,0,1.72.58,2.8,1.76a3.62,3.62,0,0,1,1.76,1,2.93,2.93,0,0,1,.88,2.28c0,1-.68,2.06-2.06,3.24-2,2.55-4.46,5.44-7.2,8.67s-4.7,5.56-5.88,7-2.4,3-3.67,4.78q-3.24,4.56-3.53,7.35,15-7.2,47.19-31a3.08,3.08,0,0,1,1.32,2.5,3.18,3.18,0,0,1-1.18,2.5l-2.86,2.5q-1.69,1.47-6.69,5.73t-9.63,8.16q-4.64,3.9-10.58,8.67T223.67,150Q212.35,158,209.56,158a4.4,4.4,0,0,1-4-1.77Q204.41,154.51,204.41,150Zm-15-6.17q1.76,0,10.8-7.2t17.13-14.41l8.23-7.2c.39-.39.59-.66.59-.81s-.15-.22-.44-.22q-5.59,0-14.56,6.39a98.62,98.62,0,0,0-15.51,13.53q-6.54,7.13-6.54,9.63A.26.26,0,0,0,189.42,143.78Z"/><path class="cls-1" d="M240.72,128.64q8.09-5.58,16.9-12.06-4.69-3.22-6-6.32a4.22,4.22,0,0,1-.44-1.47c0-2,.63-3.25,1.91-3.89a14.6,14.6,0,0,1,6.17-1q1.62,0,9.56,4t10.07,4a20.83,20.83,0,0,0,5.95-1.25,21,21,0,0,1,6.1-1.25,4.57,4.57,0,0,1,3.31,1c2.45,3.23,3.67,5.2,3.67,5.88A2,2,0,0,1,297,118l-6,4.19q-5.07,3.52-9.92,7.2a72.83,72.83,0,0,0-9.12,8.23q-4.26,4.56-4.26,7.36c0,.29.24.44.74.44q7.93,0,53.5-32.2c.69,0,1,.62,1,1.84s-3.87,5.44-11.61,12.64A253.39,253.39,0,0,1,285,148.85q-14.62,10.36-21.24,10.36-10.29,0-10.29-10.29a18.28,18.28,0,0,1,3.75-10.8q3.75-5.22,15.8-14a25.29,25.29,0,0,1-6.76-1.25c-2.85-.83-4.66-1.84-5.44-3q-3.83,3.38-13.23,11.32a9.44,9.44,0,0,1-5.73,1.61c-2.36,0-3.53-.36-3.53-1.1S239.15,129.91,240.72,128.64Z"/><path class="cls-1" d="M328.48,107.47a11.54,11.54,0,0,1,3.89,1.18c1.82.78,2.72,1.66,2.72,2.64a3.5,3.5,0,0,1-.73,2.06l-11,15.29a13.19,13.19,0,0,0-1.91,2.64q0,.3.15.3l.73-.44q17.06-11.91,28.08-20.88a6.41,6.41,0,0,1,3.46-1.47,3.65,3.65,0,0,1,1.83.3l4.12,1.17a2.19,2.19,0,0,1,1.47,1.91,2.94,2.94,0,0,1-.59,1.91q-2.79,3.09-6.39,7c-2.41,2.6-4.19,4.55-5.37,5.88l-4,4.48q-2.2,2.5-3.16,3.82c-.64.88-1.35,1.89-2.13,3a13.76,13.76,0,0,0-1.62,2.86,24.22,24.22,0,0,0-.88,5.88c0,.88.56,1.33,1.69,1.33s3.19-.69,6.18-2.06A77.24,77.24,0,0,0,355.75,140q6.24-4.26,16.61-12.13t18.15-13.3a3.07,3.07,0,0,1,1.32,2.5,3.47,3.47,0,0,1-1.32,2.64q-4.69,4.56-11.9,11.39t-22,18.31Q341.85,160.83,336,160.83q-11.33,0-11.32-12.05,0-4.56,3.52-9.56l6.32-8.67a6.37,6.37,0,0,0,.89-1.54c0-.15-.3,0-.89.51q-25.58,21.31-32.63,25a5.46,5.46,0,0,1-2.94.74q-4.85,0-4.85-4.42a5,5,0,0,1,.73-2.64q10.89-10,15.29-16.32a53.94,53.94,0,0,0,7.43-9.85q3.89-6.31,6.61-10.43T328.48,107.47Z"/><path class="cls-1" d="M378.16,158.77q-11.31,0-11.32-13.81,0-8.69,7.58-18.45a65.17,65.17,0,0,1,17.86-16q10.28-6.24,18.22-6.24A9.43,9.43,0,0,1,417,107q3,2.79,3,5.44,0,4.84-6.91,11a66.4,66.4,0,0,1-14.48,9.85q-7.57,3.75-10,3.75a3.85,3.85,0,0,1-3.6-2.21,2.65,2.65,0,0,0-1.61-.44q-1,0-3.39,3.9c-1.56,2.59-2.35,4.7-2.35,6.32s.59,2.62,1.77,3q11.16,0,24.25-6.54t36.16-23c1.08-.78,2.72-2,4.93-3.52s3.5-2.5,3.89-2.8a3.07,3.07,0,0,1,1.33,2.5,3.48,3.48,0,0,1-1.33,2.65,208.4,208.4,0,0,1-19,16.46,189.51,189.51,0,0,1-26.83,17.27Q387.71,158.77,378.16,158.77Zm31.31-47q-3.83,0-12.93,7.87t-9.12,9.63c0,.19.15.29.45.29q3.22,0,12.86-7.2t9.63-9.85C410.36,112,410.06,111.73,409.47,111.73Z"/><path class="cls-1" d="M437.92,145.4q5.07,0,9.41-6.25a41.82,41.82,0,0,0,6.1-12.64,41,41,0,0,0,1.76-10.22c0-.68-.51-1-1.54-1a6.18,6.18,0,0,0-3.6,1.62l-19.26,14.84a9.25,9.25,0,0,1-4.71,1.18c-1.76,0-2.64-.64-2.64-1.91a2.88,2.88,0,0,1,.37-1.76,9.31,9.31,0,0,1,2.13-1.47q10.88-7.5,29.69-24.41,2.21-2.94,4-2.94a26.16,26.16,0,0,1,5.88,1.11c2.74.73,4.12,1.59,4.12,2.57a73.12,73.12,0,0,1-1.62,16,59.78,59.78,0,0,1-3.31,11,33.09,33.09,0,0,0-1.69,4.05.26.26,0,0,0,.3.29,3.69,3.69,0,0,0,1.17-.44q11-5.58,28.08-18.23l3.53-2.65a3.1,3.1,0,0,1,1.32,2.5,3.49,3.49,0,0,1-1.32,2.65q-.3,0-7.57,6.17t-16.17,13.45a154.76,154.76,0,0,1-19,13.31q-10.14,6-15.73,6-13.82,0-13.82-16.61a3.34,3.34,0,0,1,1.11-2.42,3.84,3.84,0,0,1,2.86-1.1,5.66,5.66,0,0,0,.81,2.27,13.89,13.89,0,0,0,1.69,2.58C432,144.56,434.54,145.4,437.92,145.4Z"/></g></g></svg>